RobotoCondensed-Thin.ufo
<glyph name="quotedbl" format="2">
  <advance width="528"/>
  <unicode hex="0022"/>
  <outline>
    <contour>
      <point x="213" y="1536" type="line"/>
      <point x="154" y="1536" type="line"/>
      <point x="154" y="1389" type="line"/>
      <point x="148" y="1125" type="line"/>
      <point x="202" y="1125" type="line"/>
      <point x="213" y="1393" type="line"/>
    </contour>
    <contour>
      <point x="417" y="1536" type="line"/>
      <point x="359" y="1536" type="line"/>
      <point x="359" y="1389" type="line"/>
      <point x="353" y="1125" type="line"/>
      <point x="408" y="1125" type="line"/>
      <point x="417" y="1393" type="line"/>
    </contour>
  </outline>
</glyph>
<glyph name="dollar" format="2">
  <advance width="990"/>
  <unicode hex="0024"/>
  <outline>
    <contour>
      <point x="539" y="1663" type="line"/>
      <point x="488" y="1663" type="line"/>
      <point x="488" y="1440" type="line"/>
      <point x="539" y="1440" type="line"/>
    </contour>
    <contour>
      <point x="547" y="16" type="line"/>
      <point x="496" y="16" type="line"/>
      <point x="496" y="-208" type="line"/>
      <point x="547" y="-208" type="line"/>
    </contour>
    <contour>
      <point x="817" y="344" type="curve"/>
      <point x="817" y="181"/>
      <point x="705" y="28"/>
      <point x="516" y="28" type="curve" smooth="yes"/>
      <point x="356" y="28"/>
      <point x="172" y="117"/>
      <point x="172" y="408" type="curve"/>
      <point x="120" y="408" type="line"/>
      <point x="120" y="85"/>
      <point x="321" y="-21"/>
      <point x="516" y="-21" type="curve" smooth="yes"/>
      <point x="727" y="-21"/>
      <point x="871" y="120"/>
      <point x="871" y="346" type="curve"/>
      <point x="871" y="585"/>
      <point x="732" y="669"/>
      <point x="525" y="752" type="curve" smooth="yes"/>
      <point x="264" y="856"/>
      <point x="213" y="947"/>
      <point x="213" y="1112" type="curve"/>
      <point x="213" y="1272"/>
      <point x="307" y="1428"/>
      <point x="511" y="1428" type="curve" smooth="yes"/>
      <point x="706" y="1428"/>
      <point x="812" y="1263"/>
      <point x="812" y="1048" type="curve"/>
      <point x="863" y="1048" type="line"/>
      <point x="863" y="1323"/>
      <point x="730" y="1477"/>
      <point x="511" y="1477" type="curve" smooth="yes"/>
      <point x="299" y="1477"/>
      <point x="161" y="1332"/>
      <point x="161" y="1109" type="curve"/>
      <point x="161" y="870"/>
      <point x="292" y="788"/>
      <point x="508" y="705" type="curve" smooth="yes"/>
      <point x="744" y="601"/>
      <point x="817" y="520"/>
    </contour>
  </outline>
</glyph>
<glyph name="percent" format="2">
  <advance width="1332"/>
  <unicode hex="0025"/>
  <outline>
    <contour>
      <point x="114" y="1099" type="line"/>
      <point x="114" y="936"/>
      <point x="208" y="800"/>
      <point x="348" y="800" type="curve" smooth="yes"/>
      <point x="487" y="800"/>
      <point x="578" y="936"/>
      <point x="578" y="1099" type="curve" smooth="yes"/>
      <point x="578" y="1176" type="line" smooth="yes"/>
      <point x="578" y="1341"/>
      <point x="485" y="1477"/>
      <point x="348" y="1477" type="curve" smooth="yes"/>
      <point x="208" y="1477"/>
      <point x="114" y="1341"/>
      <point x="114" y="1176" type="curve" smooth="yes"/>
    </contour>
    <contour>
      <point x="165" y="1176" type="line"/>
      <point x="165" y="1299"/>
      <point x="226" y="1424"/>
      <point x="348" y="1424" type="curve" smooth="yes"/>
      <point x="470" y="1424"/>
      <point x="528" y="1299"/>
      <point x="528" y="1176" type="curve" smooth="yes"/>
      <point x="528" y="1099" type="line" smooth="yes"/>
      <point x="528" y="977"/>
      <point x="469" y="853"/>
      <point x="348" y="853" type="curve" smooth="yes"/>
      <point x="224" y="853"/>
      <point x="165" y="978"/>
      <point x="165" y="1099" type="curve" smooth="yes"/>
    </contour>
    <contour>
      <point x="755" y="279" type="line"/>
      <point x="755" y="115"/>
      <point x="848" y="-21"/>
      <point x="989" y="-21" type="curve" smooth="yes"/>
      <point x="1125" y="-21"/>
      <point x="1217" y="115"/>
      <point x="1217" y="279" type="curve" smooth="yes"/>
      <point x="1217" y="357" type="line" smooth="yes"/>
      <point x="1217" y="521"/>
      <point x="1125" y="657"/>
      <point x="986" y="657" type="curve" smooth="yes"/>
      <point x="848" y="657"/>
      <point x="755" y="521"/>
      <point x="755" y="357" type="curve" smooth="yes"/>
    </contour>
    <contour>
      <point x="805" y="357" type="line"/>
      <point x="805" y="491"/>
      <point x="866" y="604"/>
      <point x="986" y="604" type="curve" smooth="yes"/>
      <point x="1108" y="604"/>
      <point x="1167" y="491"/>
      <point x="1167" y="357" type="curve" smooth="yes"/>
      <point x="1167" y="279" type="line" smooth="yes"/>
      <point x="1167" y="156"/>
      <point x="1109" y="32"/>
      <point x="989" y="32" type="curve" smooth="yes"/>
      <point x="862" y="32"/>
      <point x="805" y="157"/>
      <point x="805" y="279" type="curve" smooth="yes"/>
    </contour>
    <contour>
      <point x="981" y="1270" type="line"/>
      <point x="941" y="1300" type="line"/>
      <point x="339" y="162" type="line"/>
      <point x="378" y="132" type="line"/>
    </contour>
  </outline>
</glyph>
<glyph name="comma" format="2">
  <advance width="384"/>
  <unicode hex="002C"/>
  <outline>
    <contour>
      <point x="239" y="157" type="line"/>
      <point x="178" y="157" type="line"/>
      <point x="178" y="24" type="line"/>
      <point x="178" y="-80"/>
      <point x="149" y="-145"/>
      <point x="90" y="-225" type="curve"/>
      <point x="130" y="-253" type="line"/>
      <point x="195" y="-188"/>
      <point x="239" y="-98"/>
      <point x="239" y="27" type="curve"/>
    </contour>
  </outline>
</glyph>
<glyph name="equal" format="2">
  <advance width="1005"/>
  <unicode hex="003D"/>
  <outline>
    <contour>
      <point x="852" y="895" type="line"/>
      <point x="144" y="895" type="line"/>
      <point x="144" y="843" type="line"/>
      <point x="852" y="843" type="line"/>
    </contour>
    <contour>
      <point x="852" y="488" type="line"/>
      <point x="144" y="488" type="line"/>
      <point x="144" y="437" type="line"/>
      <point x="852" y="437" type="line"/>
    </contour>
  </outline>
</glyph>
<glyph name="question" format="2">
  <advance width="798"/>
  <unicode hex="003F"/>
  <outline>
    <contour>
      <point x="404" y="400" type="line"/>
      <point x="404" y="516"/>
      <point x="431" y="622"/>
      <point x="513" y="699" type="curve" smooth="yes"/>
      <point x="641" y="835"/>
      <point x="704" y="934"/>
      <point x="704" y="1111" type="curve" smooth="yes"/>
      <point x="704" y="1318"/>
      <point x="599" y="1476"/>
      <point x="409" y="1476" type="curve" smooth="yes"/>
      <point x="241" y="1476"/>
      <point x="100" y="1348"/>
      <point x="97" y="1117" type="curve"/>
      <point x="149" y="1117" type="line"/>
      <point x="153" y="1297"/>
      <point x="249" y="1427"/>
      <point x="409" y="1427" type="curve" smooth="yes"/>
      <point x="569" y="1427"/>
      <point x="651" y="1294"/>
      <point x="651" y="1112" type="curve" smooth="yes"/>
      <point x="651" y="928"/>
      <point x="589" y="856"/>
      <point x="487" y="739" type="curve" smooth="yes"/>
      <point x="386" y="630"/>
      <point x="355" y="547"/>
      <point x="353" y="400" type="curve"/>
    </contour>
    <contour>
      <point x="333" y="49" type="curve" smooth="yes"/>
      <point x="333" y="16"/>
      <point x="354" y="-5"/>
      <point x="382" y="-5" type="curve" smooth="yes"/>
      <point x="409" y="-5"/>
      <point x="432" y="16"/>
      <point x="432" y="49" type="curve" smooth="yes"/>
      <point x="432" y="77"/>
      <point x="409" y="101"/>
      <point x="382" y="101" type="curve" smooth="yes"/>
      <point x="354" y="101"/>
      <point x="333" y="77"/>
    </contour>
  </outline>
</glyph>
<glyph name="A" format="2">
  <advance width="1081"/>
  <unicode hex="0041"/>
  <anchor x="541.0" y="1611.0" name="top"/>
  <anchor x="563.0" y="0.0" name="bottom"/>
  <anchor x="1062.0" y="1600.0" name="top_dd"/>
  <anchor x="1062.0" y="-407.0" name="bottom_dd"/>
  <anchor x="1062.0" y="1611.0" name="top0315"/>
  <anchor x="541.0" y="1611.0" name="parent_top"/>
  <outline>
    <contour>
      <point x="546" y="1413" type="line"/>
      <point x="558" y="1456" type="line"/>
      <point x="510" y="1456" type="line"/>
      <point x="46" y="0" type="line"/>
      <point x="103" y="0" type="line"/>
    </contour>
    <contour>
      <point x="976" y="0" type="line"/>
      <point x="1034" y="0" type="line"/>
      <point x="570" y="1456" type="line"/>
      <point x="525" y="1456" type="line"/>
      <point x="535" y="1413" type="line"/>
    </contour>
    <contour>
      <point x="852" y="486" type="line"/>
      <point x="229" y="486" type="line"/>
      <point x="229" y="436" type="line"/>
      <point x="852" y="436" type="line"/>
    </contour>
  </outline>
</glyph>
<glyph name="F" format="2">
  <advance width="1031"/>
  <unicode hex="0046"/>
  <anchor x="544" y="1612" name="top"/>
  <anchor x="469" y="10" name="bottom"/>
  <anchor x="1012" y="1600" name="top_dd"/>
  <anchor x="1012" y="-407" name="bottom_dd"/>
  <anchor x="1012" y="1612" name="top0315"/>
  <anchor x="544" y="1612" name="parent_top"/>
  <outline>
    <contour>
      <point x="240" y="1456" type="line"/>
      <point x="188" y="1456" type="line"/>
      <point x="188" y="0" type="line"/>
      <point x="240" y="0" type="line"/>
    </contour>
    <contour>
      <point x="866" y="772" type="line"/>
      <point x="206" y="772" type="line"/>
      <point x="206" y="719" type="line"/>
      <point x="866" y="719" type="line"/>
    </contour>
    <contour>
      <point x="952" y="1456" type="line"/>
      <point x="206" y="1456" type="line"/>
      <point x="206" y="1406" type="line"/>
      <point x="952" y="1406" type="line"/>
    </contour>
  </outline>
</glyph>
<glyph name="O" format="2">
  <advance width="1197"/>
  <unicode hex="004F"/>
  <anchor x="594" y="1632" name="top"/>
  <anchor x="600" y="-2" name="bottom"/>
  <anchor x="1178" y="1600" name="top_dd"/>
  <anchor x="1178" y="-407" name="bottom_dd"/>
  <anchor x="1178" y="1632" name="top0315"/>
  <anchor x="594" y="1632" name="parent_top"/>
  <outline>
    <contour>
      <point x="1059" y="914" type="line"/>
      <point x="1059" y="1270"/>
      <point x="884" y="1476"/>
      <point x="597" y="1476" type="curve" smooth="yes"/>
      <point x="314" y="1476"/>
      <point x="139" y="1270"/>
      <point x="139" y="914" type="curve"/>
      <point x="139" y="541" type="line"/>
      <point x="139" y="186"/>
      <point x="316" y="-22"/>
      <point x="600" y="-22" type="curve" smooth="yes"/>
      <point x="885" y="-22"/>
      <point x="1059" y="186"/>
      <point x="1059" y="541" type="curve"/>
    </contour>
    <contour>
      <point x="1005" y="541" type="line"/>
      <point x="1005" y="221"/>
      <point x="863" y="30"/>
      <point x="600" y="30" type="curve" smooth="yes"/>
      <point x="339" y="30"/>
      <point x="192" y="221"/>
      <point x="192" y="541" type="curve" smooth="yes"/>
      <point x="192" y="916" type="line" smooth="yes"/>
      <point x="192" y="1234"/>
      <point x="337" y="1425"/>
      <point x="597" y="1425" type="curve" smooth="yes"/>
      <point x="862" y="1425"/>
      <point x="1005" y="1234"/>
      <point x="1005" y="916" type="curve"/>
    </contour>
  </outline>
</glyph>
<glyph name="P" format="2">
  <advance width="1084"/>
  <unicode hex="0050"/>
  <anchor x="496" y="1612" name="top"/>
  <anchor x="468" y="10" name="bottom"/>
  <anchor x="1065" y="1600" name="top_dd"/>
  <anchor x="1065" y="-407" name="bottom_dd"/>
  <anchor x="1065" y="1612" name="top0315"/>
  <anchor x="496" y="1612" name="parent_top"/>
  <outline>
    <contour>
      <point x="577" y="615" type="line"/>
      <point x="842" y="615"/>
      <point x="978" y="775"/>
      <point x="978" y="1031" type="curve"/>
      <point x="978" y="1289"/>
      <point x="840" y="1456"/>
      <point x="577" y="1456" type="curve"/>
      <point x="188" y="1456" type="line"/>
      <point x="188" y="0" type="line"/>
      <point x="240" y="0" type="line"/>
      <point x="240" y="1406" type="line"/>
      <point x="577" y="1406" type="line"/>
      <point x="824" y="1406"/>
      <point x="925" y="1236"/>
      <point x="925" y="1029" type="curve"/>
      <point x="925" y="830"/>
      <point x="824" y="667"/>
      <point x="577" y="667" type="curve"/>
      <point x="205" y="667" type="line"/>
      <point x="205" y="615" type="line"/>
    </contour>
  </outline>
</glyph>
<glyph name="S" format="2">
  <advance width="1064"/>
  <unicode hex="0053"/>
  <anchor x="555" y="1632" name="top"/>
  <anchor x="555" y="-10" name="bottom"/>
  <anchor x="1045" y="1600" name="top_dd"/>
  <anchor x="1045" y="-407" name="bottom_dd"/>
  <anchor x="1045" y="1632" name="top0315"/>
  <anchor x="555" y="1632" name="parent_top"/>
  <outline>
    <contour>
      <point x="922" y="349" type="curve" smooth="yes"/>
      <point x="922" y="161"/>
      <point x="770" y="31"/>
      <point x="556" y="31" type="curve" smooth="yes"/>
      <point x="380" y="31"/>
      <point x="153" y="117"/>
      <point x="153" y="412" type="curve"/>
      <point x="100" y="412" type="line"/>
      <point x="100" y="84"/>
      <point x="344" y="-20"/>
      <point x="556" y="-20" type="curve" smooth="yes"/>
      <point x="789" y="-20"/>
      <point x="977" y="112"/>
      <point x="977" y="351" type="curve"/>
      <point x="977.0" y="559.0"/>
      <point x="847.0" y="687.0"/>
      <point x="562" y="767" type="curve"/>
      <point x="317" y="848"/>
      <point x="186" y="933"/>
      <point x="186" y="1125" type="curve"/>
      <point x="186" y="1282"/>
      <point x="314" y="1426"/>
      <point x="546" y="1426" type="curve" smooth="yes"/>
      <point x="762" y="1426"/>
      <point x="906" y="1302"/>
      <point x="906" y="1084" type="curve"/>
      <point x="957" y="1084" type="line"/>
      <point x="957" y="1344"/>
      <point x="787" y="1476"/>
      <point x="546" y="1476" type="curve" smooth="yes"/>
      <point x="310" y="1476"/>
      <point x="134" y="1344"/>
      <point x="134" y="1120" type="curve"/>
      <point x="134" y="888"/>
      <point x="294" y="801"/>
      <point x="546" y="720" type="curve"/>
      <point x="824" y="630"/>
      <point x="922" y="533"/>
    </contour>
  </outline>
</glyph>
<glyph name="Y" format="2">
  <advance width="1075"/>
  <unicode hex="0059"/>
  <anchor x="536" y="1602" name="top"/>
  <anchor x="537" y="10" name="bottom"/>
  <anchor x="1057" y="1600" name="top_dd"/>
  <anchor x="1057" y="-407" name="bottom_dd"/>
  <anchor x="1057" y="1602" name="top0315"/>
  <anchor x="536" y="1602" name="parent_top"/>
  <outline>
    <contour>
      <point x="113" y="1456" type="line"/>
      <point x="46" y="1456" type="line"/>
      <point x="509" y="553" type="line"/>
      <point x="509" y="0" type="line"/>
      <point x="562" y="0" type="line"/>
      <point x="562" y="553" type="line"/>
      <point x="1026" y="1456" type="line"/>
      <point x="962" y="1456" type="line"/>
      <point x="536" y="606" type="line"/>
    </contour>
  </outline>
</glyph>
<glyph name="b" format="2">
  <advance width="991"/>
  <unicode hex="0062"/>
  <anchor x="511" y="1613" name="top"/>
  <anchor x="516" y="-10" name="bottom"/>
  <anchor x="972" y="1600" name="top_dd"/>
  <anchor x="972" y="-407" name="bottom_dd"/>
  <anchor x="972" y="1613" name="top0315"/>
  <anchor x="511" y="1613" name="parent_top"/>
  <outline>
    <contour>
      <point x="162" y="1536" type="line"/>
      <point x="162" y="0" type="line"/>
      <point x="212" y="0" type="line"/>
      <point x="214" y="210" type="line"/>
      <point x="214" y="1536" type="line"/>
    </contour>
    <contour>
      <point x="869" y="590" type="line"/>
      <point x="869" y="957"/>
      <point x="741" y="1102"/>
      <point x="523" y="1102" type="curve" smooth="yes"/>
      <point x="323" y="1102"/>
      <point x="206" y="966"/>
      <point x="167" y="789" type="curve"/>
      <point x="167" y="259" type="line"/>
      <point x="195" y="114"/>
      <point x="316" y="-22"/>
      <point x="525" y="-22" type="curve" smooth="yes"/>
      <point x="742" y="-22"/>
      <point x="869" y="138"/>
      <point x="869" y="494" type="curve" smooth="yes"/>
    </contour>
    <contour>
      <point x="815" y="494" type="line"/>
      <point x="815" y="179"/>
      <point x="721" y="29"/>
      <point x="523" y="29" type="curve" smooth="yes"/>
      <point x="332" y="29"/>
      <point x="229" y="146"/>
      <point x="199" y="287" type="curve"/>
      <point x="199" y="748" type="line"/>
      <point x="224" y="867"/>
      <point x="295" y="1052"/>
      <point x="520" y="1052" type="curve" smooth="yes"/>
      <point x="722" y="1052"/>
      <point x="815" y="901"/>
      <point x="815" y="590" type="curve" smooth="yes"/>
    </contour>
  </outline>
</glyph>
<glyph name="d" format="2">
  <advance width="991"/>
  <unicode hex="0064"/>
  <anchor x="526" y="0" name="bottom"/>
  <anchor x="475" y="1621" name="top"/>
  <anchor x="972" y="1600" name="top_dd"/>
  <anchor x="972" y="-407" name="bottom_dd"/>
  <anchor x="972" y="1621" name="top0315"/>
  <anchor x="475" y="1621" name="parent_top"/>
  <outline>
    <contour>
      <point x="777" y="210" type="line"/>
      <point x="777" y="0" type="line"/>
      <point x="829" y="0" type="line"/>
      <point x="829" y="1536" type="line"/>
      <point x="777" y="1536" type="line"/>
    </contour>
    <contour>
      <point x="121" y="494" type="line"/>
      <point x="121" y="138"/>
      <point x="250" y="-22"/>
      <point x="467" y="-22" type="curve" smooth="yes"/>
      <point x="674" y="-22"/>
      <point x="794" y="114"/>
      <point x="823" y="259" type="curve"/>
      <point x="823" y="789" type="line"/>
      <point x="783" y="966"/>
      <point x="670" y="1102"/>
      <point x="469" y="1102" type="curve" smooth="yes"/>
      <point x="250" y="1102"/>
      <point x="121" y="957"/>
      <point x="121" y="590" type="curve" smooth="yes"/>
    </contour>
    <contour>
      <point x="176" y="590" type="line"/>
      <point x="176" y="902"/>
      <point x="269" y="1052"/>
      <point x="470" y="1052" type="curve" smooth="yes"/>
      <point x="697" y="1052"/>
      <point x="769" y="867"/>
      <point x="793" y="748" type="curve"/>
      <point x="793" y="287" type="line"/>
      <point x="763" y="145"/>
      <point x="659" y="29"/>
      <point x="468" y="29" type="curve" smooth="yes"/>
      <point x="269" y="29"/>
      <point x="176" y="179"/>
      <point x="176" y="494" type="curve" smooth="yes"/>
    </contour>
  </outline>
</glyph>
<glyph name="n" format="2">
  <advance width="990"/>
  <unicode hex="006E"/>
  <anchor x="509" y="1290" name="top"/>
  <anchor x="509" y="10" name="bottom"/>
  <anchor x="509" y="1290" name="marktop"/>
  <anchor x="971" y="1600" name="top_dd"/>
  <anchor x="971" y="-407" name="bottom_dd"/>
  <anchor x="971" y="1290" name="top0315"/>
  <anchor x="509" y="1290" name="parent_top"/>
  <outline>
    <contour>
      <point x="216" y="851" type="line"/>
      <point x="215" y="1082" type="line"/>
      <point x="163" y="1082" type="line"/>
      <point x="163" y="0" type="line"/>
      <point x="216" y="0" type="line"/>
    </contour>
    <contour>
      <point x="207" y="637" type="line"/>
      <point x="212" y="762"/>
      <point x="306" y="1052"/>
      <point x="532" y="1052" type="curve" smooth="yes"/>
      <point x="677" y="1052"/>
      <point x="778" y="979"/>
      <point x="778" y="701" type="curve" smooth="yes"/>
      <point x="778" y="0" type="line"/>
      <point x="830" y="0" type="line"/>
      <point x="830" y="700" type="line" smooth="yes"/>
      <point x="830" y="986"/>
      <point x="725" y="1102"/>
      <point x="538" y="1102" type="curve" smooth="yes"/>
      <point x="338" y="1102"/>
      <point x="201" y="906"/>
      <point x="179" y="695" type="curve"/>
    </contour>
  </outline>
</glyph>
<glyph name="y" format="2">
  <advance width="866"/>
  <unicode hex="0079"/>
  <anchor x="459" y="1295" name="top"/>
  <anchor x="627" y="-158" name="bottom"/>
  <anchor x="459" y="1295" name="marktop"/>
  <anchor x="848" y="1600" name="top_dd"/>
  <anchor x="848" y="-407" name="bottom_dd"/>
  <anchor x="654" y="654" name="rhotichook"/>
  <anchor x="848" y="1295" name="top0315"/>
  <anchor x="459" y="1295" name="parent_top"/>
  <outline>
    <contour>
      <point x="448" y="103" type="line"/>
      <point x="365" y="-172" type="line" smooth="yes"/>
      <point x="325" y="-297"/>
      <point x="275" y="-388"/>
      <point x="161" y="-388" type="curve" smooth="yes"/>
      <point x="151" y="-388"/>
      <point x="116" y="-383"/>
      <point x="100" y="-379" type="curve"/>
      <point x="102" y="-428" type="line"/>
      <point x="115" y="-434"/>
      <point x="151" y="-437"/>
      <point x="171" y="-437" type="curve" smooth="yes"/>
      <point x="338" y="-437"/>
      <point x="385" y="-269"/>
      <point x="413" y="-179" type="curve" smooth="yes"/>
      <point x="820" y="1082" type="line"/>
      <point x="763" y="1082" type="line"/>
    </contour>
    <contour>
      <point x="111" y="1082" type="line"/>
      <point x="55" y="1082" type="line"/>
      <point x="427" y="-21" type="line"/>
      <point x="468" y="9" type="line"/>
      <point x="452" y="59" type="line"/>
    </contour>
  </outline>
</glyph>
<glyph name="asciitilde" format="2">
  <advance width="1236"/>
  <unicode hex="007E"/>
  <outline>
    <contour>
      <point x="1025" y="751" type="line"/>
      <point x="1025" y="595"/>
      <point x="963" y="493"/>
      <point x="847" y="493" type="curve" smooth="yes"/>
      <point x="774" y="493"/>
      <point x="722" y="530"/>
      <point x="638" y="621" type="curve" smooth="yes"/>
      <point x="550" y="715"/>
      <point x="486" y="774"/>
      <point x="384" y="774" type="curve" smooth="yes"/>
      <point x="225" y="774"/>
      <point x="153" y="630"/>
      <point x="153" y="463" type="curve"/>
      <point x="205" y="464" type="line"/>
      <point x="205" y="635"/>
      <point x="272" y="722"/>
      <point x="384" y="722" type="curve" smooth="yes"/>
      <point x="462" y="722"/>
      <point x="511" y="684"/>
      <point x="592" y="596" type="curve" smooth="yes"/>
      <point x="685" y="498"/>
      <point x="745" y="443"/>
      <point x="847" y="443" type="curve" smooth="yes"/>
      <point x="1000" y="443"/>
      <point x="1076" y="591"/>
      <point x="1076" y="751" type="curve"/>
    </contour>
  </outline>
</glyph>
<glyph name="section" format="2">
  <advance width="1077"/>
  <unicode hex="00A7"/>
  <outline>
    <contour>
      <point x="600" y="159" type="line"/>
      <point x="813" y="159"/>
      <point x="951" y="268"/>
      <point x="951" y="431" type="curve"/>
      <point x="951" y="654"/>
      <point x="797" y="728"/>
      <point x="545" y="802" type="curve" smooth="yes"/>
      <point x="275" y="895"/>
      <point x="210" y="969"/>
      <point x="210" y="1132" type="curve"/>
      <point x="210" y="1294"/>
      <point x="314" y="1426"/>
      <point x="543" y="1426" type="curve" smooth="yes"/>
      <point x="761" y="1426"/>
      <point x="879" y="1255"/>
      <point x="879" y="1044" type="curve"/>
      <point x="932" y="1044" type="line"/>
      <point x="932" y="1322"/>
      <point x="785" y="1475"/>
      <point x="543" y="1475" type="curve" smooth="yes"/>
      <point x="309" y="1475"/>
      <point x="158" y="1339"/>
      <point x="158" y="1130" type="curve"/>
      <point x="158" y="917"/>
      <point x="294" y="835"/>
      <point x="521" y="768" type="curve" smooth="yes"/>
      <point x="810" y="674"/>
      <point x="898" y="593"/>
      <point x="898" y="428" type="curve"/>
      <point x="898" y="301"/>
      <point x="791" y="197"/>
      <point x="600" y="197" type="curve"/>
    </contour>
    <contour>
      <point x="453" y="830" type="line"/>
      <point x="251" y="830"/>
      <point x="120" y="721"/>
      <point x="120" y="551" type="curve" smooth="yes"/>
      <point x="120" y="326"/>
      <point x="285" y="236"/>
      <point x="531" y="169" type="curve"/>
      <point x="796" y="85"/>
      <point x="859" y="2"/>
      <point x="859" y="-152" type="curve" smooth="yes"/>
      <point x="859" y="-321"/>
      <point x="741" y="-444"/>
      <point x="528" y="-444" type="curve" smooth="yes"/>
      <point x="360" y="-444"/>
      <point x="169" y="-356"/>
      <point x="169" y="-62" type="curve"/>
      <point x="114" y="-64" type="line"/>
      <point x="114" y="-388"/>
      <point x="326" y="-495"/>
      <point x="528" y="-495" type="curve" smooth="yes"/>
      <point x="760" y="-495"/>
      <point x="913" y="-368"/>
      <point x="913" y="-150" type="curve" smooth="yes"/>
      <point x="913" y="63"/>
      <point x="780" y="142"/>
      <point x="548" y="213" type="curve" smooth="yes"/>
      <point x="247" y="314"/>
      <point x="174" y="376"/>
      <point x="174" y="553" type="curve" smooth="yes"/>
      <point x="174" y="689"/>
      <point x="259" y="797"/>
      <point x="453" y="797" type="curve"/>
    </contour>
  </outline>
</glyph>
<glyph name="copyright" format="2">
  <advance width="1664"/>
  <unicode hex="00A9"/>
  <outline>
    <contour>
      <point x="1067" y="617" type="line"/>
      <point x="1067" y="437"/>
      <point x="980" y="355"/>
      <point x="824" y="355" type="curve" smooth="yes"/>
      <point x="658" y="355"/>
      <point x="563" y="500"/>
      <point x="563" y="690" type="curve" smooth="yes"/>
      <point x="563" y="768" type="line" smooth="yes"/>
      <point x="563" y="956"/>
      <point x="658" y="1105"/>
      <point x="824" y="1105" type="curve" smooth="yes"/>
      <point x="980" y="1105"/>
      <point x="1068" y="1018"/>
      <point x="1068" y="841" type="curve"/>
      <point x="1125" y="841" type="line"/>
      <point x="1125" y="1050"/>
      <point x="1005" y="1154"/>
      <point x="824" y="1154" type="curve" smooth="yes"/>
      <point x="631" y="1154"/>
      <point x="503" y="996"/>
      <point x="503" y="767" type="curve"/>
      <point x="503" y="690" type="line"/>
      <point x="503" y="460"/>
      <point x="631" y="303"/>
      <point x="824" y="303" type="curve" smooth="yes"/>
      <point x="1005" y="303"/>
      <point x="1124" y="407"/>
      <point x="1124" y="617" type="curve"/>
    </contour>
    <contour>
      <point x="181" y="729" type="curve"/>
      <point x="181" y="1119"/>
      <point x="475" y="1422"/>
      <point x="830" y="1422" type="curve" smooth="yes"/>
      <point x="1188" y="1422"/>
      <point x="1482" y="1119"/>
      <point x="1482" y="729" type="curve" smooth="yes"/>
      <point x="1482" y="339"/>
      <point x="1188" y="33"/>
      <point x="830" y="33" type="curve" smooth="yes"/>
      <point x="475" y="33"/>
      <point x="181" y="339"/>
    </contour>
    <contour>
      <point x="120" y="729" type="curve"/>
      <point x="120" y="306"/>
      <point x="440" y="-21"/>
      <point x="830" y="-21" type="curve" smooth="yes"/>
      <point x="1223" y="-21"/>
      <point x="1541" y="306"/>
      <point x="1541" y="729" type="curve" smooth="yes"/>
      <point x="1541" y="1152"/>
      <point x="1223" y="1476"/>
      <point x="830" y="1476" type="curve" smooth="yes"/>
      <point x="440" y="1476"/>
      <point x="120" y="1152"/>
    </contour>
  </outline>
</glyph>
<glyph name="plusminus" format="2">
  <advance width="953"/>
  <unicode hex="00B1"/>
  <outline>
    <contour>
      <point x="860" y="802" type="line"/>
      <point x="81" y="802" type="line"/>
      <point x="81" y="754" type="line"/>
      <point x="860" y="754" type="line"/>
    </contour>
    <contour>
      <point x="505" y="1267" type="line"/>
      <point x="453" y="1267" type="line"/>
      <point x="453" y="289" type="line"/>
      <point x="505" y="289" type="line"/>
    </contour>
    <contour>
      <point x="833" y="51" type="line"/>
      <point x="123" y="51" type="line"/>
      <point x="123" y="-1" type="line"/>
      <point x="833" y="-1" type="line"/>
    </contour>
  </outline>
</glyph>
<glyph name="acute" format="2">
  <advance width="518"/>
  <unicode hex="00B4"/>
  <anchor x="170" y="1540" name="mkmktop_acc"/>
  <outline>
    <contour>
      <point x="127" y="1271" type="line"/>
      <point x="190" y="1271" type="line"/>
      <point x="390" y="1536" type="line"/>
      <point x="315" y="1536" type="line"/>
    </contour>
  </outline>
</glyph>
<glyph name="multiply" format="2">
  <advance width="933"/>
  <unicode hex="00D7"/>
  <outline>
    <contour>
      <point x="139" y="-7" type="line"/>
      <point x="799" y="787" type="line"/>
      <point x="762" y="823" type="line"/>
      <point x="102" y="28" type="line"/>
    </contour>
    <contour>
      <point x="785" y="-7" type="line"/>
      <point x="823" y="28" type="line"/>
      <point x="159" y="823" type="line"/>
      <point x="122" y="787" type="line"/>
    </contour>
  </outline>
</glyph>
<glyph name="Oslash" format="2">
  <advance width="1197"/>
  <unicode hex="00D8"/>
  <anchor x="622" y="1674" name="top"/>
  <anchor x="1178" y="1600" name="top_dd"/>
  <anchor x="1178" y="1674" name="top0315"/>
  <anchor x="622" y="1674" name="parent_top"/>
  <outline>
    <contour>
      <point x="1074" y="1495" type="line"/>
      <point x="1013" y="1495" type="line"/>
      <point x="168" y="-74" type="line"/>
      <point x="228" y="-74" type="line"/>
    </contour>
    <contour>
      <point x="1066" y="839" type="line"/>
      <point x="1066" y="1217"/>
      <point x="884" y="1476"/>
      <point x="597" y="1476" type="curve" smooth="yes"/>
      <point x="314" y="1476"/>
      <point x="132" y="1217"/>
      <point x="132" y="839" type="curve"/>
      <point x="132" y="617" type="line"/>
      <point x="132" y="238"/>
      <point x="316" y="-20"/>
      <point x="600" y="-20" type="curve" smooth="yes"/>
      <point x="885" y="-20"/>
      <point x="1066" y="238"/>
      <point x="1066" y="617" type="curve"/>
    </contour>
    <contour>
      <point x="1015" y="617" type="line"/>
      <point x="1015" y="273"/>
      <point x="863" y="31"/>
      <point x="600" y="31" type="curve" smooth="yes"/>
      <point x="339" y="31"/>
      <point x="185" y="273"/>
      <point x="185" y="617" type="curve" smooth="yes"/>
      <point x="185" y="841" type="line" smooth="yes"/>
      <point x="185" y="1182"/>
      <point x="337" y="1425"/>
      <point x="597" y="1425" type="curve" smooth="yes"/>
      <point x="862" y="1425"/>
      <point x="1015" y="1182"/>
      <point x="1015" y="841" type="curve"/>
    </contour>
  </outline>
</glyph>
<glyph name="eth" format="2">
  <advance width="1043"/>
  <unicode hex="00F0"/>
  <outline>
    <contour>
      <point x="303" y="1531" type="line"/>
      <point x="613" y="1392"/>
      <point x="853" y="1168"/>
      <point x="853" y="616" type="curve" smooth="yes"/>
      <point x="853" y="535" type="line" smooth="yes"/>
      <point x="853" y="244"/>
      <point x="737" y="36"/>
      <point x="554" y="36" type="curve" smooth="yes"/>
      <point x="338" y="36"/>
      <point x="216" y="250"/>
      <point x="216" y="463" type="curve"/>
      <point x="216" y="705"/>
      <point x="312" y="898"/>
      <point x="529" y="898" type="curve"/>
      <point x="764" y="898"/>
      <point x="870" y="698"/>
      <point x="870" y="574" type="curve"/>
      <point x="897" y="584" type="line"/>
      <point x="897" y="820"/>
      <point x="716" y="952"/>
      <point x="526" y="952" type="curve"/>
      <point x="300" y="952"/>
      <point x="164" y="774"/>
      <point x="164" y="463" type="curve"/>
      <point x="164" y="194"/>
      <point x="323" y="-20"/>
      <point x="551" y="-20" type="curve" smooth="yes"/>
      <point x="756" y="-20"/>
      <point x="904" y="206"/>
      <point x="904" y="535" type="curve"/>
      <point x="904" y="614" type="line"/>
      <point x="904" y="1127"/>
      <point x="709" y="1406"/>
      <point x="321" y="1576" type="curve"/>
    </contour>
    <contour>
      <point x="859" y="1412" type="line"/>
      <point x="834" y="1459" type="line"/>
      <point x="427" y="1199" type="line"/>
      <point x="453" y="1152" type="line"/>
    </contour>
  </outline>
</glyph>
<glyph name="Dcroat" format="2">
  <advance width="1204"/>
  <unicode hex="0110"/>
  <anchor x="521" y="1612" name="parent_top"/>
  <anchor x="521" y="10" name="bottom"/>
  <anchor x="1185" y="1600" name="top_dd"/>
  <anchor x="1185" y="-407" name="bottom_dd"/>
  <anchor x="1185" y="1612" name="top0315"/>
  <anchor x="521" y="1612" name="top"/>
  <outline>
    <contour>
      <point x="559" y="0" type="line"/>
      <point x="853" y="0"/>
      <point x="1063" y="206"/>
      <point x="1063" y="563" type="curve"/>
      <point x="1063" y="894" type="line"/>
      <point x="1063" y="1249"/>
      <point x="854" y="1456"/>
      <point x="559" y="1456" type="curve"/>
      <point x="256" y="1456" type="line"/>
      <point x="256" y="1406" type="line"/>
      <point x="559" y="1406" type="line"/>
      <point x="823" y="1406"/>
      <point x="1012" y="1212"/>
      <point x="1012" y="896" type="curve"/>
      <point x="1012" y="563" type="line" smooth="yes"/>
      <point x="1012" y="243"/>
      <point x="825" y="51"/>
      <point x="559" y="51" type="curve"/>
      <point x="261" y="51" type="line"/>
      <point x="261" y="0" type="line"/>
    </contour>
    <contour>
      <point x="270" y="1456" type="line"/>
      <point x="218" y="1456" type="line"/>
      <point x="218" y="0" type="line"/>
      <point x="270" y="0" type="line"/>
    </contour>
    <contour>
      <point x="596" y="764" type="line"/>
      <point x="95" y="764" type="line"/>
      <point x="95" y="713" type="line"/>
      <point x="596" y="713" type="line"/>
    </contour>
  </outline>
</glyph>
<glyph name="Eogonek" format="2">
  <advance width="1027"/>
  <unicode hex="0118"/>
  <anchor x="544" y="1612" name="parent_top"/>
  <anchor x="544" y="10" name="bottom"/>
  <anchor x="1008" y="1600" name="top_dd"/>
  <anchor x="1008" y="-407" name="bottom_dd"/>
  <anchor x="1008" y="1612" name="top0315"/>
  <anchor x="544" y="1612" name="top"/>
  <outline>
    <contour>
      <point x="940" y="51" type="line"/>
      <point x="210" y="51" type="line"/>
      <point x="210" y="0" type="line"/>
      <point x="940" y="0" type="line"/>
    </contour>
    <contour>
      <point x="240" y="1456" type="line"/>
      <point x="188" y="1456" type="line"/>
      <point x="188" y="0" type="line"/>
      <point x="240" y="0" type="line"/>
    </contour>
    <contour>
      <point x="855" y="775" type="line"/>
      <point x="210" y="775" type="line"/>
      <point x="210" y="724" type="line"/>
      <point x="855" y="724" type="line"/>
    </contour>
    <contour>
      <point x="940" y="1456" type="line"/>
      <point x="210" y="1456" type="line"/>
      <point x="210" y="1406" type="line"/>
      <point x="940" y="1406" type="line"/>
    </contour>
    <contour>
      <point x="852" y="19" type="line"/>
      <point x="765" y="-54"/>
      <point x="679" y="-153"/>
      <point x="679" y="-248" type="curve" smooth="yes"/>
      <point x="679" y="-347"/>
      <point x="730" y="-394"/>
      <point x="807" y="-394" type="curve" smooth="yes"/>
      <point x="860" y="-394"/>
      <point x="895" y="-370"/>
      <point x="915" y="-350" type="curve"/>
      <point x="901" y="-304" type="line"/>
      <point x="882" y="-322"/>
      <point x="853" y="-343"/>
      <point x="809" y="-343" type="curve" smooth="yes"/>
      <point x="748" y="-343"/>
      <point x="731" y="-295"/>
      <point x="731" y="-248" type="curve" smooth="yes"/>
      <point x="731" y="-150"/>
      <point x="809" y="-74"/>
      <point x="890" y="0" type="curve"/>
    </contour>
  </outline>
</glyph>
<glyph name="eng" format="2">
  <advance width="991"/>
  <unicode hex="014B"/>
  <anchor x="509" y="1290" name="top"/>
  <anchor x="509" y="10" name="bottom"/>
  <anchor x="651" y="-309" name="parenthesses.w1"/>
  <anchor x="509" y="10" name="markbottom"/>
  <anchor x="972" y="1290" name="top0315"/>
  <anchor x="651" y="-309" name="markparenthesses.w1"/>
  <anchor x="509" y="1290" name="parent_top"/>
  <outline>
    <contour>
      <point x="215" y="851" type="line"/>
      <point x="209" y="1082" type="line"/>
      <point x="163" y="1082" type="line"/>
      <point x="163" y="0" type="line"/>
      <point x="215" y="0" type="line"/>
    </contour>
    <contour>
      <point x="203" y="552" type="line"/>
      <point x="203" y="786"/>
      <point x="275" y="1052"/>
      <point x="528" y="1052" type="curve" smooth="yes"/>
      <point x="670" y="1052"/>
      <point x="779" y="965"/>
      <point x="779" y="636" type="curve" smooth="yes"/>
      <point x="779" y="-89" type="line" smooth="yes"/>
      <point x="779" y="-279"/>
      <point x="710" y="-388"/>
      <point x="588" y="-388" type="curve" smooth="yes"/>
      <point x="552" y="-388"/>
      <point x="506" y="-377"/>
      <point x="488" y="-369" type="curve"/>
      <point x="476" y="-415" type="line"/>
      <point x="513" y="-428"/>
      <point x="546" y="-437"/>
      <point x="588" y="-437" type="curve" smooth="yes"/>
      <point x="740" y="-437"/>
      <point x="832" y="-314"/>
      <point x="832" y="-89" type="curve" smooth="yes"/>
      <point x="832" y="636" type="line" smooth="yes"/>
      <point x="832" y="967"/>
      <point x="727" y="1102"/>
      <point x="531" y="1102" type="curve" smooth="yes"/>
      <point x="281" y="1102"/>
      <point x="166" y="873"/>
      <point x="166" y="553" type="curve"/>
    </contour>
  </outline>
</glyph>
<glyph name="Uogonek" format="2">
  <advance width="1194"/>
  <unicode hex="0172"/>
  <anchor x="610" y="1611" name="parent_top"/>
  <anchor x="597" y="0" name="bottom"/>
  <anchor x="1175" y="1600" name="top_dd"/>
  <anchor x="1175" y="-407" name="bottom_dd"/>
  <anchor x="1175" y="1611" name="top0315"/>
  <anchor x="610" y="1611" name="top"/>
  <outline>
    <contour>
      <point x="969" y="1456" type="line"/>
      <point x="969" y="431" type="line" smooth="yes"/>
      <point x="969" y="148"/>
      <point x="809" y="29"/>
      <point x="597" y="29" type="curve" smooth="yes"/>
      <point x="388" y="29"/>
      <point x="227" y="148"/>
      <point x="227" y="431" type="curve" smooth="yes"/>
      <point x="227" y="1456" type="line"/>
      <point x="175" y="1456" type="line"/>
      <point x="175" y="431" type="line"/>
      <point x="175" y="103"/>
      <point x="355" y="-22"/>
      <point x="597" y="-22" type="curve" smooth="yes"/>
      <point x="839" y="-22"/>
      <point x="1020" y="103"/>
      <point x="1020" y="431" type="curve"/>
      <point x="1020" y="1456" type="line"/>
    </contour>
    <contour>
      <point x="773" y="53" type="line"/>
      <point x="687" y="-21"/>
      <point x="601" y="-119"/>
      <point x="601" y="-214" type="curve" smooth="yes"/>
      <point x="601" y="-314"/>
      <point x="652" y="-361"/>
      <point x="729" y="-361" type="curve" smooth="yes"/>
      <point x="781" y="-361"/>
      <point x="816" y="-337"/>
      <point x="837" y="-317" type="curve"/>
      <point x="823" y="-270" type="line"/>
      <point x="804" y="-288"/>
      <point x="775" y="-311"/>
      <point x="731" y="-311" type="curve" smooth="yes"/>
      <point x="670" y="-311"/>
      <point x="653" y="-262"/>
      <point x="653" y="-214" type="curve" smooth="yes"/>
      <point x="653" y="-117"/>
      <point x="731" y="-41"/>
      <point x="812" y="34" type="curve"/>
    </contour>
  </outline>
</glyph>
<glyph name="Uhorn" format="2">
  <advance width="1199"/>
  <unicode hex="01AF"/>
  <anchor x="585" y="1612" name="top"/>
  <anchor x="575" y="0" name="bottom"/>
  <anchor x="1180" y="1612" name="top0315"/>
  <anchor x="585" y="1612" name="parent_top"/>
  <outline>
    <contour>
      <point x="1217" y="1550" type="line"/>
      <point x="1217" y="1356"/>
      <point x="1175" y="1249"/>
      <point x="997" y="1249" type="curve"/>
      <point x="997" y="1196" type="line"/>
      <point x="1200" y="1196"/>
      <point x="1270" y="1321"/>
      <point x="1270" y="1550" type="curve"/>
    </contour>
    <contour>
      <point x="969" y="1456" type="line"/>
      <point x="969" y="469" type="line" smooth="yes"/>
      <point x="969" y="186"/>
      <point x="809" y="31"/>
      <point x="597" y="31" type="curve" smooth="yes"/>
      <point x="388" y="31"/>
      <point x="227" y="186"/>
      <point x="227" y="469" type="curve" smooth="yes"/>
      <point x="227" y="1456" type="line"/>
      <point x="175" y="1456" type="line"/>
      <point x="175" y="469" type="line"/>
      <point x="175" y="141"/>
      <point x="355" y="-20"/>
      <point x="597" y="-20" type="curve" smooth="yes"/>
      <point x="839" y="-20"/>
      <point x="1020" y="141"/>
      <point x="1020" y="469" type="curve"/>
      <point x="1020" y="1456" type="line"/>
    </contour>
  </outline>
</glyph>
<glyph name="uni01B8" format="2">
  <advance width="1120"/>
  <unicode hex="01B8"/>
  <outline>
    <contour>
      <point x="973" y="30" type="line"/>
      <point x="948" y="-257"/>
      <point x="811" y="-386"/>
      <point x="584" y="-386" type="curve" smooth="yes"/>
      <point x="346" y="-386"/>
      <point x="186" y="-191"/>
      <point x="186" y="166" type="curve" smooth="yes"/>
      <point x="186" y="518"/>
      <point x="346" y="714"/>
      <point x="585" y="714" type="curve" smooth="yes"/>
      <point x="754" y="714" type="line"/>
      <point x="754" y="766" type="line"/>
      <point x="585" y="766" type="line" smooth="yes"/>
      <point x="311" y="766"/>
      <point x="135" y="542"/>
      <point x="135" y="166" type="curve" smooth="yes"/>
      <point x="135" y="-216"/>
      <point x="311" y="-437"/>
      <point x="584" y="-437" type="curve" smooth="yes"/>
      <point x="835" y="-437"/>
      <point x="1000" y="-286"/>
      <point x="1025" y="30" type="curve"/>
    </contour>
    <contour>
      <point x="740" y="714" type="line"/>
      <point x="776" y="714" type="line"/>
      <point x="776" y="756" type="line"/>
      <point x="239" y="1456" type="line"/>
      <point x="202" y="1456" type="line"/>
      <point x="202" y="1420" type="line"/>
    </contour>
    <contour>
      <point x="230" y="1406" type="line"/>
      <point x="1025" y="1406" type="line"/>
      <point x="1025" y="1456" type="line"/>
      <point x="230" y="1456" type="line"/>
    </contour>
  </outline>
</glyph>
<glyph name="uni01BB" format="2">
  <advance width="991"/>
  <unicode hex="01BB"/>
  <outline>
    <contour>
      <point x="890" y="734" type="line" name="hr00"/>
      <point x="344" y="734" type="line"/>
      <point x="344" y="682" type="line"/>
      <point x="890" y="682" type="line"/>
    </contour>
    <contour>
      <point x="891" y="51" type="line"/>
      <point x="213" y="51" type="line"/>
      <point x="571" y="546" type="line" smooth="yes"/>
      <point x="697" y="718"/>
      <point x="825" y="905"/>
      <point x="825" y="1085" type="curve" smooth="yes"/>
      <point x="825" y="1341"/>
      <point x="688" y="1476"/>
      <point x="475" y="1476" type="curve" smooth="yes"/>
      <point x="261" y="1476"/>
      <point x="117" y="1281"/>
      <point x="117" y="1045" type="curve"/>
      <point x="170" y="1045" type="line"/>
      <point x="170" y="1263"/>
      <point x="299" y="1425"/>
      <point x="475" y="1425" type="curve" smooth="yes"/>
      <point x="670" y="1425"/>
      <point x="771" y="1294"/>
      <point x="771" y="1086" type="curve" smooth="yes"/>
      <point x="771" y="958"/>
      <point x="705" y="812"/>
      <point x="550" y="603" type="curve" smooth="yes"/>
      <point x="147" y="51" type="line"/>
      <point x="147" y="0" type="line"/>
      <point x="891" y="0" type="line"/>
    </contour>
  </outline>
</glyph>
<glyph name="uni01F6" format="2">
  <advance width="1995"/>
  <unicode hex="01F6"/>
  <outline>
    <contour>
      <point x="1038" y="775" type="line"/>
      <point x="216" y="775" type="line"/>
      <point x="216" y="724" type="line"/>
      <point x="1038" y="724" type="line"/>
    </contour>
    <contour>
      <point x="240" y="1456" type="line"/>
      <point x="188" y="1456" type="line"/>
      <point x="188" y="0" type="line"/>
      <point x="240" y="0" type="line"/>
    </contour>
    <contour>
      <point x="1072" y="1456" type="line"/>
      <point x="1018" y="1456" type="line"/>
      <point x="1018" y="500" type="line"/>
      <point x="1072" y="500" type="line"/>
    </contour>
    <contour>
      <point x="1756" y="1083" type="line"/>
      <point x="1756" y="389" type="line" smooth="yes"/>
      <point x="1756" y="170"/>
      <point x="1609" y="36"/>
      <point x="1414" y="36" type="curve" smooth="yes"/>
      <point x="1221" y="36"/>
      <point x="1072" y="170"/>
      <point x="1072" y="389" type="curve" smooth="yes"/>
      <point x="1072" y="565" type="line"/>
      <point x="1018" y="565" type="line"/>
      <point x="1018" y="389" type="line" smooth="yes"/>
      <point x="1018" y="130"/>
      <point x="1188" y="-15"/>
      <point x="1414" y="-15" type="curve" smooth="yes"/>
      <point x="1639" y="-15"/>
      <point x="1810" y="130"/>
      <point x="1810" y="389" type="curve" smooth="yes"/>
      <point x="1810" y="1083" type="line"/>
    </contour>
  </outline>
</glyph>
<glyph name="uni0220" format="2">
  <advance width="1152"/>
  <unicode hex="0220"/>
  <outline>
    <contour>
      <point x="979" y="-437" type="line"/>
      <point x="979" y="1070" type="line" smooth="yes"/>
      <point x="979" y="1330"/>
      <point x="809" y="1476"/>
      <point x="584" y="1476" type="curve" smooth="yes"/>
      <point x="421" y="1476"/>
      <point x="292" y="1395"/>
      <point x="226" y="1308" type="curve"/>
      <point x="226" y="1238" type="line"/>
      <point x="301" y="1349"/>
      <point x="432" y="1426"/>
      <point x="584" y="1426" type="curve" smooth="yes"/>
      <point x="779" y="1426"/>
      <point x="927" y="1290"/>
      <point x="927" y="1070" type="curve" smooth="yes"/>
      <point x="927" y="-437" type="line"/>
    </contour>
    <contour>
      <point x="240" y="1456" type="line"/>
      <point x="188" y="1456" type="line"/>
      <point x="188" y="0" type="line"/>
      <point x="240" y="0" type="line"/>
    </contour>
  </outline>
</glyph>
<glyph name="uni0222" format="2">
  <advance width="1235"/>
  <unicode hex="0222"/>
  <outline>
    <contour>
      <point x="600" y="840" type="line" name="hr00"/>
      <point x="330" y="840"/>
      <point x="140" y="697"/>
      <point x="140" y="414" type="curve" smooth="yes"/>
      <point x="140" y="135"/>
      <point x="330" y="-19"/>
      <point x="600" y="-19" type="curve" smooth="yes"/>
      <point x="634" y="-19" type="line" smooth="yes"/>
      <point x="903" y="-19"/>
      <point x="1095" y="135"/>
      <point x="1095" y="416" type="curve" smooth="yes"/>
      <point x="1095" y="697"/>
      <point x="903" y="840"/>
      <point x="634" y="840" type="curve" smooth="yes"/>
    </contour>
    <contour>
      <point x="634" y="801" type="line"/>
      <point x="852" y="801"/>
      <point x="1041" y="680"/>
      <point x="1041" y="416" type="curve" smooth="yes"/>
      <point x="1041" y="147"/>
      <point x="852" y="30"/>
      <point x="634" y="30" type="curve" smooth="yes"/>
      <point x="600" y="30" type="line" smooth="yes"/>
      <point x="387" y="30"/>
      <point x="194" y="147"/>
      <point x="194" y="414" type="curve" smooth="yes"/>
      <point x="194" y="680"/>
      <point x="387" y="801"/>
      <point x="600" y="801" type="curve" smooth="yes"/>
    </contour>
    <contour>
      <point x="598" y="852" type="line"/>
      <point x="373" y="852"/>
      <point x="194" y="912"/>
      <point x="194" y="1153" type="curve" smooth="yes"/>
      <point x="194" y="1315"/>
      <point x="281" y="1412"/>
      <point x="438" y="1426" type="curve"/>
      <point x="438" y="1476" type="line"/>
      <point x="267" y="1464"/>
      <point x="140" y="1361"/>
      <point x="140" y="1153" type="curve" smooth="yes"/>
      <point x="140" y="900"/>
      <point x="331" y="809"/>
      <point x="598" y="809" type="curve" smooth="yes"/>
      <point x="634" y="809" type="line" smooth="yes"/>
      <point x="903" y="809"/>
      <point x="1095" y="900"/>
      <point x="1095" y="1153" type="curve" smooth="yes"/>
      <point x="1095" y="1361"/>
      <point x="965" y="1464"/>
      <point x="795" y="1476" type="curve"/>
      <point x="795" y="1426" type="line"/>
      <point x="952" y="1412"/>
      <point x="1041" y="1315"/>
      <point x="1041" y="1153" type="curve" smooth="yes"/>
      <point x="1041" y="912"/>
      <point x="862" y="852"/>
      <point x="634" y="852" type="curve" smooth="yes"/>
    </contour>
  </outline>
</glyph>
<glyph name="uni0224" format="2">
  <advance width="1079"/>
  <unicode hex="0224"/>
  <outline>
    <contour>
      <point x="950" y="1422" type="line"/>
      <point x="950" y="1456" type="line"/>
      <point x="914" y="1456" type="line"/>
      <point x="97" y="41" type="line"/>
      <point x="97" y="0" type="line"/>
      <point x="133" y="0" type="line"/>
    </contour>
    <contour>
      <point x="927" y="1456" type="line"/>
      <point x="130" y="1456" type="line"/>
      <point x="130" y="1406" type="line"/>
      <point x="927" y="1406" type="line"/>
    </contour>
    <contour>
      <point x="973" y="-346" type="line"/>
      <point x="985" y="-307"/>
      <point x="991" y="-276"/>
      <point x="991" y="-233" type="curve" smooth="yes"/>
      <point x="991" y="-55"/>
      <point x="887" y="51"/>
      <point x="696" y="51" type="curve" smooth="yes"/>
      <point x="116" y="51" type="line"/>
      <point x="116" y="0" type="line"/>
      <point x="696" y="0" type="line" smooth="yes"/>
      <point x="853" y="0"/>
      <point x="940" y="-84"/>
      <point x="940" y="-234" type="curve" smooth="yes"/>
      <point x="940" y="-270"/>
      <point x="931" y="-312"/>
      <point x="924" y="-332" type="curve"/>
    </contour>
  </outline>
</glyph>
<glyph name="uni0234" format="2">
  <advance width="631"/>
  <unicode hex="0234"/>
  <outline>
    <contour>
      <point x="158" y="228" type="curve"/>
      <point x="158" y="228"/>
      <point x="158" y="-135"/>
      <point x="158" y="-135" type="curve"/>
      <point x="158" y="-346"/>
      <point x="234" y="-437"/>
      <point x="389" y="-437" type="curve" smooth="yes"/>
      <point x="519" y="-437"/>
      <point x="585" y="-328"/>
      <point x="585" y="-203" type="curve" smooth="yes"/>
      <point x="585" y="-59"/>
      <point x="503" y="15"/>
      <point x="402" y="15" type="curve" smooth="yes"/>
      <point x="301" y="15"/>
      <point x="226" y="-54"/>
      <point x="163" y="-142" type="curve"/>
      <point x="36" y="-373" type="line"/>
      <point x="36" y="-373"/>
      <point x="77" y="-402"/>
      <point x="77" y="-402" type="curve"/>
      <point x="170" y="-226" type="line"/>
      <point x="240" y="-105"/>
      <point x="303" y="-36"/>
      <point x="392" y="-36" type="curve" smooth="yes"/>
      <point x="481" y="-36"/>
      <point x="533" y="-102"/>
      <point x="533" y="-203" type="curve" smooth="yes"/>
      <point x="533" y="-304"/>
      <point x="485" y="-386"/>
      <point x="389" y="-386" type="curve" smooth="yes"/>
      <point x="249" y="-386"/>
      <point x="210" y="-294"/>
      <point x="210" y="-140" type="curve"/>
      <point x="210" y="-62"/>
      <point x="210" y="228"/>
      <point x="210" y="228" type="curve"/>
      <point x="210" y="228"/>
      <point x="158" y="228"/>
    </contour>
    <contour>
      <point x="211" y="1536" type="line"/>
      <point x="158" y="1536" type="line"/>
      <point x="158" y="0" type="line"/>
      <point x="211" y="0" type="line"/>
    </contour>
  </outline>
</glyph>
<glyph name="uni0235" format="2">
  <advance width="1250"/>
  <unicode hex="0235"/>
  <outline>
    <contour>
      <point x="778" y="228" type="curve"/>
      <point x="778" y="228"/>
      <point x="778" y="-135"/>
      <point x="778" y="-135" type="curve"/>
      <point x="778" y="-346"/>
      <point x="854" y="-437"/>
      <point x="1009" y="-437" type="curve" smooth="yes"/>
      <point x="1139" y="-437"/>
      <point x="1205" y="-328"/>
      <point x="1205" y="-203" type="curve" smooth="yes"/>
      <point x="1205" y="-59"/>
      <point x="1123" y="15"/>
      <point x="1022" y="15" type="curve" smooth="yes"/>
      <point x="921" y="15"/>
      <point x="846" y="-54"/>
      <point x="783" y="-142" type="curve"/>
      <point x="656" y="-373" type="line"/>
      <point x="656" y="-373"/>
      <point x="697" y="-402"/>
      <point x="697" y="-402" type="curve"/>
      <point x="790" y="-226" type="line"/>
      <point x="860" y="-105"/>
      <point x="923" y="-36"/>
      <point x="1012" y="-36" type="curve" smooth="yes"/>
      <point x="1101" y="-36"/>
      <point x="1153" y="-102"/>
      <point x="1153" y="-203" type="curve" smooth="yes"/>
      <point x="1153" y="-304"/>
      <point x="1105" y="-386"/>
      <point x="1009" y="-386" type="curve" smooth="yes"/>
      <point x="869" y="-386"/>
      <point x="830" y="-294"/>
      <point x="830" y="-140" type="curve"/>
      <point x="830" y="-62"/>
      <point x="830" y="228"/>
      <point x="830" y="228" type="curve"/>
      <point x="830" y="228"/>
      <point x="778" y="228"/>
    </contour>
    <contour>
      <point x="216" y="851" type="line"/>
      <point x="215" y="1082" type="line"/>
      <point x="163" y="1082" type="line"/>
      <point x="163" y="0" type="line"/>
      <point x="216" y="0" type="line"/>
    </contour>
    <contour>
      <point x="207" y="637" type="line"/>
      <point x="212" y="762"/>
      <point x="306" y="1052"/>
      <point x="532" y="1052" type="curve" smooth="yes"/>
      <point x="677" y="1052"/>
      <point x="778" y="979"/>
      <point x="778" y="701" type="curve" smooth="yes"/>
      <point x="778" y="0" type="line"/>
      <point x="830" y="0" type="line"/>
      <point x="830" y="700" type="line" smooth="yes"/>
      <point x="830" y="986"/>
      <point x="725" y="1102"/>
      <point x="538" y="1102" type="curve" smooth="yes"/>
      <point x="338" y="1102"/>
      <point x="201" y="906"/>
      <point x="179" y="695" type="curve"/>
    </contour>
  </outline>
</glyph>
<glyph name="uni0237" format="2">
  <advance width="400"/>
  <unicode hex="0237"/>
  <anchor x="199" y="1249" name="top"/>
  <anchor x="381" y="1249" name="top0315"/>
  <anchor x="199" y="1249" name="parent_top"/>
  <outline>
    <contour>
      <point x="175" y="1082" type="line"/>
      <point x="175" y="-89" type="line"/>
      <point x="175" y="-279"/>
      <point x="108" y="-386"/>
      <point x="-14" y="-386" type="curve" smooth="yes"/>
      <point x="-45" y="-386"/>
      <point x="-82" y="-376"/>
      <point x="-99" y="-368" type="curve"/>
      <point x="-109" y="-415" type="line"/>
      <point x="-77" y="-428"/>
      <point x="-51" y="-437"/>
      <point x="-14" y="-437" type="curve" smooth="yes"/>
      <point x="138" y="-437"/>
      <point x="229" y="-314"/>
      <point x="229" y="-89" type="curve"/>
      <point x="229" y="1082" type="line"/>
    </contour>
  </outline>
</glyph>
<glyph name="uni0239" format="2">
  <advance width="1606"/>
  <unicode hex="0239"/>
  <outline>
    <contour>
      <point x="776" y="-416" type="line"/>
      <point x="827" y="-416" type="line"/>
      <point x="827" y="874" type="line"/>
      <point x="829" y="1082" type="line"/>
      <point x="778" y="1082" type="line"/>
      <point x="776" y="874" type="line"/>
    </contour>
    <contour>
      <point x="121" y="531" type="line"/>
      <point x="121" y="201"/>
      <point x="249" y="-20"/>
      <point x="467" y="-20" type="curve" smooth="yes"/>
      <point x="676" y="-20"/>
      <point x="798" y="133"/>
      <point x="826" y="298" type="curve"/>
      <point x="826" y="750" type="line"/>
      <point x="788" y="949"/>
      <point x="671" y="1102"/>
      <point x="467" y="1102" type="curve" smooth="yes"/>
      <point x="249" y="1102"/>
      <point x="121" y="892"/>
      <point x="121" y="552" type="curve" smooth="yes"/>
    </contour>
    <contour>
      <point x="176" y="552" type="line"/>
      <point x="176" y="841"/>
      <point x="269" y="1051"/>
      <point x="470" y="1051" type="curve" smooth="yes"/>
      <point x="695" y="1051"/>
      <point x="773" y="834"/>
      <point x="794" y="712" type="curve"/>
      <point x="794" y="327" type="line"/>
      <point x="763" y="162"/>
      <point x="658" y="31"/>
      <point x="468" y="31" type="curve" smooth="yes"/>
      <point x="269" y="31"/>
      <point x="176" y="240"/>
      <point x="176" y="531" type="curve" smooth="yes"/>
    </contour>
    <contour>
      <point x="1484" y="552" type="line"/>
      <point x="1484" y="892"/>
      <point x="1355" y="1102"/>
      <point x="1138" y="1102" type="curve" smooth="yes"/>
      <point x="935" y="1102"/>
      <point x="818" y="949"/>
      <point x="780" y="750" type="curve"/>
      <point x="780" y="299" type="line"/>
      <point x="809" y="132"/>
      <point x="931" y="-20"/>
      <point x="1139" y="-20" type="curve" smooth="yes"/>
      <point x="1357" y="-20"/>
      <point x="1484" y="201"/>
      <point x="1484" y="531" type="curve" smooth="yes"/>
    </contour>
    <contour>
      <point x="1430" y="531" type="line"/>
      <point x="1430" y="240"/>
      <point x="1337" y="31"/>
      <point x="1136" y="31" type="curve" smooth="yes"/>
      <point x="946" y="31"/>
      <point x="842" y="163"/>
      <point x="811" y="328" type="curve"/>
      <point x="811" y="712" type="line"/>
      <point x="837" y="844"/>
      <point x="908" y="1052"/>
      <point x="1136" y="1052" type="curve" smooth="yes"/>
      <point x="1337" y="1052"/>
      <point x="1430" y="841"/>
      <point x="1430" y="552" type="curve" smooth="yes"/>
    </contour>
  </outline>
</glyph>
<glyph name="uni023A" format="2">
  <advance width="1081"/>
  <unicode hex="023A"/>
  <outline>
    <contour>
      <point x="1065" y="1581" type="line"/>
      <point x="1002" y="1581" type="line"/>
      <point x="-147" y="-125" type="line"/>
      <point x="-86" y="-125" type="line"/>
    </contour>
    <contour>
      <point x="548" y="1413" type="line"/>
      <point x="558" y="1456" type="line"/>
      <point x="510" y="1456" type="line"/>
      <point x="46" y="0" type="line"/>
      <point x="103" y="0" type="line"/>
    </contour>
    <contour>
      <point x="976" y="0" type="line"/>
      <point x="1034" y="0" type="line"/>
      <point x="570" y="1456" type="line"/>
      <point x="525" y="1456" type="line"/>
      <point x="533" y="1413" type="line"/>
    </contour>
    <contour>
      <point x="852" y="486" type="line"/>
      <point x="229" y="486" type="line"/>
      <point x="229" y="436" type="line"/>
      <point x="852" y="436" type="line"/>
    </contour>
  </outline>
</glyph>
<glyph name="uni023B" format="2">
  <advance width="1164"/>
  <unicode hex="023B"/>
  <outline>
    <contour>
      <point x="878" y="1581" type="line"/>
      <point x="823" y="1581" type="line"/>
      <point x="268" y="-125" type="line"/>
      <point x="322" y="-125" type="line"/>
    </contour>
    <contour>
      <point x="978" y="444" type="line"/>
      <point x="953" y="157"/>
      <point x="817" y="31"/>
      <point x="589" y="31" type="curve" smooth="yes"/>
      <point x="352" y="31"/>
      <point x="192" y="263"/>
      <point x="192" y="617" type="curve" smooth="yes"/>
      <point x="192" y="840" type="line" smooth="yes"/>
      <point x="192" y="1193"/>
      <point x="352" y="1426"/>
      <point x="591" y="1426" type="curve" smooth="yes"/>
      <point x="822" y="1426"/>
      <point x="952" y="1281"/>
      <point x="978" y="1013" type="curve"/>
      <point x="1032" y="1013" type="line"/>
      <point x="1007" y="1324"/>
      <point x="839" y="1476"/>
      <point x="591" y="1476" type="curve" smooth="yes"/>
      <point x="316" y="1476"/>
      <point x="140" y="1217"/>
      <point x="140" y="838" type="curve"/>
      <point x="140" y="617" type="line"/>
      <point x="140" y="238"/>
      <point x="317" y="-20"/>
      <point x="589" y="-20" type="curve" smooth="yes"/>
      <point x="839" y="-20"/>
      <point x="1006" y="130"/>
      <point x="1032" y="444" type="curve"/>
    </contour>
  </outline>
</glyph>
<glyph name="uni023E" format="2">
  <advance width="1076"/>
  <unicode hex="023E"/>
  <outline>
    <contour>
      <point x="840" y="1581" type="line"/>
      <point x="785" y="1581" type="line"/>
      <point x="219" y="-125" type="line"/>
      <point x="273" y="-125" type="line"/>
    </contour>
    <contour>
      <point x="564" y="1456" type="line"/>
      <point x="512" y="1456" type="line"/>
      <point x="512" y="0" type="line"/>
      <point x="564" y="0" type="line"/>
    </contour>
    <contour>
      <point x="1011" y="1456" type="line"/>
      <point x="64" y="1456" type="line"/>
      <point x="64" y="1406" type="line"/>
      <point x="1011" y="1406" type="line"/>
    </contour>
  </outline>
</glyph>
<glyph name="uni0246" format="2">
  <advance width="1027"/>
  <unicode hex="0246"/>
  <outline>
    <contour>
      <point x="880" y="1581" type="line"/>
      <point x="827" y="1581" type="line"/>
      <point x="278" y="-125" type="line"/>
      <point x="331" y="-125" type="line"/>
    </contour>
    <contour>
      <point x="940" y="51" type="line"/>
      <point x="210" y="51" type="line"/>
      <point x="210" y="0" type="line"/>
      <point x="940" y="0" type="line"/>
    </contour>
    <contour>
      <point x="240" y="1456" type="line"/>
      <point x="188" y="1456" type="line"/>
      <point x="188" y="0" type="line"/>
      <point x="240" y="0" type="line"/>
    </contour>
    <contour>
      <point x="855" y="775" type="line"/>
      <point x="210" y="775" type="line"/>
      <point x="210" y="724" type="line"/>
      <point x="855" y="724" type="line"/>
    </contour>
    <contour>
      <point x="940" y="1456" type="line"/>
      <point x="210" y="1456" type="line"/>
      <point x="210" y="1406" type="line"/>
      <point x="940" y="1406" type="line"/>
    </contour>
  </outline>
</glyph>
<glyph name="uni024E" format="2">
  <advance width="1149"/>
  <unicode hex="024E"/>
  <anchor x="577" y="1602" name="top"/>
  <anchor x="577" y="10" name="bottom"/>
  <anchor x="1130" y="1602" name="top0315"/>
  <anchor x="577" y="1602" name="parent_top"/>
  <outline>
    <contour>
      <point x="1098" y="1105" type="line"/>
      <point x="52" y="1105" type="line"/>
      <point x="52" y="1054" type="line"/>
      <point x="1098" y="1054" type="line"/>
    </contour>
    <contour>
      <point x="154" y="1456" type="line"/>
      <point x="85" y="1456" type="line"/>
      <point x="550" y="553" type="line"/>
      <point x="550" y="0" type="line"/>
      <point x="601" y="0" type="line"/>
      <point x="601" y="553" type="line"/>
      <point x="1065" y="1456" type="line"/>
      <point x="1001" y="1456" type="line"/>
      <point x="576" y="598" type="line"/>
    </contour>
  </outline>
</glyph>
<glyph name="uni0293" format="2">
  <advance width="962"/>
  <unicode hex="0293"/>
  <anchor x="501" y="1290" name="top"/>
  <anchor x="501" y="-447" name="bottom"/>
  <anchor x="943" y="1290" name="top0315"/>
  <anchor x="501" y="1290" name="parent_top"/>
  <outline>
    <contour>
      <point x="450" y="-437" type="curve" smooth="yes"/>
      <point x="597" y="-437"/>
      <point x="712" y="-392"/>
      <point x="784" y="-302" type="curve"/>
      <point x="880" y="-437" type="line"/>
      <point x="919" y="-400" type="line"/>
      <point x="817" y="-264" type="line"/>
      <point x="855" y="-198"/>
      <point x="877" y="-115"/>
      <point x="877" y="-19" type="curve" smooth="yes"/>
      <point x="877" y="255"/>
      <point x="755" y="410"/>
      <point x="508" y="411" type="curve" smooth="yes"/>
      <point x="473" y="410" type="line"/>
      <point x="878" y="1017" type="line"/>
      <point x="877" y="1082" type="line"/>
      <point x="139" y="1082" type="line"/>
      <point x="139" y="1031" type="line"/>
      <point x="819" y="1031" type="line"/>
      <point x="411" y="418" type="line"/>
      <point x="411" y="365" type="line"/>
      <point x="501" y="365" type="line" smooth="yes"/>
      <point x="710" y="365"/>
      <point x="823" y="250"/>
      <point x="823" y="-20" type="curve" smooth="yes"/>
      <point x="823" y="-99"/>
      <point x="810" y="-169"/>
      <point x="782" y="-225" type="curve"/>
      <point x="634" y="-28"/>
      <point x="525" y="90"/>
      <point x="367" y="90" type="curve" smooth="yes"/>
      <point x="242" y="90"/>
      <point x="120" y="-5"/>
      <point x="120" y="-166" type="curve" smooth="yes"/>
      <point x="120" y="-388"/>
      <point x="315" y="-437"/>
    </contour>
    <contour>
      <point x="449" y="-386" type="curve" smooth="yes"/>
      <point x="305" y="-386"/>
      <point x="174" y="-327"/>
      <point x="174" y="-168" type="curve" smooth="yes"/>
      <point x="174" y="-50"/>
      <point x="241" y="38"/>
      <point x="368" y="38" type="curve" smooth="yes"/>
      <point x="502" y="38"/>
      <point x="607" y="-66"/>
      <point x="750" y="-266" type="curve"/>
      <point x="690" y="-343"/>
      <point x="592" y="-386"/>
    </contour>
  </outline>
</glyph>
<glyph name="uni02A9" format="2">
  <advance width="1410"/>
  <unicode hex="02A9"/>
  <anchor x="921" y="1700" name="top"/>
  <anchor x="921" y="-447" name="bottom"/>
  <anchor x="1391" y="1700" name="top0315"/>
  <anchor x="921" y="1700" name="parent_top"/>
  <outline>
    <contour>
      <point x="636" y="1082" type="line"/>
      <point x="584" y="1082" type="line"/>
      <point x="584" y="0" type="line"/>
      <point x="636" y="0" type="line"/>
    </contour>
    <contour>
      <point x="626" y="637" type="line"/>
      <point x="632" y="762"/>
      <point x="726" y="1052"/>
      <point x="952" y="1052" type="curve" smooth="yes"/>
      <point x="1097" y="1052"/>
      <point x="1197" y="971"/>
      <point x="1197" y="659" type="curve" smooth="yes"/>
      <point x="1197" y="0" type="line"/>
      <point x="1249" y="0" type="line"/>
      <point x="1249" y="659" type="line" smooth="yes"/>
      <point x="1249" y="975"/>
      <point x="1144" y="1102"/>
      <point x="958" y="1102" type="curve" smooth="yes"/>
      <point x="757" y="1102"/>
      <point x="620" y="906"/>
      <point x="600" y="695" type="curve"/>
    </contour>
    <contour>
      <point x="1197" y="72" type="line"/>
      <point x="1197" y="-90" type="line" smooth="yes"/>
      <point x="1197" y="-279"/>
      <point x="1160" y="-387"/>
      <point x="1037" y="-387" type="curve" smooth="yes"/>
      <point x="1007" y="-387"/>
      <point x="973" y="-376"/>
      <point x="955" y="-370" type="curve"/>
      <point x="945" y="-418" type="line"/>
      <point x="976" y="-432"/>
      <point x="1005" y="-440"/>
      <point x="1039" y="-440" type="curve" smooth="yes"/>
      <point x="1191" y="-440"/>
      <point x="1249" y="-316"/>
      <point x="1249" y="-90" type="curve" smooth="yes"/>
      <point x="1249" y="72" type="line"/>
    </contour>
    <contour>
      <point x="285" y="0" type="line"/>
      <point x="285" y="1239" type="line" smooth="yes"/>
      <point x="285" y="1407"/>
      <point x="360" y="1507"/>
      <point x="478" y="1507" type="curve" smooth="yes"/>
      <point x="524" y="1507"/>
      <point x="547" y="1502"/>
      <point x="579" y="1491" type="curve"/>
      <point x="586" y="1539" type="line"/>
      <point x="550" y="1553"/>
      <point x="511" y="1557"/>
      <point x="476" y="1557" type="curve" smooth="yes"/>
      <point x="325" y="1557"/>
      <point x="233" y="1444"/>
      <point x="233" y="1239" type="curve" smooth="yes"/>
      <point x="233" y="0" type="line"/>
    </contour>
    <contour>
      <point x="602" y="1082" type="line"/>
      <point x="75" y="1082" type="line"/>
      <point x="75" y="1029" type="line"/>
      <point x="602" y="1029" type="line"/>
    </contour>
  </outline>
</glyph>
<glyph name="uni02AB" format="2">
  <advance width="1003"/>
  <unicode hex="02AB"/>
  <anchor x="586" y="1600" name="top"/>
  <anchor x="586" y="0" name="bottom"/>
  <anchor x="984" y="1600" name="top0315"/>
  <anchor x="586" y="1600" name="parent_top"/>
  <outline>
    <contour>
      <point x="942" y="51" type="line"/>
      <point x="226" y="51" type="line"/>
      <point x="226" y="0" type="line"/>
      <point x="942" y="0" type="line"/>
    </contour>
    <contour>
      <point x="895" y="1037" type="line"/>
      <point x="895" y="1082" type="line"/>
      <point x="862" y="1082" type="line"/>
      <point x="211" y="35" type="line"/>
      <point x="211" y="0" type="line"/>
      <point x="243" y="0" type="line"/>
    </contour>
    <contour>
      <point x="870" y="1082" type="line"/>
      <point x="210" y="1082" type="line"/>
      <point x="210" y="1030" type="line"/>
      <point x="870" y="1030" type="line"/>
    </contour>
    <contour>
      <point x="227" y="1536" type="line"/>
      <point x="174" y="1536" type="line"/>
      <point x="174" y="0" type="line"/>
      <point x="227" y="0" type="line"/>
    </contour>
  </outline>
</glyph>
<glyph name="uni02AC" format="2">
  <advance width="826"/>
  <unicode hex="02AC"/>
  <anchor x="416" y="1600" name="top"/>
  <anchor x="416" y="0" name="bottom"/>
  <anchor x="807" y="1600" name="top0315"/>
  <anchor x="416" y="1600" name="parent_top"/>
  <outline>
    <contour>
      <point x="283" y="1041" type="line"/>
      <point x="241" y="871" type="line"/>
      <point x="285" y="871" type="line"/>
      <point x="402" y="1311" type="line"/>
      <point x="433" y="1456" type="line"/>
      <point x="391" y="1456" type="line"/>
    </contour>
    <contour>
      <point x="145" y="1456" type="line"/>
      <point x="93" y="1456" type="line"/>
      <point x="237" y="871" type="line"/>
      <point x="280" y="871" type="line"/>
      <point x="245" y="1042" type="line"/>
    </contour>
    <contour>
      <point x="585" y="1041" type="line"/>
      <point x="548" y="871" type="line"/>
      <point x="590" y="871" type="line"/>
      <point x="734" y="1456" type="line"/>
      <point x="683" y="1456" type="line"/>
    </contour>
    <contour>
      <point x="439" y="1456" type="line"/>
      <point x="396" y="1456" type="line"/>
      <point x="423" y="1312" type="line"/>
      <point x="545" y="871" type="line"/>
      <point x="586" y="871" type="line"/>
      <point x="547" y="1042" type="line"/>
    </contour>
    <contour>
      <point x="283" y="170" type="line"/>
      <point x="241" y="0" type="line"/>
      <point x="285" y="0" type="line"/>
      <point x="402" y="440" type="line"/>
      <point x="433" y="585" type="line"/>
      <point x="391" y="585" type="line"/>
    </contour>
    <contour>
      <point x="145" y="585" type="line"/>
      <point x="93" y="585" type="line"/>
      <point x="237" y="0" type="line"/>
      <point x="280" y="0" type="line"/>
      <point x="245" y="171" type="line"/>
    </contour>
    <contour>
      <point x="585" y="170" type="line"/>
      <point x="548" y="0" type="line"/>
      <point x="590" y="0" type="line"/>
      <point x="734" y="585" type="line"/>
      <point x="683" y="585" type="line"/>
    </contour>
    <contour>
      <point x="439" y="585" type="line"/>
      <point x="396" y="585" type="line"/>
      <point x="423" y="441" type="line"/>
      <point x="545" y="0" type="line"/>
      <point x="586" y="0" type="line"/>
      <point x="547" y="171" type="line"/>
    </contour>
  </outline>
</glyph>
<glyph name="uni02C2" format="2">
  <advance width="788"/>
  <unicode hex="02C2"/>
  <outline>
    <contour>
      <point x="229" y="915" type="line"/>
      <point x="86" y="985" type="line"/>
      <point x="86" y="938" type="line"/>
      <point x="701" y="596" type="line"/>
      <point x="701" y="652" type="line"/>
    </contour>
    <contour>
      <point x="701" y="1272" type="line"/>
      <point x="701" y="1329" type="line"/>
      <point x="86" y="988" type="line"/>
      <point x="86" y="942" type="line"/>
      <point x="229" y="1008" type="line"/>
    </contour>
  </outline>
</glyph>
<glyph name="uni02C5" format="2">
  <advance width="775"/>
  <unicode hex="02C5"/>
  <outline>
    <contour>
      <point x="342" y="745" type="line"/>
      <point x="401" y="583" type="line"/>
      <point x="355" y="583" type="line"/>
      <point x="69" y="1310" type="line"/>
      <point x="125" y="1310" type="line"/>
    </contour>
    <contour>
      <point x="635" y="1310" type="line"/>
      <point x="692" y="1310" type="line"/>
      <point x="404" y="583" type="line"/>
      <point x="360" y="583" type="line"/>
      <point x="417" y="745" type="line"/>
    </contour>
  </outline>
</glyph>
<glyph name="circumflex" format="2">
  <advance width="722"/>
  <unicode hex="02C6"/>
  <anchor x="363" y="1606" name="mkmktop_acc"/>
  <outline>
    <contour>
      <point x="382" y="1517" type="line"/>
      <point x="346" y="1517" type="line"/>
      <point x="149" y="1279" type="line"/>
      <point x="149" y="1263" type="line"/>
      <point x="208" y="1263" type="line"/>
      <point x="363" y="1462" type="line"/>
      <point x="521" y="1263" type="line"/>
      <point x="581" y="1263" type="line"/>
      <point x="581" y="1273" type="line"/>
    </contour>
  </outline>
</glyph>
<glyph name="uni02D0" format="2">
  <advance width="353"/>
  <unicode hex="02D0"/>
  <outline>
    <contour>
      <point x="119" y="1061" type="curve"/>
      <point x="119" y="1061"/>
      <point x="173" y="963"/>
      <point x="173" y="963" type="curve"/>
      <point x="173" y="963"/>
      <point x="182" y="963"/>
      <point x="182" y="963" type="curve"/>
      <point x="182" y="963"/>
      <point x="234" y="1061"/>
      <point x="234" y="1061" type="curve"/>
      <point x="234" y="1061"/>
      <point x="119" y="1061"/>
    </contour>
    <contour>
      <point x="119" y="0" type="curve"/>
      <point x="119" y="0"/>
      <point x="234" y="0"/>
      <point x="234" y="0" type="curve"/>
      <point x="234" y="0"/>
      <point x="182" y="98"/>
      <point x="182" y="98" type="curve"/>
      <point x="182" y="98"/>
      <point x="173" y="98"/>
      <point x="173" y="98" type="curve"/>
      <point x="173" y="98"/>
      <point x="119" y="0"/>
    </contour>
  </outline>
</glyph>
<glyph name="uni02D3" format="2">
  <advance width="286"/>
  <unicode hex="02D3"/>
  <outline>
    <contour>
      <point x="202" y="249" type="line"/>
      <point x="163" y="249"/>
      <point x="135" y="283"/>
      <point x="135" y="330" type="curve" smooth="yes"/>
      <point x="135" y="376"/>
      <point x="163" y="410"/>
      <point x="202" y="410" type="curve"/>
      <point x="202" y="466" type="line"/>
      <point x="137" y="466"/>
      <point x="84" y="403"/>
      <point x="84" y="330" type="curve" smooth="yes"/>
      <point x="84" y="254"/>
      <point x="137" y="194"/>
      <point x="202" y="194" type="curve"/>
    </contour>
  </outline>
</glyph>
<glyph name="breve" format="2">
  <advance width="858"/>
  <unicode hex="02D8"/>
  <anchor x="427" y="1512" name="mkmktop_acc"/>
  <outline>
    <contour>
      <point x="647" y="1486" type="line"/>
      <point x="647" y="1382"/>
      <point x="584" y="1293"/>
      <point x="426" y="1293" type="curve" smooth="yes"/>
      <point x="265" y="1293"/>
      <point x="206" y="1380"/>
      <point x="206" y="1486" type="curve"/>
      <point x="145" y="1486" type="line"/>
      <point x="145" y="1340"/>
      <point x="251" y="1238"/>
      <point x="426" y="1238" type="curve" smooth="yes"/>
      <point x="601" y="1238"/>
      <point x="705" y="1340"/>
      <point x="705" y="1486" type="curve"/>
    </contour>
  </outline>
</glyph>
<glyph name="uni02E8" format="2">
  <advance width="596"/>
  <unicode hex="02E8"/>
  <outline>
    <contour>
      <point x="410" y="1456" type="line"/>
      <point x="357" y="1456" type="line"/>
      <point x="357" y="0" type="line"/>
      <point x="410" y="0" type="line"/>
    </contour>
    <contour>
      <point x="399" y="374" type="line"/>
      <point x="53" y="374" type="line"/>
      <point x="53" y="325" type="line"/>
      <point x="399" y="325" type="line"/>
    </contour>
  </outline>
</glyph>
<glyph name="uni02EA" format="2">
  <advance width="744"/>
  <unicode hex="02EA"/>
  <outline>
    <contour>
      <point x="691" y="51" type="line"/>
      <point x="211" y="51" type="line"/>
      <point x="211" y="0" type="line"/>
      <point x="691" y="0" type="line"/>
    </contour>
    <contour>
      <point x="239" y="908" type="line"/>
      <point x="187" y="908" type="line"/>
      <point x="187" y="0" type="line"/>
      <point x="239" y="0" type="line"/>
    </contour>
  </outline>
</glyph>
<glyph name="uni02EF" format="2">
  <advance width="606"/>
  <unicode hex="02EF"/>
  <outline>
    <contour>
      <point x="285" y="-439" type="line"/>
      <point x="317" y="-545" type="line"/>
      <point x="287" y="-545" type="line"/>
      <point x="86" y="-72" type="line"/>
      <point x="131" y="-72" type="line"/>
    </contour>
    <contour>
      <point x="473" y="-72" type="line"/>
      <point x="521" y="-72" type="line"/>
      <point x="321" y="-545" type="line"/>
      <point x="290" y="-545" type="line"/>
      <point x="320" y="-439" type="line"/>
    </contour>
  </outline>
</glyph>
<glyph name="uni02F1" format="2">
  <advance width="603"/>
  <unicode hex="02F1"/>
  <outline>
    <contour>
      <point x="186" y="-330" type="line"/>
      <point x="86" y="-295" type="line"/>
      <point x="86" y="-325" type="line"/>
      <point x="516" y="-547" type="line"/>
      <point x="516" y="-500" type="line"/>
    </contour>
    <contour>
      <point x="516" y="-118" type="line"/>
      <point x="516" y="-71" type="line"/>
      <point x="86" y="-293" type="line"/>
      <point x="86" y="-322" type="line"/>
      <point x="186" y="-290" type="line"/>
    </contour>
  </outline>
</glyph>
<glyph name="uni02F7" format="2">
  <advance width="717"/>
  <unicode hex="02F7"/>
  <outline>
    <contour>
      <point x="594" y="-177" type="line"/>
      <point x="594" y="-263"/>
      <point x="547" y="-309"/>
      <point x="491" y="-309" type="curve" smooth="yes"/>
      <point x="397" y="-309"/>
      <point x="367" y="-187"/>
      <point x="250" y="-187" type="curve" smooth="yes"/>
      <point x="164" y="-187"/>
      <point x="99" y="-254"/>
      <point x="99" y="-362" type="curve"/>
      <point x="147" y="-362" type="line"/>
      <point x="147" y="-277"/>
      <point x="194" y="-236"/>
      <point x="250" y="-236" type="curve" smooth="yes"/>
      <point x="350" y="-236"/>
      <point x="371" y="-362"/>
      <point x="493" y="-362" type="curve" smooth="yes"/>
      <point x="576" y="-362"/>
      <point x="646" y="-288"/>
      <point x="646" y="-179" type="curve"/>
    </contour>
  </outline>
</glyph>
<glyph name="acutecomb" format="2">
  <unicode hex="0301"/>
  <anchor x="-431" y="1295" name="_top"/>
  <anchor x="-431" y="1540" name="top"/>
  <anchor x="-360" y="1404" name="parent_top"/>
  <outline>
    <contour>
      <point x="-472" y="1271" type="line"/>
      <point x="-417" y="1271" type="line"/>
      <point x="-248" y="1536" type="line"/>
      <point x="-311" y="1536" type="line"/>
    </contour>
  </outline>
</glyph>
<glyph name="uni030F" format="2">
  <unicode hex="030F"/>
  <anchor x="-439" y="1293" name="_top"/>
  <anchor x="-439" y="1540" name="top"/>
  <anchor x="-439" y="1540" name="mkmktop_acc"/>
  <anchor x="-548" y="1385" name="parent_top"/>
  <outline>
    <contour>
      <point x="-485" y="1252" type="line"/>
      <point x="-550" y="1252" type="line"/>
      <point x="-804" y="1518" type="line"/>
      <point x="-728" y="1518" type="line"/>
    </contour>
    <contour>
      <point x="-292" y="1252" type="line"/>
      <point x="-354" y="1252" type="line"/>
      <point x="-569" y="1518" type="line"/>
      <point x="-497" y="1518" type="line"/>
    </contour>
  </outline>
</glyph>
<glyph name="uni0313" format="2">
  <unicode hex="0313"/>
  <anchor x="-471.0" y="1145.0" name="_top"/>
  <anchor x="-458.0" y="1347.0" name="parent_top"/>
  <anchor x="-471.0" y="1684.0" name="top"/>
  <outline>
    <contour>
      <point x="-434" y="1561" type="line"/>
      <point x="-485" y="1561" type="line"/>
      <point x="-485" y="1392" type="line" smooth="yes"/>
      <point x="-485" y="1289"/>
      <point x="-510" y="1223"/>
      <point x="-562" y="1145" type="curve"/>
      <point x="-526" y="1115" type="line"/>
      <point x="-470" y="1180"/>
      <point x="-434" y="1272"/>
      <point x="-434" y="1393" type="curve" smooth="yes"/>
    </contour>
  </outline>
</glyph>
<glyph name="uni034A" format="2">
  <unicode hex="034A"/>
  <anchor x="-447" y="1276" name="_top"/>
  <anchor x="-447" y="1625" name="top"/>
  <anchor x="-447" y="1625" name="parent_top"/>
  <outline>
    <contour>
      <point x="-398" y="1551" type="curve"/>
      <point x="-398" y="1551"/>
      <point x="-558" y="1224"/>
      <point x="-558" y="1224" type="curve"/>
      <point x="-515" y="1196" type="line"/>
      <point x="-515" y="1196"/>
      <point x="-356" y="1523"/>
      <point x="-356" y="1523" type="curve"/>
      <point x="-356" y="1523"/>
      <point x="-398" y="1551"/>
    </contour>
    <contour>
      <point x="-224" y="1472" type="line"/>
      <point x="-224" y="1386"/>
      <point x="-271" y="1339"/>
      <point x="-326" y="1339" type="curve" smooth="yes"/>
      <point x="-420" y="1339"/>
      <point x="-452" y="1466"/>
      <point x="-569" y="1466" type="curve" smooth="yes"/>
      <point x="-655" y="1466"/>
      <point x="-720" y="1396"/>
      <point x="-720" y="1288" type="curve"/>
      <point x="-671" y="1286" type="line"/>
      <point x="-671" y="1372"/>
      <point x="-626" y="1413"/>
      <point x="-569" y="1413" type="curve" smooth="yes"/>
      <point x="-469" y="1413"/>
      <point x="-448" y="1287"/>
      <point x="-326" y="1287" type="curve" smooth="yes"/>
      <point x="-241" y="1287"/>
      <point x="-174" y="1361"/>
      <point x="-174" y="1472" type="curve"/>
    </contour>
  </outline>
</glyph>
<glyph name="uni034E" format="2">
  <unicode hex="034E"/>
  <anchor x="-460" y="0" name="_bottom"/>
  <anchor x="-460" y="-551" name="bottom"/>
  <outline>
    <contour>
      <point x="-439" y="-551" type="line"/>
      <point x="-439" y="-145" type="line"/>
      <point x="-483" y="-145" type="line"/>
      <point x="-483" y="-551" type="line"/>
    </contour>
    <contour>
      <point x="-676" y="-368" type="line"/>
      <point x="-438" y="-134" type="line"/>
      <point x="-460" y="-102" type="line"/>
      <point x="-676" y="-316" type="line"/>
    </contour>
    <contour>
      <point x="-243" y="-316" type="line"/>
      <point x="-460" y="-102" type="line"/>
      <point x="-478" y="-137" type="line"/>
      <point x="-243" y="-368" type="line"/>
    </contour>
  </outline>
</glyph>
<glyph name="uni035D" format="2">
  <unicode hex="035D"/>
  <anchor x="19" y="1181" name="_top_dd"/>
  <outline>
    <contour>
      <point x="536" y="1496" type="line"/>
      <point x="420" y="1393"/>
      <point x="319" y="1263"/>
      <point x="19" y="1263" type="curve" smooth="yes"/>
      <point x="-285" y="1263"/>
      <point x="-384" y="1389"/>
      <point x="-499" y="1496" type="curve"/>
      <point x="-559" y="1496" type="line"/>
      <point x="-442" y="1351"/>
      <point x="-297" y="1208"/>
      <point x="19" y="1208" type="curve" smooth="yes"/>
      <point x="335" y="1208"/>
      <point x="477" y="1351"/>
      <point x="596" y="1496" type="curve"/>
    </contour>
  </outline>
</glyph>
<glyph name="uni035E" format="2">
  <unicode hex="035E"/>
  <anchor x="19" y="1281" name="_top_dd"/>
  <outline>
    <contour>
      <point x="497" y="1337" type="line"/>
      <point x="-460" y="1337" type="line"/>
      <point x="-460" y="1286" type="line"/>
      <point x="497" y="1286" type="line"/>
    </contour>
  </outline>
</glyph>
<glyph name="uni0366" format="2">
  <unicode hex="0366"/>
  <anchor x="-458" y="1170" name="_top"/>
  <anchor x="-458" y="1818" name="_mkmktop"/>
  <outline>
    <contour>
      <point x="-458" y="1194" type="curve" smooth="yes"/>
      <point x="-330" y="1194"/>
      <point x="-253" y="1296"/>
      <point x="-253" y="1465" type="curve" smooth="yes"/>
      <point x="-253" y="1486" type="line" smooth="yes"/>
      <point x="-253" y="1655"/>
      <point x="-330" y="1759"/>
      <point x="-459" y="1759" type="curve" smooth="yes"/>
      <point x="-586" y="1759"/>
      <point x="-666" y="1655"/>
      <point x="-666" y="1486" type="curve" smooth="yes"/>
      <point x="-666" y="1465" type="line" smooth="yes"/>
      <point x="-666" y="1296"/>
      <point x="-586" y="1194"/>
    </contour>
    <contour>
      <point x="-458" y="1229" type="curve" smooth="yes"/>
      <point x="-575" y="1229"/>
      <point x="-627" y="1332"/>
      <point x="-627" y="1465" type="curve" smooth="yes"/>
      <point x="-627" y="1486" type="line" smooth="yes"/>
      <point x="-627" y="1617"/>
      <point x="-575" y="1722"/>
      <point x="-459" y="1722" type="curve" smooth="yes"/>
      <point x="-342" y="1722"/>
      <point x="-292" y="1617"/>
      <point x="-292" y="1486" type="curve" smooth="yes"/>
      <point x="-292" y="1465" type="line" smooth="yes"/>
      <point x="-292" y="1332"/>
      <point x="-343" y="1229"/>
    </contour>
  </outline>
</glyph>
<glyph name="uni036A" format="2">
  <unicode hex="036A"/>
  <anchor x="-459" y="1170" name="_top"/>
  <anchor x="-459" y="2018" name="_mkmktop"/>
  <outline>
    <contour>
      <point x="-592" y="1991" type="line"/>
      <point x="-631" y="1991" type="line"/>
      <point x="-631" y="1203" type="line"/>
      <point x="-592" y="1203" type="line"/>
    </contour>
    <contour>
      <point x="-598" y="1523" type="line"/>
      <point x="-598" y="1629"/>
      <point x="-567" y="1728"/>
      <point x="-444" y="1728" type="curve" smooth="yes"/>
      <point x="-370" y="1728"/>
      <point x="-326" y="1688"/>
      <point x="-326" y="1517" type="curve" smooth="yes"/>
      <point x="-326" y="1203" type="line"/>
      <point x="-287" y="1203" type="line"/>
      <point x="-287" y="1516" type="line" smooth="yes"/>
      <point x="-287" y="1702"/>
      <point x="-341" y="1766"/>
      <point x="-442" y="1766" type="curve" smooth="yes"/>
      <point x="-571" y="1766"/>
      <point x="-628" y="1666"/>
      <point x="-628" y="1528" type="curve"/>
    </contour>
  </outline>
</glyph>
<glyph name="uni036C" format="2">
  <unicode hex="036C"/>
  <anchor x="-380" y="1170" name="_top"/>
  <anchor x="-380" y="1818" name="_mkmktop"/>
  <outline>
    <contour>
      <point x="-444" y="1627" type="line"/>
      <point x="-447" y="1755" type="line"/>
      <point x="-481" y="1755" type="line"/>
      <point x="-481" y="1203" type="line"/>
      <point x="-444" y="1203" type="line"/>
    </contour>
    <contour>
      <point x="-279" y="1764" type="line"/>
      <point x="-285" y="1765"/>
      <point x="-298" y="1766"/>
      <point x="-307" y="1766" type="curve" smooth="yes"/>
      <point x="-417" y="1766"/>
      <point x="-479" y="1666"/>
      <point x="-479" y="1528" type="curve"/>
      <point x="-448" y="1523" type="line"/>
      <point x="-448" y="1629"/>
      <point x="-417" y="1728"/>
      <point x="-307" y="1728" type="curve" smooth="yes"/>
      <point x="-295" y="1728"/>
      <point x="-285" y="1726"/>
      <point x="-279" y="1726" type="curve"/>
    </contour>
  </outline>
</glyph>
<glyph name="uni036D" format="2">
  <unicode hex="036D"/>
  <anchor x="-496" y="1170" name="_top"/>
  <anchor x="-496" y="2018" name="_mkmktop"/>
  <outline>
    <contour>
      <point x="-394" y="1759" type="line"/>
      <point x="-615" y="1759" type="line"/>
      <point x="-615" y="1722" type="line"/>
      <point x="-394" y="1722" type="line"/>
    </contour>
    <contour>
      <point x="-528" y="1908" type="line"/>
      <point x="-528" y="1350" type="line" smooth="yes"/>
      <point x="-528" y="1238"/>
      <point x="-500" y="1195"/>
      <point x="-431" y="1195" type="curve" smooth="yes"/>
      <point x="-414" y="1195"/>
      <point x="-398" y="1198"/>
      <point x="-381" y="1201" type="curve"/>
      <point x="-385" y="1238" type="line"/>
      <point x="-400" y="1236"/>
      <point x="-413" y="1235"/>
      <point x="-431" y="1235" type="curve" smooth="yes"/>
      <point x="-464" y="1235"/>
      <point x="-491" y="1249"/>
      <point x="-491" y="1348" type="curve" smooth="yes"/>
      <point x="-491" y="1908" type="line"/>
    </contour>
  </outline>
</glyph>
<glyph name="uni0377" format="2">
  <advance width="1054"/>
  <unicode hex="0377"/>
  <outline>
    <contour>
      <point x="827" y="1082" type="line"/>
      <point x="827" y="255" type="line" smooth="yes"/>
      <point x="827" y="80"/>
      <point x="870" y="29"/>
      <point x="930" y="29" type="curve" smooth="yes"/>
      <point x="950" y="29"/>
      <point x="966" y="35"/>
      <point x="983" y="38" type="curve"/>
      <point x="994" y="-8" type="line"/>
      <point x="973" y="-21"/>
      <point x="951" y="-21"/>
      <point x="929" y="-21" type="curve" smooth="yes"/>
      <point x="825" y="-21"/>
      <point x="775" y="57"/>
      <point x="775" y="255" type="curve" smooth="yes"/>
      <point x="775" y="1082" type="line"/>
    </contour>
    <contour>
      <point x="813" y="1047" type="line"/>
      <point x="216" y="0" type="line"/>
      <point x="178" y="35" type="line"/>
      <point x="775" y="1082" type="line"/>
    </contour>
    <contour>
      <point x="164" y="1082" type="line"/>
      <point x="216" y="1082" type="line"/>
      <point x="216" y="0" type="line"/>
      <point x="164" y="0" type="line"/>
    </contour>
  </outline>
</glyph>
<glyph name="uni037C" format="2">
  <advance width="921"/>
  <unicode hex="037C"/>
  <outline>
    <contour>
      <point x="425" y="542" type="curve" smooth="yes"/>
      <point x="425" y="510"/>
      <point x="446" y="488"/>
      <point x="474" y="488" type="curve" smooth="yes"/>
      <point x="504" y="488"/>
      <point x="526" y="510"/>
      <point x="526" y="542" type="curve" smooth="yes"/>
      <point x="526" y="571"/>
      <point x="504" y="596"/>
      <point x="474" y="596" type="curve" smooth="yes"/>
      <point x="446" y="596"/>
      <point x="425" y="571"/>
    </contour>
    <contour>
      <point x="478" y="-20" type="curve" smooth="yes"/>
      <point x="658" y="-20"/>
      <point x="810" y="106"/>
      <point x="820" y="327" type="curve"/>
      <point x="768" y="327" type="line"/>
      <point x="757" y="119"/>
      <point x="620" y="31"/>
      <point x="478" y="31" type="curve" smooth="yes"/>
      <point x="253" y="31"/>
      <point x="152" y="246"/>
      <point x="152" y="520" type="curve" smooth="yes"/>
      <point x="152" y="562" type="line" smooth="yes"/>
      <point x="152" y="834"/>
      <point x="253" y="1051"/>
      <point x="478" y="1051" type="curve" smooth="yes"/>
      <point x="625" y="1051"/>
      <point x="759" y="944"/>
      <point x="768" y="725" type="curve"/>
      <point x="820" y="725" type="line"/>
      <point x="812" y="973"/>
      <point x="655" y="1102"/>
      <point x="478" y="1102" type="curve" smooth="yes"/>
      <point x="237" y="1102"/>
      <point x="101" y="879"/>
      <point x="101" y="562" type="curve" smooth="yes"/>
      <point x="101" y="520" type="line" smooth="yes"/>
      <point x="101" y="203"/>
      <point x="237" y="-20"/>
    </contour>
  </outline>
</glyph>
<glyph name="uni037D" format="2">
  <advance width="921"/>
  <unicode hex="037D"/>
  <outline>
    <contour>
      <point x="100" y="327" type="line"/>
      <point x="108" y="80"/>
      <point x="261" y="-22"/>
      <point x="441" y="-22" type="curve" smooth="yes"/>
      <point x="683" y="-22"/>
      <point x="818" y="141"/>
      <point x="818" y="483" type="curve" smooth="yes"/>
      <point x="818" y="599" type="line" smooth="yes"/>
      <point x="818" y="941"/>
      <point x="682" y="1102"/>
      <point x="443" y="1102" type="curve" smooth="yes"/>
      <point x="263" y="1102"/>
      <point x="108" y="1004"/>
      <point x="100" y="725" type="curve"/>
      <point x="152" y="725" type="line"/>
      <point x="160" y="972"/>
      <point x="293" y="1051"/>
      <point x="443" y="1051" type="curve" smooth="yes"/>
      <point x="666" y="1051"/>
      <point x="766" y="897"/>
      <point x="766" y="599" type="curve" smooth="yes"/>
      <point x="766" y="483" type="line" smooth="yes"/>
      <point x="766" y="183"/>
      <point x="666" y="30"/>
      <point x="441" y="30" type="curve" smooth="yes"/>
      <point x="301" y="30"/>
      <point x="162" y="89"/>
      <point x="152" y="327" type="curve"/>
    </contour>
    <contour>
      <point x="450" y="488" type="curve" smooth="yes"/>
      <point x="477" y="488"/>
      <point x="500" y="510"/>
      <point x="500" y="542" type="curve" smooth="yes"/>
      <point x="500" y="571"/>
      <point x="477" y="596"/>
      <point x="450" y="596" type="curve" smooth="yes"/>
      <point x="422" y="596"/>
      <point x="401" y="571"/>
      <point x="401" y="542" type="curve" smooth="yes"/>
      <point x="401" y="510"/>
      <point x="422" y="488"/>
    </contour>
  </outline>
</glyph>
<glyph name="tonos" format="2">
  <advance width="515"/>
  <unicode hex="0384"/>
  <outline>
    <contour>
      <point x="214" y="1306" type="line"/>
      <point x="272" y="1306" type="line"/>
      <point x="373" y="1578" type="line"/>
      <point x="305" y="1578" type="line"/>
    </contour>
  </outline>
</glyph>
<glyph name="Delta" format="2">
  <advance width="1237"/>
  <unicode hex="0394"/>
  <outline>
    <contour>
      <point x="598" y="1327" type="line"/>
      <point x="637" y="1456" type="line"/>
      <point x="589" y="1456" type="line"/>
      <point x="67" y="0" type="line"/>
      <point x="125" y="0" type="line"/>
    </contour>
    <contour>
      <point x="1115" y="0" type="line"/>
      <point x="1172" y="0" type="line"/>
      <point x="649" y="1456" type="line"/>
      <point x="603" y="1456" type="line"/>
      <point x="640" y="1323" type="line"/>
    </contour>
    <contour>
      <point x="1122" y="51" type="line"/>
      <point x="108" y="51" type="line"/>
      <point x="108" y="0" type="line"/>
      <point x="1122" y="0" type="line"/>
    </contour>
  </outline>
</glyph>
<glyph name="Phi" format="2">
  <advance width="1279"/>
  <unicode hex="03A6"/>
  <outline>
    <contour>
      <point x="654" y="210" type="line"/>
      <point x="983" y="210"/>
      <point x="1176" y="448"/>
      <point x="1176" y="739" type="curve" smooth="yes"/>
      <point x="1176" y="1029"/>
      <point x="983" y="1265"/>
      <point x="656" y="1265" type="curve" smooth="yes"/>
      <point x="624" y="1265" type="line" smooth="yes"/>
      <point x="295" y="1265"/>
      <point x="102" y="1027"/>
      <point x="102" y="737" type="curve" smooth="yes"/>
      <point x="102" y="446"/>
      <point x="295" y="210"/>
      <point x="624" y="210" type="curve" smooth="yes"/>
    </contour>
    <contour>
      <point x="624" y="261" type="line"/>
      <point x="326" y="261"/>
      <point x="156" y="467"/>
      <point x="156" y="737" type="curve" smooth="yes"/>
      <point x="156" y="1003"/>
      <point x="328" y="1214"/>
      <point x="624" y="1214" type="curve" smooth="yes"/>
      <point x="656" y="1214" type="line" smooth="yes"/>
      <point x="953" y="1214"/>
      <point x="1123" y="1008"/>
      <point x="1123" y="739" type="curve" smooth="yes"/>
      <point x="1123" y="469"/>
      <point x="952" y="261"/>
      <point x="657" y="261" type="curve" smooth="yes"/>
    </contour>
    <contour>
      <point x="666" y="1456" type="line"/>
      <point x="612" y="1456" type="line"/>
      <point x="612" y="0" type="line"/>
      <point x="666" y="0" type="line"/>
    </contour>
  </outline>
</glyph>
<glyph name="alpha" format="2">
  <advance width="1014"/>
  <unicode hex="03B1"/>
  <anchor x="549" y="1290" name="top"/>
  <anchor x="477" y="-10" name="bottom"/>
  <anchor x="995" y="1290" name="top0315"/>
  <anchor x="549" y="1290" name="parent_top"/>
  <outline>
    <contour>
      <point x="122" y="522" type="line"/>
      <point x="122" y="189"/>
      <point x="248" y="-21"/>
      <point x="467" y="-21" type="curve" smooth="yes"/>
      <point x="673" y="-21"/>
      <point x="791" y="160"/>
      <point x="819" y="361" type="curve"/>
      <point x="819" y="689" type="line"/>
      <point x="778" y="922"/>
      <point x="669" y="1102"/>
      <point x="469" y="1102" type="curve" smooth="yes"/>
      <point x="250" y="1102"/>
      <point x="122" y="884"/>
      <point x="122" y="543" type="curve" smooth="yes"/>
    </contour>
    <contour>
      <point x="176" y="543" type="line"/>
      <point x="176" y="831"/>
      <point x="269" y="1051"/>
      <point x="470" y="1051" type="curve" smooth="yes"/>
      <point x="675" y="1051"/>
      <point x="762" y="810"/>
      <point x="787" y="652" type="curve"/>
      <point x="787" y="386" type="line"/>
      <point x="755" y="189"/>
      <point x="659" y="30"/>
      <point x="468" y="30" type="curve" smooth="yes"/>
      <point x="269" y="30"/>
      <point x="176" y="231"/>
      <point x="176" y="522" type="curve" smooth="yes"/>
    </contour>
    <contour>
      <point x="783" y="1082" type="line"/>
      <point x="775" y="854" type="line"/>
      <point x="775" y="255" type="line"/>
      <point x="775" y="57"/>
      <point x="825" y="-21"/>
      <point x="929" y="-21" type="curve" smooth="yes"/>
      <point x="952" y="-21"/>
      <point x="973" y="-21"/>
      <point x="992" y="-8" type="curve"/>
      <point x="982" y="38" type="line"/>
      <point x="966" y="35"/>
      <point x="950" y="29"/>
      <point x="930" y="29" type="curve" smooth="yes"/>
      <point x="871" y="29"/>
      <point x="826" y="80"/>
      <point x="826" y="255" type="curve" smooth="yes"/>
      <point x="826" y="1082" type="line"/>
    </contour>
  </outline>
</glyph>
<glyph name="delta" format="2">
  <advance width="991"/>
  <unicode hex="03B4"/>
  <outline>
    <contour>
      <point x="202" y="1312" type="curve"/>
      <point x="202" y="1215"/>
      <point x="252" y="1112"/>
      <point x="405" y="1040" type="curve"/>
      <point x="406" y="1031" type="line"/>
      <point x="259" y="1008"/>
      <point x="93" y="838"/>
      <point x="93" y="541" type="curve" smooth="yes"/>
      <point x="93" y="500" type="line" smooth="yes"/>
      <point x="93" y="196"/>
      <point x="255" y="-20"/>
      <point x="497" y="-20" type="curve" smooth="yes"/>
      <point x="736" y="-20"/>
      <point x="897" y="196"/>
      <point x="897" y="500" type="curve" smooth="yes"/>
      <point x="897" y="541" type="line" smooth="yes"/>
      <point x="897" y="763"/>
      <point x="772" y="996"/>
      <point x="524" y="1060" type="curve" smooth="yes"/>
      <point x="320" y="1108"/>
      <point x="255" y="1191"/>
      <point x="255" y="1310" type="curve"/>
      <point x="255" y="1445"/>
      <point x="369" y="1512"/>
      <point x="502" y="1512" type="curve" smooth="yes"/>
      <point x="617" y="1512"/>
      <point x="670" y="1484"/>
      <point x="748" y="1439" type="curve"/>
      <point x="762" y="1485" type="line"/>
      <point x="681" y="1542"/>
      <point x="592" y="1563"/>
      <point x="503" y="1563" type="curve" smooth="yes"/>
      <point x="327" y="1563"/>
      <point x="202" y="1451"/>
    </contour>
    <contour>
      <point x="146" y="541" type="line"/>
      <point x="146" y="777"/>
      <point x="280" y="1000"/>
      <point x="513" y="1000" type="curve"/>
      <point x="677" y="966"/>
      <point x="846" y="795"/>
      <point x="846" y="541" type="curve" smooth="yes"/>
      <point x="846" y="500" type="line" smooth="yes"/>
      <point x="846" y="251"/>
      <point x="717" y="30"/>
      <point x="497" y="30" type="curve" smooth="yes"/>
      <point x="273" y="30"/>
      <point x="146" y="251"/>
      <point x="146" y="500" type="curve" smooth="yes"/>
    </contour>
  </outline>
</glyph>
<glyph name="pi" format="2">
  <advance width="1072"/>
  <unicode hex="03C0"/>
  <outline>
    <contour>
      <point x="979" y="1082" type="line"/>
      <point x="71" y="1082" type="line"/>
      <point x="71" y="1030" type="line"/>
      <point x="979" y="1030" type="line"/>
    </contour>
    <contour>
      <point x="288" y="1082" type="line"/>
      <point x="234" y="1082" type="line"/>
      <point x="234" y="0" type="line"/>
      <point x="288" y="0" type="line"/>
    </contour>
    <contour>
      <point x="744" y="1082" type="line"/>
      <point x="744" y="270" type="line"/>
      <point x="744" y="53"/>
      <point x="818" y="-6"/>
      <point x="934" y="-6" type="curve" smooth="yes"/>
      <point x="960" y="-6"/>
      <point x="1007" y="-8"/>
      <point x="1031" y="3" type="curve"/>
      <point x="1025" y="52" type="line"/>
      <point x="995" y="46"/>
      <point x="968" y="43"/>
      <point x="935" y="43" type="curve" smooth="yes"/>
      <point x="862" y="43"/>
      <point x="799" y="79"/>
      <point x="799" y="269" type="curve"/>
      <point x="799" y="1082" type="line"/>
    </contour>
  </outline>
</glyph>
<glyph name="sigma1" format="2">
  <advance width="963"/>
  <unicode hex="03C2"/>
  <outline>
    <contour>
      <point x="506" y="1102" type="curve" smooth="yes"/>
      <point x="269" y="1102"/>
      <point x="121" y="879"/>
      <point x="121" y="562" type="curve" smooth="yes"/>
      <point x="121" y="520" type="line" smooth="yes"/>
      <point x="121" y="200"/>
      <point x="291" y="45"/>
      <point x="530" y="-17" type="curve" smooth="yes"/>
      <point x="646" y="-49"/>
      <point x="677" y="-73"/>
      <point x="677" y="-166" type="curve" smooth="yes"/>
      <point x="677" y="-254"/>
      <point x="617" y="-330"/>
      <point x="578" y="-350" type="curve"/>
      <point x="612" y="-381" type="line"/>
      <point x="654" y="-357"/>
      <point x="731" y="-253"/>
      <point x="729" y="-166" type="curve"/>
      <point x="729" y="-57"/>
      <point x="688" y="-5"/>
      <point x="542" y="33" type="curve" smooth="yes"/>
      <point x="318" y="93"/>
      <point x="176" y="246"/>
      <point x="176" y="520" type="curve" smooth="yes"/>
      <point x="176" y="562" type="line" smooth="yes"/>
      <point x="176" y="834"/>
      <point x="283" y="1051"/>
      <point x="506" y="1051" type="curve" smooth="yes"/>
      <point x="654" y="1051"/>
      <point x="788" y="947"/>
      <point x="788" y="720" type="curve"/>
      <point x="840" y="720" type="line"/>
      <point x="840" y="978"/>
      <point x="684" y="1102"/>
    </contour>
  </outline>
</glyph>
<glyph name="tau" format="2">
  <advance width="911"/>
  <unicode hex="03C4"/>
  <outline>
    <contour>
      <point x="830" y="1082" type="line"/>
      <point x="81" y="1082" type="line"/>
      <point x="81" y="1031" type="line"/>
      <point x="830" y="1031" type="line"/>
    </contour>
    <contour>
      <point x="411" y="1082" type="line"/>
      <point x="411" y="278" type="line"/>
      <point x="411" y="61"/>
      <point x="478" y="-22"/>
      <point x="617" y="-22" type="curve" smooth="yes"/>
      <point x="649" y="-22"/>
      <point x="684" y="-19"/>
      <point x="716" y="-8" type="curve"/>
      <point x="706" y="38" type="line"/>
      <point x="674" y="34"/>
      <point x="651" y="29"/>
      <point x="617" y="29" type="curve" smooth="yes"/>
      <point x="527" y="29"/>
      <point x="463" y="87"/>
      <point x="463" y="279" type="curve"/>
      <point x="463" y="1082" type="line"/>
    </contour>
  </outline>
</glyph>
<glyph name="psi" format="2">
  <advance width="1200"/>
  <unicode hex="03C8"/>
  <anchor x="597" y="1269" name="top"/>
  <anchor x="1181" y="1269" name="top0315"/>
  <anchor x="597" y="1269" name="parent_top"/>
  <outline>
    <contour>
      <point x="142" y="1082" type="line"/>
      <point x="142" y="589" type="line" smooth="yes"/>
      <point x="142" y="159"/>
      <point x="328" y="-19"/>
      <point x="603" y="-19" type="curve" smooth="yes"/>
      <point x="937" y="-19"/>
      <point x="1071" y="233"/>
      <point x="1071" y="592" type="curve" smooth="yes"/>
      <point x="1071" y="829"/>
      <point x="1011" y="964"/>
      <point x="953" y="1082" type="curve"/>
      <point x="891" y="1082" type="line"/>
      <point x="962" y="946"/>
      <point x="1017" y="780"/>
      <point x="1019" y="589" type="curve"/>
      <point x="1019" y="304"/>
      <point x="930" y="30"/>
      <point x="602" y="30" type="curve" smooth="yes"/>
      <point x="362" y="30"/>
      <point x="194" y="192"/>
      <point x="194" y="587" type="curve" smooth="yes"/>
      <point x="194" y="1082" type="line"/>
    </contour>
    <contour>
      <point x="572" y="1082" type="line"/>
      <point x="572" y="-413" type="line"/>
      <point x="623" y="-413" type="line"/>
      <point x="623" y="1082" type="line"/>
    </contour>
  </outline>
</glyph>
<glyph name="uni040A" format="2">
  <advance width="1911"/>
  <unicode hex="040A"/>
  <outline>
    <contour>
      <point x="1034" y="745" type="line"/>
      <point x="213" y="745" type="line"/>
      <point x="213" y="695" type="line"/>
      <point x="1034" y="695" type="line"/>
    </contour>
    <contour>
      <point x="236" y="1456" type="line"/>
      <point x="183" y="1456" type="line"/>
      <point x="183" y="0" type="line"/>
      <point x="236" y="0" type="line"/>
    </contour>
    <contour>
      <point x="1033" y="809" type="line"/>
      <point x="1033" y="757" type="line"/>
      <point x="1381" y="757" type="line"/>
      <point x="1626" y="757"/>
      <point x="1730" y="584"/>
      <point x="1730" y="406" type="curve"/>
      <point x="1730" y="219"/>
      <point x="1626" y="50"/>
      <point x="1381" y="50" type="curve"/>
      <point x="1069" y="50" type="line"/>
      <point x="1069" y="1456" type="line"/>
      <point x="1015" y="1456" type="line"/>
      <point x="1015" y="0" type="line"/>
      <point x="1381" y="0" type="line"/>
      <point x="1644" y="0"/>
      <point x="1782" y="172"/>
      <point x="1782" y="404" type="curve"/>
      <point x="1782" y="637"/>
      <point x="1646" y="809"/>
      <point x="1381" y="809" type="curve"/>
    </contour>
  </outline>
</glyph>
<glyph name="uni040F" format="2">
  <advance width="1252"/>
  <unicode hex="040F"/>
  <outline>
    <contour>
      <point x="182" y="0" type="line"/>
      <point x="1067" y="0" type="line"/>
      <point x="1067" y="1456" type="line"/>
      <point x="1013" y="1456" type="line"/>
      <point x="1013" y="51" type="line"/>
      <point x="235" y="51" type="line"/>
      <point x="235" y="1456" type="line"/>
      <point x="182" y="1456" type="line"/>
    </contour>
    <contour>
      <point x="655" y="49" type="line"/>
      <point x="602" y="49" type="line"/>
      <point x="602" y="-349" type="line"/>
      <point x="655" y="-349" type="line"/>
    </contour>
  </outline>
</glyph>
<glyph name="uni0423" format="2">
  <advance width="1127"/>
  <unicode hex="0423"/>
  <anchor x="567" y="1612" name="top"/>
  <anchor x="1108" y="1612" name="top0315"/>
  <anchor x="567" y="1612" name="parent_top"/>
  <outline>
    <contour>
      <point x="602" y="495" type="line"/>
      <point x="502" y="264" type="line"/>
      <point x="452" y="140"/>
      <point x="387" y="30"/>
      <point x="264" y="30" type="curve" smooth="yes"/>
      <point x="242" y="30"/>
      <point x="212" y="35"/>
      <point x="196" y="40" type="curve"/>
      <point x="185" y="-6" type="line"/>
      <point x="200" y="-15"/>
      <point x="238" y="-21"/>
      <point x="259" y="-21" type="curve" smooth="yes"/>
      <point x="444" y="-21"/>
      <point x="519" y="167"/>
      <point x="559" y="258" type="curve"/>
      <point x="1063" y="1456" type="line"/>
      <point x="999" y="1456" type="line"/>
    </contour>
    <contour>
      <point x="113" y="1456" type="line"/>
      <point x="49" y="1456" type="line"/>
      <point x="568" y="370" type="line"/>
      <point x="616" y="401" type="line"/>
      <point x="591" y="439" type="line"/>
    </contour>
  </outline>
</glyph>
<glyph name="uni042B" format="2">
  <advance width="1442"/>
  <unicode hex="042B"/>
  <anchor x="763" y="1612" name="top"/>
  <anchor x="1423" y="1612" name="top0315"/>
  <anchor x="763" y="1612" name="parent_top"/>
  <outline>
    <contour>
      <point x="201" y="786" type="line"/>
      <point x="201" y="734" type="line"/>
      <point x="548" y="734" type="line"/>
      <point x="796" y="734"/>
      <point x="895" y="573"/>
      <point x="895" y="394" type="curve"/>
      <point x="895" y="210"/>
      <point x="796" y="51"/>
      <point x="548" y="51" type="curve"/>
      <point x="236" y="51" type="line"/>
      <point x="236" y="1456" type="line"/>
      <point x="183" y="1456" type="line"/>
      <point x="183" y="0" type="line"/>
      <point x="548" y="0" type="line"/>
      <point x="812" y="0"/>
      <point x="949" y="162"/>
      <point x="949" y="392" type="curve"/>
      <point x="949" y="623"/>
      <point x="813" y="786"/>
      <point x="548" y="786" type="curve"/>
    </contour>
    <contour>
      <point x="1253" y="1456" type="line"/>
      <point x="1199" y="1456" type="line"/>
      <point x="1199" y="0" type="line"/>
      <point x="1253" y="0" type="line"/>
    </contour>
  </outline>
</glyph>
<glyph name="uni044B" format="2">
  <advance width="1303"/>
  <unicode hex="044B"/>
  <anchor x="700" y="1269" name="top"/>
  <anchor x="1284" y="1269" name="top0315"/>
  <anchor x="700" y="1269" name="parent_top"/>
  <outline>
    <contour>
      <point x="192" y="667" type="line"/>
      <point x="192" y="618" type="line"/>
      <point x="513" y="618" type="line"/>
      <point x="710" y="618"/>
      <point x="789" y="478"/>
      <point x="789" y="337" type="curve"/>
      <point x="789" y="186"/>
      <point x="710" y="51"/>
      <point x="513" y="51" type="curve"/>
      <point x="224" y="51" type="line"/>
      <point x="224" y="1082" type="line"/>
      <point x="170" y="1082" type="line"/>
      <point x="170" y="0" type="line"/>
      <point x="513" y="0" type="line"/>
      <point x="725" y="0"/>
      <point x="843" y="141"/>
      <point x="843" y="333" type="curve"/>
      <point x="843" y="525"/>
      <point x="725" y="667"/>
      <point x="513" y="667" type="curve"/>
    </contour>
    <contour>
      <point x="1139" y="1082" type="line"/>
      <point x="1086" y="1082" type="line"/>
      <point x="1086" y="0" type="line"/>
      <point x="1139" y="0" type="line"/>
    </contour>
  </outline>
</glyph>
<glyph name="uni045B" format="2">
  <advance width="991"/>
  <unicode hex="045B"/>
  <outline>
    <contour>
      <point x="216" y="1536" type="line"/>
      <point x="163" y="1536" type="line"/>
      <point x="163" y="0" type="line"/>
      <point x="216" y="0" type="line"/>
    </contour>
    <contour>
      <point x="207" y="637" type="line"/>
      <point x="212" y="762"/>
      <point x="306" y="1052"/>
      <point x="532" y="1052" type="curve" smooth="yes"/>
      <point x="677" y="1052"/>
      <point x="778" y="979"/>
      <point x="778" y="701" type="curve" smooth="yes"/>
      <point x="778" y="0" type="line"/>
      <point x="830" y="0" type="line"/>
      <point x="830" y="700" type="line" smooth="yes"/>
      <point x="830" y="986"/>
      <point x="725" y="1102"/>
      <point x="538" y="1102" type="curve" smooth="yes"/>
      <point x="338" y="1102"/>
      <point x="201" y="906"/>
      <point x="179" y="695" type="curve"/>
    </contour>
    <contour>
      <point x="495" y="1332" type="line"/>
      <point x="-6" y="1332" type="line"/>
      <point x="-6" y="1281" type="line"/>
      <point x="495" y="1281" type="line"/>
    </contour>
  </outline>
</glyph>
<glyph name="uni045F" format="2">
  <advance width="991"/>
  <unicode hex="045F"/>
  <outline>
    <contour>
      <point x="473" y="51" type="line"/>
      <point x="473" y="-349" type="line"/>
      <point x="527" y="-349" type="line"/>
      <point x="527" y="51" type="line"/>
    </contour>
    <contour>
      <point x="164" y="1082" type="line"/>
      <point x="164" y="0" type="line"/>
      <point x="828" y="0" type="line"/>
      <point x="828" y="1082" type="line"/>
      <point x="775" y="1082" type="line"/>
      <point x="775" y="51" type="line"/>
      <point x="217" y="51" type="line"/>
      <point x="217" y="1082" type="line"/>
    </contour>
  </outline>
</glyph>
<glyph name="uni0463" format="2">
  <advance width="955"/>
  <unicode hex="0463"/>
  <outline>
    <contour>
      <point x="192" y="669" type="line"/>
      <point x="192" y="616" type="line"/>
      <point x="513" y="616" type="line"/>
      <point x="710" y="616"/>
      <point x="789" y="480"/>
      <point x="789" y="336" type="curve"/>
      <point x="789" y="186"/>
      <point x="710" y="51"/>
      <point x="513" y="51" type="curve"/>
      <point x="224" y="51" type="line"/>
      <point x="224" y="1537" type="line"/>
      <point x="170" y="1537" type="line"/>
      <point x="170" y="0" type="line"/>
      <point x="513" y="0" type="line"/>
      <point x="725" y="0"/>
      <point x="843" y="140"/>
      <point x="843" y="334" type="curve"/>
      <point x="843" y="525"/>
      <point x="725" y="669"/>
      <point x="513" y="669" type="curve"/>
    </contour>
    <contour>
      <point x="502" y="1133" type="line"/>
      <point x="-1" y="1133" type="line"/>
      <point x="-1" y="1082" type="line"/>
      <point x="502" y="1082" type="line"/>
    </contour>
  </outline>
</glyph>
<glyph name="uni0464" format="2">
  <advance width="1586"/>
  <unicode hex="0464"/>
  <outline>
    <contour>
      <point x="1031" y="793" type="line"/>
      <point x="228" y="793" type="line"/>
      <point x="228" y="742" type="line"/>
      <point x="1031" y="742" type="line"/>
    </contour>
    <contour>
      <point x="1374" y="445" type="line"/>
      <point x="1348" y="158"/>
      <point x="1213" y="32"/>
      <point x="985" y="32" type="curve" smooth="yes"/>
      <point x="745" y="32"/>
      <point x="588" y="264"/>
      <point x="588" y="618" type="curve" smooth="yes"/>
      <point x="588" y="841" type="line" smooth="yes"/>
      <point x="588" y="1194"/>
      <point x="746" y="1427"/>
      <point x="987" y="1427" type="curve" smooth="yes"/>
      <point x="1218" y="1427"/>
      <point x="1349" y="1282"/>
      <point x="1374" y="1014" type="curve"/>
      <point x="1428" y="1014" type="line"/>
      <point x="1401" y="1325"/>
      <point x="1236" y="1477"/>
      <point x="987" y="1477" type="curve" smooth="yes"/>
      <point x="713" y="1477"/>
      <point x="537" y="1218"/>
      <point x="537" y="839" type="curve"/>
      <point x="537" y="618" type="line"/>
      <point x="537" y="239"/>
      <point x="712" y="-19"/>
      <point x="985" y="-19" type="curve" smooth="yes"/>
      <point x="1236" y="-19"/>
      <point x="1402" y="131"/>
      <point x="1428" y="445" type="curve"/>
    </contour>
    <contour>
      <point x="270" y="1456" type="line"/>
      <point x="219" y="1456" type="line"/>
      <point x="219" y="0" type="line"/>
      <point x="270" y="0" type="line"/>
    </contour>
  </outline>
</glyph>
<glyph name="uni0467" format="2">
  <advance width="944"/>
  <unicode hex="0467"/>
  <outline>
    <contour>
      <point x="419" y="856" type="line"/>
      <point x="487" y="1082" type="line"/>
      <point x="440" y="1082" type="line"/>
      <point x="48" y="0" type="line"/>
      <point x="106" y="0" type="line"/>
    </contour>
    <contour>
      <point x="823" y="0" type="line"/>
      <point x="878" y="0" type="line"/>
      <point x="488" y="1082" type="line"/>
      <point x="440" y="1082" type="line"/>
      <point x="508" y="856" type="line"/>
    </contour>
    <contour>
      <point x="702" y="449" type="line"/>
      <point x="226" y="449" type="line"/>
      <point x="226" y="398" type="line"/>
      <point x="702" y="398" type="line"/>
    </contour>
    <contour>
      <point x="493" y="428" type="line"/>
      <point x="441" y="428" type="line"/>
      <point x="441" y="0" type="line"/>
      <point x="493" y="0" type="line"/>
    </contour>
  </outline>
</glyph>
<glyph name="uni0468" format="2">
  <advance width="1560"/>
  <unicode hex="0468"/>
  <outline>
    <contour>
      <point x="696" y="559" type="line"/>
      <point x="248" y="559" type="line"/>
      <point x="248" y="511" type="line"/>
      <point x="696" y="511" type="line"/>
    </contour>
    <contour>
      <point x="967" y="1305" type="line"/>
      <point x="1005" y="1456" type="line"/>
      <point x="958" y="1456" type="line"/>
      <point x="497" y="0" type="line"/>
      <point x="554" y="0" type="line"/>
    </contour>
    <contour>
      <point x="1422" y="0" type="line"/>
      <point x="1480" y="0" type="line"/>
      <point x="1019" y="1456" type="line"/>
      <point x="972" y="1456" type="line"/>
      <point x="1011" y="1303" type="line"/>
    </contour>
    <contour>
      <point x="1285" y="562" type="line"/>
      <point x="691" y="562" type="line"/>
      <point x="691" y="511" type="line"/>
      <point x="1285" y="511" type="line"/>
    </contour>
    <contour>
      <point x="1009" y="541" type="line"/>
      <point x="958" y="541" type="line"/>
      <point x="958" y="0" type="line"/>
      <point x="1009" y="0" type="line"/>
    </contour>
    <contour>
      <point x="285" y="1456" type="line"/>
      <point x="234" y="1456" type="line"/>
      <point x="234" y="0" type="line"/>
      <point x="285" y="0" type="line"/>
    </contour>
  </outline>
</glyph>
<glyph name="uni046B" format="2">
  <advance width="1222"/>
  <unicode hex="046B"/>
  <outline>
    <contour>
      <point x="214" y="0" type="line"/>
      <point x="214" y="227" type="line" smooth="yes"/>
      <point x="214" y="452"/>
      <point x="306" y="533"/>
      <point x="507" y="533" type="curve" smooth="yes"/>
      <point x="715" y="533" type="line" smooth="yes"/>
      <point x="917" y="533"/>
      <point x="1010" y="452"/>
      <point x="1010" y="227" type="curve" smooth="yes"/>
      <point x="1010" y="0" type="line"/>
      <point x="1062" y="0" type="line"/>
      <point x="1062" y="227" type="line" smooth="yes"/>
      <point x="1062" y="484"/>
      <point x="933" y="585"/>
      <point x="715" y="585" type="curve" smooth="yes"/>
      <point x="507" y="585" type="line" smooth="yes"/>
      <point x="291" y="585"/>
      <point x="159" y="486"/>
      <point x="159" y="227" type="curve" smooth="yes"/>
      <point x="159" y="0" type="line"/>
    </contour>
    <contour>
      <point x="937" y="1081" type="line"/>
      <point x="294" y="1081" type="line"/>
      <point x="294" y="1031" type="line"/>
      <point x="937" y="1031" type="line"/>
    </contour>
    <contour>
      <point x="623" y="601" type="line"/>
      <point x="594" y="522" type="line"/>
      <point x="638" y="522" type="line"/>
      <point x="991" y="1082" type="line"/>
      <point x="930" y="1082" type="line"/>
    </contour>
    <contour>
      <point x="297" y="1082" type="line"/>
      <point x="235" y="1082" type="line"/>
      <point x="589" y="522" type="line"/>
      <point x="631" y="522" type="line"/>
      <point x="603" y="598" type="line"/>
    </contour>
    <contour>
      <point x="639" y="579" type="line"/>
      <point x="585" y="579" type="line"/>
      <point x="585" y="0" type="line"/>
      <point x="639" y="0" type="line"/>
    </contour>
  </outline>
</glyph>
<glyph name="uni046D" format="2">
  <advance width="1571"/>
  <unicode hex="046D"/>
  <outline>
    <contour>
      <point x="857" y="585" type="line"/>
      <point x="182" y="585" type="line"/>
      <point x="182" y="533" type="line"/>
      <point x="857" y="533" type="line"/>
    </contour>
    <contour>
      <point x="224" y="1082" type="line"/>
      <point x="170" y="1082" type="line"/>
      <point x="170" y="0" type="line"/>
      <point x="224" y="0" type="line"/>
    </contour>
    <contour>
      <point x="563" y="0" type="line"/>
      <point x="563" y="227" type="line" smooth="yes"/>
      <point x="563" y="452"/>
      <point x="655" y="533"/>
      <point x="856" y="533" type="curve" smooth="yes"/>
      <point x="1064" y="533" type="line" smooth="yes"/>
      <point x="1265" y="533"/>
      <point x="1359" y="452"/>
      <point x="1359" y="227" type="curve" smooth="yes"/>
      <point x="1359" y="0" type="line"/>
      <point x="1410" y="0" type="line"/>
      <point x="1410" y="227" type="line" smooth="yes"/>
      <point x="1410" y="484"/>
      <point x="1282" y="585"/>
      <point x="1064" y="585" type="curve" smooth="yes"/>
      <point x="856" y="585" type="line" smooth="yes"/>
      <point x="640" y="585"/>
      <point x="508" y="486"/>
      <point x="508" y="227" type="curve" smooth="yes"/>
      <point x="508" y="0" type="line"/>
    </contour>
    <contour>
      <point x="1286" y="1081" type="line"/>
      <point x="642" y="1081" type="line"/>
      <point x="642" y="1031" type="line"/>
      <point x="1286" y="1031" type="line"/>
    </contour>
    <contour>
      <point x="972" y="601" type="line"/>
      <point x="943" y="522" type="line"/>
      <point x="987" y="522" type="line"/>
      <point x="1340" y="1082" type="line"/>
      <point x="1279" y="1082" type="line"/>
    </contour>
    <contour>
      <point x="646" y="1082" type="line"/>
      <point x="584" y="1082" type="line"/>
      <point x="938" y="522" type="line"/>
      <point x="980" y="522" type="line"/>
      <point x="952" y="598" type="line"/>
    </contour>
    <contour>
      <point x="987" y="579" type="line"/>
      <point x="934" y="579" type="line"/>
      <point x="934" y="0" type="line"/>
      <point x="987" y="0" type="line"/>
    </contour>
  </outline>
</glyph>
<glyph name="uni046F" format="2">
  <advance width="882"/>
  <unicode hex="046F"/>
  <anchor x="389" y="1740" name="top"/>
  <anchor x="863" y="1740" name="top0315"/>
  <anchor x="389" y="1740" name="parent_top"/>
  <outline>
    <contour>
      <point x="144" y="1082" type="line"/>
      <point x="144" y="1030" type="line"/>
      <point x="385" y="1030" type="line" smooth="yes"/>
      <point x="592" y="1030"/>
      <point x="682" y="941"/>
      <point x="682" y="820" type="curve" smooth="yes"/>
      <point x="682" y="674"/>
      <point x="591" y="583"/>
      <point x="364" y="583" type="curve" smooth="yes"/>
      <point x="259" y="583" type="line"/>
      <point x="259" y="531" type="line"/>
      <point x="368" y="531" type="line" smooth="yes"/>
      <point x="605" y="531"/>
      <point x="735" y="662"/>
      <point x="735" y="816" type="curve" smooth="yes"/>
      <point x="735" y="992"/>
      <point x="597" y="1082"/>
      <point x="385" y="1082" type="curve" smooth="yes"/>
    </contour>
    <contour>
      <point x="259" y="578" type="line"/>
      <point x="259" y="531" type="line"/>
      <point x="364" y="531" type="line" smooth="yes"/>
      <point x="583" y="531"/>
      <point x="702" y="467"/>
      <point x="702" y="300" type="curve" smooth="yes"/>
      <point x="702" y="145"/>
      <point x="565" y="52"/>
      <point x="360" y="52" type="curve" smooth="yes"/>
      <point x="325" y="52" type="line" smooth="yes"/>
      <point x="173" y="52"/>
      <point x="112" y="-36"/>
      <point x="112" y="-142" type="curve"/>
      <point x="112" y="-258"/>
      <point x="227" y="-354"/>
      <point x="300" y="-377" type="curve"/>
      <point x="315" y="-327" type="line"/>
      <point x="257" y="-306"/>
      <point x="163" y="-229"/>
      <point x="163" y="-141" type="curve" smooth="yes"/>
      <point x="163" y="-51"/>
      <point x="206" y="2"/>
      <point x="326" y="2" type="curve" smooth="yes"/>
      <point x="360" y="2" type="line" smooth="yes"/>
      <point x="577" y="0"/>
      <point x="755" y="112"/>
      <point x="755" y="304" type="curve" smooth="yes"/>
      <point x="755" y="479"/>
      <point x="630" y="578"/>
      <point x="368" y="578" type="curve" smooth="yes"/>
    </contour>
    <contour>
      <point x="234" y="1578" type="line"/>
      <point x="183" y="1578" type="line"/>
      <point x="183" y="1568" type="line"/>
      <point x="370" y="1319" type="line"/>
      <point x="424" y="1319" type="line"/>
      <point x="610" y="1567" type="line"/>
      <point x="610" y="1578" type="line"/>
      <point x="559" y="1578" type="line"/>
      <point x="396" y="1360" type="line"/>
    </contour>
  </outline>
</glyph>
<glyph name="uni0472" format="2">
  <advance width="1198"/>
  <unicode hex="0472"/>
  <anchor x="622" y="1607" name="parent_top"/>
  <anchor x="622" y="1607" name="top"/>
  <anchor x="1179" y="1607" name="top0315"/>
  <outline>
    <contour>
      <point x="598" y="1476" type="curve" smooth="yes"/>
      <point x="314" y="1476"/>
      <point x="130" y="1217"/>
      <point x="130" y="839" type="curve" smooth="yes"/>
      <point x="130" y="617" type="line" smooth="yes"/>
      <point x="130" y="238"/>
      <point x="314" y="-20"/>
      <point x="598" y="-20" type="curve" smooth="yes"/>
      <point x="885" y="-20"/>
      <point x="1067" y="238"/>
      <point x="1067" y="617" type="curve" smooth="yes"/>
      <point x="1067" y="839" type="line" smooth="yes"/>
      <point x="1067" y="1217"/>
      <point x="883" y="1476"/>
    </contour>
    <contour>
      <point x="598" y="1425" type="curve" smooth="yes"/>
      <point x="861" y="1425"/>
      <point x="1013" y="1182"/>
      <point x="1013" y="841" type="curve" smooth="yes"/>
      <point x="1013" y="811"/>
      <point x="1013" y="782"/>
      <point x="1013" y="752" type="curve"/>
      <point x="184" y="752" type="line"/>
      <point x="184" y="782"/>
      <point x="184" y="811"/>
      <point x="184" y="841" type="curve" smooth="yes"/>
      <point x="184" y="1182"/>
      <point x="335" y="1425"/>
    </contour>
    <contour>
      <point x="598" y="31" type="curve" smooth="yes"/>
      <point x="337" y="31"/>
      <point x="184" y="273"/>
      <point x="184" y="617" type="curve" smooth="yes"/>
      <point x="184" y="646"/>
      <point x="184" y="674"/>
      <point x="184" y="703" type="curve"/>
      <point x="1013" y="703" type="line"/>
      <point x="1013" y="674"/>
      <point x="1013" y="646"/>
      <point x="1013" y="617" type="curve" smooth="yes"/>
      <point x="1013" y="273"/>
      <point x="863" y="31"/>
    </contour>
  </outline>
</glyph>
<glyph name="uni0473" format="2">
  <advance width="1017"/>
  <unicode hex="0473"/>
  <anchor x="494" y="1319" name="parent_top"/>
  <anchor x="494" y="1319" name="top"/>
  <anchor x="998" y="1319" name="top0315"/>
  <outline>
    <contour>
      <point x="496" y="1102" type="curve" smooth="yes"/>
      <point x="257" y="1102"/>
      <point x="92" y="880"/>
      <point x="92" y="562" type="curve" smooth="yes"/>
      <point x="92" y="520" type="line" smooth="yes"/>
      <point x="92" y="204"/>
      <point x="257" y="-20"/>
      <point x="496" y="-20" type="curve" smooth="yes"/>
      <point x="738" y="-20"/>
      <point x="899" y="204"/>
      <point x="899" y="520" type="curve" smooth="yes"/>
      <point x="899" y="562" type="line" smooth="yes"/>
      <point x="899" y="880"/>
      <point x="738" y="1102"/>
    </contour>
    <contour>
      <point x="496" y="1051" type="curve" smooth="yes"/>
      <point x="717" y="1051"/>
      <point x="845" y="819"/>
      <point x="846" y="565" type="curve"/>
      <point x="145" y="565" type="line"/>
      <point x="146" y="819"/>
      <point x="275" y="1051"/>
    </contour>
    <contour>
      <point x="496" y="31" type="curve" smooth="yes"/>
      <point x="276" y="31"/>
      <point x="147" y="256"/>
      <point x="145" y="514" type="curve"/>
      <point x="846" y="514" type="line"/>
      <point x="844" y="256"/>
      <point x="716" y="31"/>
    </contour>
  </outline>
</glyph>
<glyph name="uni0484" format="2">
  <unicode hex="0484"/>
  <anchor x="-368" y="1190" name="_top"/>
  <outline>
    <contour>
      <point x="-731" y="1359" type="line"/>
      <point x="-731" y="1316" type="line"/>
      <point x="-715" y="1316" type="line" smooth="yes"/>
      <point x="-518" y="1316"/>
      <point x="-476" y="1506"/>
      <point x="-341" y="1506" type="curve" smooth="yes"/>
      <point x="-235" y="1506"/>
      <point x="-188" y="1416"/>
      <point x="-188" y="1321" type="curve" smooth="yes"/>
      <point x="-188" y="1303" type="line"/>
      <point x="-136" y="1303" type="line"/>
      <point x="-136" y="1329" type="line" smooth="yes"/>
      <point x="-136" y="1452"/>
      <point x="-212" y="1557"/>
      <point x="-336" y="1557" type="curve" smooth="yes"/>
      <point x="-490" y="1557"/>
      <point x="-540" y="1359"/>
      <point x="-717" y="1359" type="curve" smooth="yes"/>
    </contour>
  </outline>
</glyph>
<glyph name="uni048F" format="2">
  <advance width="1014"/>
  <unicode hex="048F"/>
  <outline>
    <contour>
      <point x="625" y="279" type="line"/>
      <point x="583" y="248" type="line"/>
      <point x="800" y="-97" type="line"/>
      <point x="841" y="-65" type="line"/>
    </contour>
    <contour>
      <point x="214" y="874" type="line"/>
      <point x="213" y="1082" type="line"/>
      <point x="162" y="1082" type="line"/>
      <point x="162" y="-416" type="line"/>
      <point x="214" y="-416" type="line"/>
    </contour>
    <contour>
      <point x="870" y="552" type="line"/>
      <point x="870" y="892"/>
      <point x="741" y="1102"/>
      <point x="522" y="1102" type="curve" smooth="yes"/>
      <point x="321" y="1102"/>
      <point x="203" y="949"/>
      <point x="163" y="750" type="curve"/>
      <point x="163" y="299" type="line"/>
      <point x="193" y="132"/>
      <point x="315" y="-20"/>
      <point x="524" y="-20" type="curve" smooth="yes"/>
      <point x="741" y="-20"/>
      <point x="870" y="201"/>
      <point x="870" y="531" type="curve" smooth="yes"/>
    </contour>
    <contour>
      <point x="817" y="531" type="line"/>
      <point x="817" y="240"/>
      <point x="721" y="31"/>
      <point x="522" y="31" type="curve" smooth="yes"/>
      <point x="332" y="31"/>
      <point x="229" y="163"/>
      <point x="198" y="328" type="curve"/>
      <point x="198" y="712" type="line"/>
      <point x="221" y="844"/>
      <point x="294" y="1052"/>
      <point x="520" y="1052" type="curve" smooth="yes"/>
      <point x="721" y="1052"/>
      <point x="817" y="841"/>
      <point x="817" y="552" type="curve" smooth="yes"/>
    </contour>
  </outline>
</glyph>
<glyph name="uni0491" format="2">
  <advance width="787"/>
  <unicode hex="0491"/>
  <outline>
    <contour>
      <point x="719" y="1456" type="line"/>
      <point x="668" y="1456" type="line"/>
      <point x="668" y="1030" type="line"/>
      <point x="719" y="1030" type="line"/>
    </contour>
    <contour>
      <point x="717" y="1082" type="line"/>
      <point x="163" y="1082" type="line"/>
      <point x="163" y="0" type="line"/>
      <point x="215" y="0" type="line"/>
      <point x="215" y="1030" type="line"/>
      <point x="717" y="1030" type="line"/>
    </contour>
  </outline>
</glyph>
<glyph name="uni04A9" format="2">
  <advance width="1056"/>
  <unicode hex="04A9"/>
  <anchor x="510" y="1290" name="top"/>
  <anchor x="510" y="-10" name="bottom"/>
  <anchor x="1037" y="1290" name="top0315"/>
  <anchor x="510" y="1290" name="parent_top"/>
  <outline>
    <contour>
      <point x="977" y="39" type="line"/>
      <point x="691" y="39"/>
      <point x="510" y="243"/>
      <point x="510" y="544" type="curve"/>
      <point x="510" y="657" type="line" smooth="yes"/>
      <point x="510" y="876"/>
      <point x="576" y="1050"/>
      <point x="702" y="1050" type="curve"/>
      <point x="818" y="1050"/>
      <point x="896" y="863"/>
      <point x="896" y="637" type="curve"/>
      <point x="896" y="531" type="line" smooth="yes"/>
      <point x="896" y="251"/>
      <point x="760" y="29"/>
      <point x="528" y="29" type="curve" smooth="yes"/>
      <point x="306" y="29"/>
      <point x="179" y="250"/>
      <point x="179" y="532" type="curve" smooth="yes"/>
      <point x="179" y="629" type="line" smooth="yes"/>
      <point x="179" y="871"/>
      <point x="287" y="1051"/>
      <point x="409" y="1051" type="curve"/>
      <point x="409" y="1102" type="line"/>
      <point x="239" y="1102"/>
      <point x="125" y="898"/>
      <point x="125" y="627" type="curve" smooth="yes"/>
      <point x="125" y="532" type="line" smooth="yes"/>
      <point x="125" y="217"/>
      <point x="286" y="-21"/>
      <point x="528" y="-21" type="curve" smooth="yes"/>
      <point x="780" y="-21"/>
      <point x="948" y="217"/>
      <point x="948" y="531" type="curve" smooth="yes"/>
      <point x="948" y="634" type="line"/>
      <point x="948" y="899"/>
      <point x="849" y="1099"/>
      <point x="702" y="1099" type="curve"/>
      <point x="553" y="1099"/>
      <point x="455" y="917"/>
      <point x="455" y="655" type="curve" smooth="yes"/>
      <point x="455" y="546" type="line"/>
      <point x="455" y="215"/>
      <point x="662" y="-12"/>
      <point x="977" y="-12" type="curve"/>
    </contour>
  </outline>
</glyph>
<glyph name="uni04B0" format="2">
  <advance width="1075"/>
  <unicode hex="04B0"/>
  <anchor x="536" y="1602" name="parent_top"/>
  <anchor x="537" y="10" name="bottom"/>
  <anchor x="1057" y="1600" name="top_dd"/>
  <anchor x="1057" y="-407" name="bottom_dd"/>
  <anchor x="1057" y="1602" name="top0315"/>
  <anchor x="536" y="1602" name="top"/>
  <outline>
    <contour>
      <point x="113" y="1456" type="line"/>
      <point x="46" y="1456" type="line"/>
      <point x="509" y="553" type="line"/>
      <point x="509" y="0" type="line"/>
      <point x="562" y="0" type="line"/>
      <point x="562" y="553" type="line"/>
      <point x="1026" y="1456" type="line"/>
      <point x="962" y="1456" type="line"/>
      <point x="536" y="598" type="line"/>
    </contour>
    <contour>
      <point x="782" y="609" type="line"/>
      <point x="280" y="609" type="line"/>
      <point x="280" y="558" type="line"/>
      <point x="782" y="558" type="line"/>
    </contour>
  </outline>
</glyph>
<glyph name="uni04B4" format="2">
  <advance width="1502"/>
  <unicode hex="04B4"/>
  <outline>
    <contour>
      <point x="838" y="1454" type="line"/>
      <point x="36" y="1454" type="line"/>
      <point x="36" y="1405" type="line"/>
      <point x="838" y="1405" type="line"/>
    </contour>
    <contour>
      <point x="1390" y="51" type="line"/>
      <point x="1214" y="51" type="line"/>
      <point x="1214" y="0" type="line"/>
      <point x="1337" y="0" type="line"/>
      <point x="1337" y="-351" type="line"/>
      <point x="1390" y="-351" type="line"/>
    </contour>
    <contour>
      <point x="391" y="0" type="line"/>
      <point x="1275" y="0" type="line"/>
      <point x="1275" y="1456" type="line"/>
      <point x="1222" y="1456" type="line"/>
      <point x="1222" y="51" type="line"/>
      <point x="443" y="51" type="line"/>
      <point x="443" y="1456" type="line"/>
      <point x="391" y="1456" type="line"/>
    </contour>
  </outline>
</glyph>
<glyph name="uni04BC" format="2">
  <advance width="1322"/>
  <unicode hex="04BC"/>
  <anchor x="775" y="-46" name="bottom"/>
  <outline>
    <contour>
      <point x="29" y="1074" type="line"/>
      <point x="29" y="872"/>
      <point x="139" y="763"/>
      <point x="324" y="763" type="curve"/>
      <point x="324" y="814" type="line"/>
      <point x="162" y="814"/>
      <point x="82" y="909"/>
      <point x="82" y="1074" type="curve"/>
    </contour>
    <contour>
      <point x="777" y="-18" type="curve"/>
      <point x="986" y="-18"/>
      <point x="1092" y="60"/>
      <point x="1168" y="144" type="curve"/>
      <point x="1142" y="184" type="line"/>
      <point x="1056" y="92"/>
      <point x="935" y="30"/>
      <point x="777" y="30" type="curve" smooth="yes"/>
      <point x="469" y="30"/>
      <point x="337" y="265"/>
      <point x="337" y="559" type="curve" smooth="yes"/>
      <point x="337" y="871" type="line" smooth="yes"/>
      <point x="337" y="1177"/>
      <point x="486" y="1423"/>
      <point x="737" y="1423" type="curve"/>
      <point x="997" y="1423"/>
      <point x="1141" y="1178"/>
      <point x="1141" y="869" type="curve"/>
      <point x="1141" y="817" type="line"/>
      <point x="318" y="817" type="line"/>
      <point x="318" y="764" type="line"/>
      <point x="1194" y="764" type="line"/>
      <point x="1194" y="867" type="line" smooth="yes"/>
      <point x="1194" y="1242"/>
      <point x="1015" y="1475"/>
      <point x="737" y="1475" type="curve" smooth="yes"/>
      <point x="477" y="1475"/>
      <point x="284" y="1227"/>
      <point x="284" y="871" type="curve" smooth="yes"/>
      <point x="284" y="559" type="line" smooth="yes"/>
      <point x="284" y="218"/>
      <point x="459" y="-18"/>
    </contour>
  </outline>
</glyph>
<glyph name="uni04BD" format="2">
  <advance width="1059"/>
  <unicode hex="04BD"/>
  <anchor x="605" y="2" name="bottom"/>
  <outline>
    <contour>
      <point x="28" y="850" type="line"/>
      <point x="28" y="678"/>
      <point x="118" y="583"/>
      <point x="272" y="583" type="curve"/>
      <point x="272" y="634" type="line"/>
      <point x="145" y="634"/>
      <point x="78" y="712"/>
      <point x="78" y="850" type="curve"/>
    </contour>
    <contour>
      <point x="613" y="-20" type="curve"/>
      <point x="763" y="-20"/>
      <point x="861" y="53"/>
      <point x="921" y="153" type="curve"/>
      <point x="886" y="179" type="line"/>
      <point x="810" y="62"/>
      <point x="721" y="30"/>
      <point x="613" y="30" type="curve" smooth="yes"/>
      <point x="413" y="30"/>
      <point x="263" y="245"/>
      <point x="263" y="518" type="curve" smooth="yes"/>
      <point x="263" y="564" type="line" smooth="yes"/>
      <point x="263" y="831"/>
      <point x="398" y="1051"/>
      <point x="597" y="1051" type="curve"/>
      <point x="779" y="1051"/>
      <point x="894" y="863"/>
      <point x="894" y="644" type="curve"/>
      <point x="894" y="631" type="line"/>
      <point x="244" y="631" type="line"/>
      <point x="244" y="580" type="line"/>
      <point x="947" y="580" type="line"/>
      <point x="947" y="642" type="line" smooth="yes"/>
      <point x="947" y="915"/>
      <point x="803" y="1102"/>
      <point x="597" y="1102" type="curve" smooth="yes"/>
      <point x="385" y="1102"/>
      <point x="210" y="877"/>
      <point x="210" y="564" type="curve" smooth="yes"/>
      <point x="210" y="518" type="line" smooth="yes"/>
      <point x="210" y="205"/>
      <point x="389" y="-20"/>
    </contour>
  </outline>
</glyph>
<glyph name="uni04C4" format="2">
  <advance width="929"/>
  <unicode hex="04C4"/>
  <outline>
    <contour>
      <point x="217" y="1082" type="line"/>
      <point x="164" y="1082" type="line"/>
      <point x="164" y="0" type="line"/>
      <point x="217" y="0" type="line"/>
    </contour>
    <contour>
      <point x="823" y="1082" type="line"/>
      <point x="750" y="1082" type="line"/>
      <point x="363" y="581" type="line"/>
      <point x="195" y="581" type="line"/>
      <point x="195" y="532" type="line"/>
      <point x="387" y="532" type="line"/>
    </contour>
    <contour>
      <point x="179" y="532" type="line"/>
      <point x="392" y="532" type="line" smooth="yes"/>
      <point x="612" y="532"/>
      <point x="789" y="419"/>
      <point x="783" y="133" type="curve" smooth="yes"/>
      <point x="780" y="3"/>
      <point x="723" y="-190"/>
      <point x="510" y="-242" type="curve"/>
      <point x="525" y="-280" type="line"/>
      <point x="768" y="-224"/>
      <point x="837" y="5"/>
      <point x="833" y="133" type="curve"/>
      <point x="833" y="466"/>
      <point x="641" y="583"/>
      <point x="392" y="583" type="curve" smooth="yes"/>
      <point x="179" y="583" type="line"/>
    </contour>
  </outline>
</glyph>
<glyph name="uni04C8" format="2">
  <advance width="991"/>
  <unicode hex="04C8"/>
  <outline>
    <contour>
      <point x="163" y="1082" type="line"/>
      <point x="163" y="0" type="line"/>
      <point x="215" y="0" type="line"/>
      <point x="215" y="530" type="line"/>
      <point x="776" y="530" type="line"/>
      <point x="776" y="-89" type="line" smooth="yes"/>
      <point x="776" y="-279"/>
      <point x="707" y="-386"/>
      <point x="583" y="-386" type="curve" smooth="yes"/>
      <point x="554" y="-386"/>
      <point x="518" y="-376"/>
      <point x="500" y="-368" type="curve"/>
      <point x="488" y="-415" type="line"/>
      <point x="522" y="-428"/>
      <point x="549" y="-437"/>
      <point x="583" y="-437" type="curve" smooth="yes"/>
      <point x="737" y="-437"/>
      <point x="828" y="-314"/>
      <point x="828" y="-89" type="curve" smooth="yes"/>
      <point x="828" y="1082" type="line"/>
      <point x="776" y="1082" type="line"/>
      <point x="776" y="584" type="line"/>
      <point x="215" y="584" type="line"/>
      <point x="215" y="1082" type="line"/>
    </contour>
  </outline>
</glyph>
<glyph name="uni04E0" format="2">
  <advance width="1027"/>
  <unicode hex="04E0"/>
  <outline>
    <contour>
      <point x="140" y="1456" type="line"/>
      <point x="140" y="1406" type="line"/>
      <point x="820" y="1406" type="line"/>
      <point x="412" y="833" type="line"/>
      <point x="412" y="820" type="line"/>
      <point x="464" y="820" type="line"/>
      <point x="880" y="1389" type="line"/>
      <point x="877" y="1456" type="line"/>
    </contour>
    <contour>
      <point x="412" y="825" type="line"/>
      <point x="412" y="782" type="line"/>
      <point x="500" y="782" type="line" smooth="yes"/>
      <point x="710" y="782"/>
      <point x="824" y="665"/>
      <point x="824" y="381" type="curve" smooth="yes"/>
      <point x="824" y="163"/>
      <point x="708" y="30"/>
      <point x="506" y="30" type="curve" smooth="yes"/>
      <point x="307" y="30"/>
      <point x="177" y="185"/>
      <point x="177" y="404" type="curve"/>
      <point x="121" y="404" type="line"/>
      <point x="121" y="113"/>
      <point x="317" y="-21"/>
      <point x="506" y="-21" type="curve" smooth="yes"/>
      <point x="720" y="-21"/>
      <point x="875" y="127"/>
      <point x="875" y="385" type="curve" smooth="yes"/>
      <point x="875" y="670"/>
      <point x="755" y="826"/>
      <point x="505" y="826" type="curve" smooth="yes"/>
    </contour>
  </outline>
</glyph>
<glyph name="uni04FF" format="2">
  <advance width="869"/>
  <unicode hex="04FF"/>
  <anchor x="454" y="10" name="bottom"/>
  <anchor x="448" y="1280" name="parent_top"/>
  <anchor x="850" y="1600" name="top_dd"/>
  <anchor x="850" y="-407" name="bottom_dd"/>
  <anchor x="850" y="1280" name="top0315"/>
  <anchor x="448" y="1280" name="top"/>
  <outline>
    <contour>
      <point x="147" y="1082" type="line"/>
      <point x="81" y="1082" type="line"/>
      <point x="403" y="555" type="line"/>
      <point x="64" y="0" type="line"/>
      <point x="129" y="0" type="line"/>
      <point x="433" y="512" type="line"/>
      <point x="739" y="0" type="line"/>
      <point x="805" y="0" type="line"/>
      <point x="465" y="555" type="line"/>
      <point x="786" y="1082" type="line"/>
      <point x="721" y="1082" type="line"/>
      <point x="435" y="599" type="line"/>
    </contour>
    <contour>
      <point x="688" y="579" type="line"/>
      <point x="186" y="579" type="line"/>
      <point x="186" y="528" type="line"/>
      <point x="688" y="528" type="line"/>
    </contour>
  </outline>
</glyph>
<glyph name="uni0500" format="2">
  <advance width="961"/>
  <unicode hex="0500"/>
  <outline>
    <contour>
      <point x="475" y="807" type="line"/>
      <point x="209" y="807"/>
      <point x="74" y="633"/>
      <point x="74" y="402" type="curve"/>
      <point x="74" y="172"/>
      <point x="211" y="0"/>
      <point x="475" y="0" type="curve"/>
      <point x="839" y="0" type="line"/>
      <point x="839" y="1456" type="line"/>
      <point x="787" y="1456" type="line"/>
      <point x="787" y="51" type="line"/>
      <point x="475" y="51" type="line"/>
      <point x="228" y="51"/>
      <point x="127" y="220"/>
      <point x="127" y="404" type="curve"/>
      <point x="127" y="583"/>
      <point x="228" y="754"/>
      <point x="475" y="754" type="curve"/>
      <point x="823" y="754" type="line"/>
      <point x="823" y="807" type="line"/>
    </contour>
  </outline>
</glyph>
<glyph name="uni0502" format="2">
  <advance width="1330"/>
  <unicode hex="0502"/>
  <outline>
    <contour>
      <point x="473" y="807" type="line"/>
      <point x="209" y="807"/>
      <point x="73" y="633"/>
      <point x="73" y="402" type="curve" smooth="yes"/>
      <point x="73" y="172"/>
      <point x="209" y="0"/>
      <point x="473" y="0" type="curve" smooth="yes"/>
      <point x="840" y="0" type="line"/>
      <point x="840" y="1456" type="line"/>
      <point x="787" y="1456" type="line"/>
      <point x="787" y="51" type="line"/>
      <point x="473" y="51" type="line" smooth="yes"/>
      <point x="228" y="51"/>
      <point x="127" y="220"/>
      <point x="127" y="404" type="curve" smooth="yes"/>
      <point x="127" y="583"/>
      <point x="228" y="754"/>
      <point x="473" y="754" type="curve" smooth="yes"/>
      <point x="823" y="754" type="line"/>
      <point x="823" y="807" type="line"/>
    </contour>
    <contour>
      <point x="971" y="0" type="line"/>
      <point x="1123" y="0"/>
      <point x="1260" y="123"/>
      <point x="1264" y="381" type="curve"/>
      <point x="1266" y="504"/>
      <point x="1239" y="627"/>
      <point x="1208" y="745" type="curve"/>
      <point x="1159" y="745" type="line"/>
      <point x="1194" y="627"/>
      <point x="1213" y="497"/>
      <point x="1211" y="381" type="curve" smooth="yes"/>
      <point x="1206" y="176"/>
      <point x="1125" y="51"/>
      <point x="971" y="49" type="curve" smooth="yes"/>
      <point x="830" y="48" type="line"/>
      <point x="830" y="0" type="line"/>
    </contour>
  </outline>
</glyph>
<glyph name="uni0508" format="2">
  <advance width="1713"/>
  <unicode hex="0508"/>
  <outline>
    <contour>
      <point x="398" y="1456" type="line"/>
      <point x="365" y="825" type="line" smooth="yes"/>
      <point x="329" y="194"/>
      <point x="278" y="51"/>
      <point x="103" y="50" type="curve" smooth="yes"/>
      <point x="74" y="51" type="line"/>
      <point x="74" y="0" type="line"/>
      <point x="101" y="0" type="line" smooth="yes"/>
      <point x="340" y="0"/>
      <point x="382" y="225"/>
      <point x="416" y="825" type="curve" smooth="yes"/>
      <point x="450" y="1456" type="line"/>
    </contour>
    <contour>
      <point x="1010" y="1456" type="line"/>
      <point x="408" y="1456" type="line"/>
      <point x="408" y="1406" type="line"/>
      <point x="1010" y="1406" type="line"/>
    </contour>
    <contour>
      <point x="993" y="345" type="line"/>
      <point x="993" y="83"/>
      <point x="1090" y="-21"/>
      <point x="1234" y="-21" type="curve" smooth="yes"/>
      <point x="1432" y="-21"/>
      <point x="1576" y="158"/>
      <point x="1581" y="529" type="curve" smooth="yes"/>
      <point x="1584" y="666"/>
      <point x="1553" y="802"/>
      <point x="1525" y="932" type="curve"/>
      <point x="1469" y="930" type="line"/>
      <point x="1502" y="797"/>
      <point x="1527" y="662"/>
      <point x="1527" y="529" type="curve" smooth="yes"/>
      <point x="1524" y="225"/>
      <point x="1423" y="31"/>
      <point x="1234" y="30" type="curve" smooth="yes"/>
      <point x="1117" y="29"/>
      <point x="1046" y="128"/>
      <point x="1046" y="345" type="curve" smooth="yes"/>
      <point x="1046" y="1456" type="line"/>
      <point x="993" y="1456" type="line"/>
    </contour>
  </outline>
</glyph>
<glyph name="uni050B" format="2">
  <advance width="1469"/>
  <unicode hex="050B"/>
  <outline>
    <contour>
      <point x="767" y="572" type="line"/>
      <point x="179" y="572" type="line"/>
      <point x="179" y="522" type="line"/>
      <point x="767" y="522" type="line"/>
    </contour>
    <contour>
      <point x="205" y="1082" type="line"/>
      <point x="152" y="1082" type="line"/>
      <point x="152" y="0" type="line"/>
      <point x="205" y="0" type="line"/>
    </contour>
    <contour>
      <point x="752" y="345" type="line"/>
      <point x="759" y="83"/>
      <point x="841" y="-25"/>
      <point x="977" y="-21" type="curve"/>
      <point x="1164" y="-21"/>
      <point x="1300" y="129"/>
      <point x="1304" y="444" type="curve"/>
      <point x="1307" y="573"/>
      <point x="1276" y="699"/>
      <point x="1246" y="823" type="curve"/>
      <point x="1193" y="825" type="line"/>
      <point x="1227" y="697"/>
      <point x="1254" y="570"/>
      <point x="1251" y="444" type="curve" smooth="yes"/>
      <point x="1249" y="192"/>
      <point x="1152" y="32"/>
      <point x="977" y="30" type="curve"/>
      <point x="870" y="30"/>
      <point x="803" y="128"/>
      <point x="804" y="345" type="curve"/>
      <point x="804" y="1082" type="line"/>
      <point x="752" y="1082" type="line"/>
    </contour>
  </outline>
</glyph>
<glyph name="uni050D" format="2">
  <advance width="924"/>
  <unicode hex="050D"/>
  <anchor x="482" y="1290" name="top"/>
  <anchor x="482" y="-10" name="bottom"/>
  <anchor x="905" y="1290" name="top0315"/>
  <anchor x="482" y="1290" name="parent_top"/>
  <outline>
    <contour>
      <point x="519" y="30" type="curve"/>
      <point x="291" y="30"/>
      <point x="183" y="280"/>
      <point x="183" y="520" type="curve" smooth="yes"/>
      <point x="183" y="562" type="line" smooth="yes"/>
      <point x="183" y="800"/>
      <point x="277" y="1051"/>
      <point x="500" y="1051" type="curve"/>
      <point x="579" y="1051"/>
      <point x="649" y="1032"/>
      <point x="701" y="996" type="curve"/>
      <point x="722" y="1044" type="line"/>
      <point x="677" y="1085"/>
      <point x="601" y="1102"/>
      <point x="500" y="1102" type="curve" smooth="yes"/>
      <point x="263" y="1102"/>
      <point x="130" y="850"/>
      <point x="130" y="562" type="curve" smooth="yes"/>
      <point x="130" y="520" type="line" smooth="yes"/>
      <point x="130" y="232"/>
      <point x="268" y="-21"/>
      <point x="519" y="-21" type="curve"/>
      <point x="699" y="-21"/>
      <point x="831" y="83"/>
      <point x="834" y="301" type="curve"/>
      <point x="836" y="379"/>
      <point x="824" y="460"/>
      <point x="811" y="537" type="curve"/>
      <point x="759" y="537" type="line"/>
      <point x="776" y="461"/>
      <point x="783" y="376"/>
      <point x="783" y="301" type="curve" smooth="yes"/>
      <point x="780" y="157"/>
      <point x="716" y="32"/>
    </contour>
  </outline>
</glyph>
<glyph name="uni050F" format="2">
  <advance width="1143"/>
  <unicode hex="050F"/>
  <outline>
    <contour>
      <point x="843" y="1082" type="line"/>
      <point x="74" y="1082" type="line"/>
      <point x="74" y="1033" type="line"/>
      <point x="843" y="1033" type="line"/>
    </contour>
    <contour>
      <point x="425" y="345" type="line"/>
      <point x="433" y="83"/>
      <point x="522" y="-25"/>
      <point x="669" y="-21" type="curve"/>
      <point x="853" y="-21"/>
      <point x="990" y="132"/>
      <point x="994" y="448" type="curve"/>
      <point x="999" y="579"/>
      <point x="966" y="707"/>
      <point x="937" y="834" type="curve"/>
      <point x="884" y="832" type="line"/>
      <point x="918" y="704"/>
      <point x="943" y="575"/>
      <point x="943" y="448" type="curve" smooth="yes"/>
      <point x="938" y="191"/>
      <point x="845" y="32"/>
      <point x="669" y="30" type="curve"/>
      <point x="551" y="30"/>
      <point x="477" y="128"/>
      <point x="476" y="345" type="curve"/>
      <point x="476" y="1082" type="line"/>
      <point x="425" y="1082" type="line"/>
    </contour>
  </outline>
</glyph>
<glyph name="uni052E" format="2">
  <advance width="1197"/>
  <unicode hex="052E"/>
  <outline>
    <contour>
      <point x="373" y="1456" type="line"/>
      <point x="338" y="825" type="line" smooth="yes"/>
      <point x="304" y="194"/>
      <point x="252" y="51"/>
      <point x="78" y="50" type="curve" smooth="yes"/>
      <point x="48" y="51" type="line"/>
      <point x="48" y="0" type="line"/>
      <point x="78" y="0" type="line" smooth="yes"/>
      <point x="315" y="0"/>
      <point x="357" y="225"/>
      <point x="391" y="825" type="curve" smooth="yes"/>
      <point x="421" y="1406" type="line"/>
      <point x="1014" y="1406" type="line"/>
      <point x="1014" y="0" type="line"/>
      <point x="1067" y="0" type="line"/>
      <point x="1067" y="-352" type="line"/>
      <point x="1118" y="-352" type="line"/>
      <point x="1118" y="93" type="line"/>
      <point x="1067" y="93" type="line"/>
      <point x="1067" y="1456" type="line"/>
    </contour>
  </outline>
</glyph>
<glyph name="uni1ABB" format="2">
  <unicode hex="1ABB"/>
  <anchor x="-457" y="1350" name="_parent_top"/>
  <outline>
    <contour>
      <point x="-734" y="1302" type="curve"/>
      <point x="-731" y="1334" type="line"/>
      <point x="-795" y="1361"/>
      <point x="-847" y="1430"/>
      <point x="-847" y="1518" type="curve" smooth="yes"/>
      <point x="-847" y="1601"/>
      <point x="-801" y="1672"/>
      <point x="-731" y="1698" type="curve"/>
      <point x="-734" y="1728" type="line"/>
      <point x="-819" y="1697"/>
      <point x="-884" y="1610"/>
      <point x="-884" y="1518" type="curve" smooth="yes"/>
      <point x="-884" y="1417"/>
      <point x="-819" y="1336"/>
    </contour>
    <contour>
      <point x="-182" y="1302" type="line"/>
      <point x="-98" y="1336"/>
      <point x="-32" y="1417"/>
      <point x="-32" y="1518" type="curve" smooth="yes"/>
      <point x="-32" y="1611"/>
      <point x="-98" y="1697"/>
      <point x="-182" y="1728" type="curve"/>
      <point x="-185" y="1698" type="line"/>
      <point x="-116" y="1672"/>
      <point x="-70" y="1601"/>
      <point x="-70" y="1518" type="curve" smooth="yes"/>
      <point x="-70" y="1431"/>
      <point x="-122" y="1361"/>
      <point x="-185" y="1334" type="curve"/>
    </contour>
  </outline>
</glyph>
<glyph name="uni1ABD" format="2">
  <unicode hex="1ABD"/>
  <anchor x="-459" y="-320" name="_markparent_bottom"/>
  <outline>
    <contour>
      <point x="-735" y="-536" type="curve"/>
      <point x="-732" y="-507" type="line"/>
      <point x="-795" y="-478"/>
      <point x="-848" y="-411"/>
      <point x="-848" y="-323" type="curve" smooth="yes"/>
      <point x="-848" y="-238"/>
      <point x="-801" y="-171"/>
      <point x="-732" y="-143" type="curve"/>
      <point x="-735" y="-113" type="line"/>
      <point x="-819" y="-144"/>
      <point x="-885" y="-229"/>
      <point x="-885" y="-323" type="curve" smooth="yes"/>
      <point x="-885" y="-426"/>
      <point x="-819" y="-505"/>
    </contour>
    <contour>
      <point x="-183" y="-536" type="line"/>
      <point x="-99" y="-505"/>
      <point x="-33" y="-426"/>
      <point x="-33" y="-323" type="curve" smooth="yes"/>
      <point x="-33" y="-230"/>
      <point x="-99" y="-144"/>
      <point x="-183" y="-113" type="curve"/>
      <point x="-186" y="-143" type="line"/>
      <point x="-117" y="-171"/>
      <point x="-70" y="-240"/>
      <point x="-70" y="-323" type="curve" smooth="yes"/>
      <point x="-70" y="-410"/>
      <point x="-123" y="-478"/>
      <point x="-186" y="-507" type="curve"/>
    </contour>
  </outline>
</glyph>
<glyph name="uni1ABE" format="2">
  <unicode hex="1ABE"/>
  <outline>
    <contour>
      <point x="-840" y="358" type="curve"/>
      <point x="-837" y="390" type="line"/>
      <point x="-902" y="417"/>
      <point x="-953" y="487"/>
      <point x="-953" y="572" type="curve" smooth="yes"/>
      <point x="-953" y="657"/>
      <point x="-906" y="725"/>
      <point x="-837" y="754" type="curve"/>
      <point x="-840" y="784" type="line"/>
      <point x="-924" y="753"/>
      <point x="-988" y="667"/>
      <point x="-988" y="572" type="curve" smooth="yes"/>
      <point x="-988" y="473"/>
      <point x="-924" y="389"/>
    </contour>
    <contour>
      <point x="3" y="358" type="line"/>
      <point x="88" y="389"/>
      <point x="151" y="473"/>
      <point x="151" y="572" type="curve" smooth="yes"/>
      <point x="151" y="668"/>
      <point x="88" y="753"/>
      <point x="3" y="784" type="curve"/>
      <point x="-1" y="754" type="line"/>
      <point x="68" y="725"/>
      <point x="114" y="657"/>
      <point x="114" y="572" type="curve" smooth="yes"/>
      <point x="114" y="485"/>
      <point x="64" y="417"/>
      <point x="-1" y="390" type="curve"/>
    </contour>
  </outline>
</glyph>
<glyph name="uni1D02" format="2">
  <advance width="1510"/>
  <unicode hex="1D02"/>
  <anchor x="762" y="1290" name="top"/>
  <anchor x="762" y="0" name="bottom"/>
  <anchor x="1491" y="1290" name="top0315"/>
  <anchor x="762" y="1290" name="parent_top"/>
  <outline>
    <contour>
      <point x="804" y="898" type="line"/>
      <point x="751" y="863" type="line"/>
      <point x="751" y="363" type="line"/>
      <point x="751" y="108"/>
      <point x="869" y="-21"/>
      <point x="1049" y="-21" type="curve" smooth="yes"/>
      <point x="1255" y="-21"/>
      <point x="1388" y="116"/>
      <point x="1388" y="303" type="curve"/>
      <point x="1337" y="311" type="line"/>
      <point x="1337" y="150"/>
      <point x="1230" y="31"/>
      <point x="1049" y="31" type="curve" smooth="yes"/>
      <point x="884" y="31"/>
      <point x="804" y="150"/>
      <point x="804" y="361" type="curve"/>
    </contour>
    <contour>
      <point x="783" y="452" type="line"/>
      <point x="1047" y="452" type="line"/>
      <point x="1286" y="452"/>
      <point x="1413" y="593"/>
      <point x="1413" y="798" type="curve" smooth="yes"/>
      <point x="1413" y="982"/>
      <point x="1305" y="1099"/>
      <point x="1112" y="1099" type="curve" smooth="yes"/>
      <point x="913" y="1099"/>
      <point x="794" y="969"/>
      <point x="752" y="862" type="curve"/>
      <point x="801" y="856" type="line"/>
      <point x="817" y="926"/>
      <point x="949" y="1053"/>
      <point x="1111" y="1053" type="curve" smooth="yes"/>
      <point x="1272" y="1053"/>
      <point x="1359" y="958"/>
      <point x="1359" y="802" type="curve" smooth="yes"/>
      <point x="1359" y="641"/>
      <point x="1261" y="503"/>
      <point x="1045" y="503" type="curve"/>
      <point x="783" y="503" type="line"/>
    </contour>
    <contour>
      <point x="415" y="1099" type="curve"/>
      <point x="251" y="1099"/>
      <point x="166" y="1031"/>
      <point x="107" y="957" type="curve"/>
      <point x="133" y="919" type="line"/>
      <point x="199" y="998"/>
      <point x="294" y="1051"/>
      <point x="415" y="1051" type="curve" smooth="yes"/>
      <point x="649" y="1051"/>
      <point x="749" y="842"/>
      <point x="749" y="582" type="curve" smooth="yes"/>
      <point x="749" y="517" type="line" smooth="yes"/>
      <point x="749" y="248"/>
      <point x="628" y="31"/>
      <point x="429" y="31" type="curve"/>
      <point x="235" y="31"/>
      <point x="137" y="200"/>
      <point x="137" y="418" type="curve"/>
      <point x="137" y="450" type="line"/>
      <point x="769" y="450" type="line"/>
      <point x="769" y="501" type="line"/>
      <point x="84" y="501" type="line"/>
      <point x="84" y="421" type="line" smooth="yes"/>
      <point x="84" y="147"/>
      <point x="214" y="-21"/>
      <point x="429" y="-21" type="curve" smooth="yes"/>
      <point x="643" y="-21"/>
      <point x="802" y="201"/>
      <point x="802" y="517" type="curve" smooth="yes"/>
      <point x="802" y="582" type="line" smooth="yes"/>
      <point x="802" y="884"/>
      <point x="665" y="1099"/>
    </contour>
  </outline>
</glyph>
<glyph name="uni1D0C" format="2">
  <advance width="821"/>
  <unicode hex="1D0C"/>
  <anchor x="227" y="1290" name="top"/>
  <anchor x="477" y="0" name="bottom"/>
  <anchor x="802" y="1290" name="top0315"/>
  <anchor x="227" y="1290" name="parent_top"/>
  <outline>
    <contour>
      <point x="774" y="51" type="line"/>
      <point x="225" y="51" type="line"/>
      <point x="225" y="0" type="line"/>
      <point x="774" y="0" type="line"/>
    </contour>
    <contour>
      <point x="251" y="1082" type="line"/>
      <point x="199" y="1082" type="line"/>
      <point x="199" y="0" type="line"/>
      <point x="251" y="0" type="line"/>
    </contour>
    <contour>
      <point x="554" y="760" type="line"/>
      <point x="53" y="573" type="line"/>
      <point x="53" y="519" type="line"/>
      <point x="554" y="706" type="line"/>
    </contour>
  </outline>
</glyph>
<glyph name="uni1D1E" format="2">
  <advance width="1365"/>
  <unicode hex="1D1E"/>
  <outline>
    <contour>
      <point x="122" y="244" type="curve" smooth="yes"/>
      <point x="149" y="244"/>
      <point x="169" y="267"/>
      <point x="169" y="297" type="curve" smooth="yes"/>
      <point x="169" y="328"/>
      <point x="149" y="353"/>
      <point x="122" y="353" type="curve" smooth="yes"/>
      <point x="94" y="353"/>
      <point x="72" y="328"/>
      <point x="72" y="297" type="curve" smooth="yes"/>
      <point x="72" y="267"/>
      <point x="94" y="244"/>
    </contour>
    <contour>
      <point x="122" y="710" type="curve" smooth="yes"/>
      <point x="149" y="710"/>
      <point x="169" y="733"/>
      <point x="169" y="761" type="curve" smooth="yes"/>
      <point x="169" y="794"/>
      <point x="149" y="818"/>
      <point x="122" y="818" type="curve" smooth="yes"/>
      <point x="94" y="818"/>
      <point x="72" y="794"/>
      <point x="72" y="761" type="curve" smooth="yes"/>
      <point x="72" y="733"/>
      <point x="94" y="710"/>
    </contour>
    <contour>
      <point x="1032" y="870" type="line"/>
      <point x="1245" y="870" type="line"/>
      <point x="1245" y="920" type="line"/>
      <point x="326" y="920" type="line"/>
      <point x="326" y="870" type="line"/>
    </contour>
    <contour>
      <point x="866" y="879" type="line"/>
      <point x="1041" y="879"/>
      <point x="1211" y="786"/>
      <point x="1211" y="494" type="curve" smooth="yes"/>
      <point x="1211" y="316"/>
      <point x="1110" y="189"/>
      <point x="852" y="189" type="curve" smooth="yes"/>
      <point x="326" y="189" type="line"/>
      <point x="326" y="140" type="line"/>
      <point x="850" y="140" type="line" smooth="yes"/>
      <point x="1143" y="140"/>
      <point x="1263" y="283"/>
      <point x="1263" y="495" type="curve" smooth="yes"/>
      <point x="1263" y="793"/>
      <point x="1094" y="924"/>
      <point x="864" y="924" type="curve"/>
    </contour>
  </outline>
</glyph>
<glyph name="uni1D23" format="2">
  <advance width="882"/>
  <unicode hex="1D23"/>
  <anchor x="456" y="1290" name="top"/>
  <anchor x="456" y="0" name="bottom"/>
  <anchor x="863" y="1290" name="top0315"/>
  <anchor x="456" y="1290" name="parent_top"/>
  <outline>
    <contour>
      <point x="330" y="632" type="line"/>
      <point x="330" y="587" type="line"/>
      <point x="454" y="587" type="line" smooth="yes"/>
      <point x="650" y="587"/>
      <point x="747" y="488"/>
      <point x="747" y="316" type="curve" smooth="yes"/>
      <point x="747" y="160"/>
      <point x="648" y="36"/>
      <point x="457" y="36" type="curve" smooth="yes"/>
      <point x="289" y="36"/>
      <point x="163" y="147"/>
      <point x="163" y="301" type="curve"/>
      <point x="110" y="301" type="line"/>
      <point x="110" y="83"/>
      <point x="295" y="-15"/>
      <point x="457" y="-15" type="curve" smooth="yes"/>
      <point x="660" y="-15"/>
      <point x="800" y="126"/>
      <point x="800" y="319" type="curve" smooth="yes"/>
      <point x="800" y="500"/>
      <point x="692" y="632"/>
      <point x="459" y="632" type="curve" smooth="yes"/>
    </contour>
    <contour>
      <point x="129" y="1082" type="line"/>
      <point x="129" y="1030" type="line"/>
      <point x="699" y="1030" type="line"/>
      <point x="330" y="631" type="line"/>
      <point x="330" y="618" type="line"/>
      <point x="381" y="618" type="line"/>
      <point x="761" y="1017" type="line"/>
      <point x="761" y="1082" type="line"/>
    </contour>
  </outline>
</glyph>
<glyph name="uni1D25" format="2">
  <advance width="1085"/>
  <unicode hex="1D25"/>
  <anchor x="541" y="1290" name="top"/>
  <anchor x="541" y="0" name="bottom"/>
  <anchor x="1066" y="1290" name="top0315"/>
  <anchor x="541" y="1290" name="parent_top"/>
  <outline>
    <contour>
      <point x="542" y="1101" type="curve" smooth="yes"/>
      <point x="730" y="1101"/>
      <point x="836" y="954"/>
      <point x="836" y="759" type="curve" smooth="yes"/>
      <point x="836" y="547"/>
      <point x="691" y="331"/>
      <point x="589" y="187" type="curve"/>
      <point x="631" y="77"/>
      <point x="716" y="30"/>
      <point x="807" y="30" type="curve" smooth="yes"/>
      <point x="867" y="30"/>
      <point x="925" y="41"/>
      <point x="999" y="73" type="curve"/>
      <point x="1015" y="23" type="line"/>
      <point x="958" y="-1"/>
      <point x="887" y="-20"/>
      <point x="807" y="-20" type="curve" smooth="yes"/>
      <point x="677" y="-20"/>
      <point x="607" y="35"/>
      <point x="542" y="147" type="curve"/>
      <point x="477" y="35"/>
      <point x="407" y="-20"/>
      <point x="278" y="-20" type="curve" smooth="yes"/>
      <point x="197" y="-20"/>
      <point x="127" y="-1"/>
      <point x="69" y="23" type="curve"/>
      <point x="84" y="73" type="line"/>
      <point x="161" y="41"/>
      <point x="218" y="30"/>
      <point x="278" y="30" type="curve" smooth="yes"/>
      <point x="369" y="30"/>
      <point x="454" y="75"/>
      <point x="496" y="185" type="curve"/>
      <point x="446" y="252"/>
      <point x="393" y="341"/>
      <point x="343" y="434" type="curve" smooth="yes"/>
      <point x="289" y="537"/>
      <point x="248" y="648"/>
      <point x="248" y="759" type="curve" smooth="yes"/>
      <point x="248" y="954"/>
      <point x="356" y="1101"/>
    </contour>
  </outline>
</glyph>
<glyph name="uni1D2E" format="2">
  <advance width="776"/>
  <unicode hex="1D2E"/>
  <outline>
    <contour>
      <point x="428" y="1176" type="line"/>
      <point x="481" y="1206" type="line"/>
      <point x="599" y="1220"/>
      <point x="666" y="1319"/>
      <point x="666" y="1452" type="curve" smooth="yes"/>
      <point x="666" y="1644"/>
      <point x="550" y="1728"/>
      <point x="365" y="1728" type="curve" smooth="yes"/>
      <point x="120" y="1728" type="line"/>
      <point x="120" y="651" type="line"/>
      <point x="171" y="651" type="line"/>
      <point x="171" y="1677" type="line"/>
      <point x="363" y="1677" type="line" smooth="yes"/>
      <point x="535" y="1677"/>
      <point x="613" y="1609"/>
      <point x="613" y="1452" type="curve" smooth="yes"/>
      <point x="613" y="1294"/>
      <point x="539" y="1228"/>
      <point x="376" y="1228" type="curve" smooth="yes"/>
      <point x="146" y="1228" type="line"/>
      <point x="146" y="1176" type="line"/>
    </contour>
    <contour>
      <point x="422" y="651" type="line"/>
      <point x="590" y="651"/>
      <point x="706" y="756"/>
      <point x="706" y="948" type="curve" smooth="yes"/>
      <point x="706" y="1078"/>
      <point x="618" y="1193"/>
      <point x="503" y="1208" type="curve"/>
      <point x="496" y="1227" type="line"/>
      <point x="279" y="1228" type="line"/>
      <point x="277" y="1176" type="line"/>
      <point x="428" y="1176" type="line" smooth="yes"/>
      <point x="587" y="1176"/>
      <point x="653" y="1063"/>
      <point x="653" y="946" type="curve" smooth="yes"/>
      <point x="653" y="786"/>
      <point x="572" y="703"/>
      <point x="421" y="703" type="curve" smooth="yes"/>
      <point x="168" y="703" type="line"/>
      <point x="142" y="651" type="line"/>
    </contour>
  </outline>
</glyph>
<glyph name="uni1D31" format="2">
  <advance width="733"/>
  <unicode hex="1D31"/>
  <outline>
    <contour>
      <point x="679" y="703" type="line"/>
      <point x="139" y="703" type="line"/>
      <point x="139" y="651" type="line"/>
      <point x="679" y="651" type="line"/>
    </contour>
    <contour>
      <point x="171" y="1728" type="line"/>
      <point x="120" y="1728" type="line"/>
      <point x="120" y="651" type="line"/>
      <point x="171" y="651" type="line"/>
    </contour>
    <contour>
      <point x="614" y="1243" type="line"/>
      <point x="139" y="1243" type="line"/>
      <point x="139" y="1190" type="line"/>
      <point x="614" y="1190" type="line"/>
    </contour>
    <contour>
      <point x="679" y="1728" type="line"/>
      <point x="139" y="1728" type="line"/>
      <point x="139" y="1676" type="line"/>
      <point x="679" y="1676" type="line"/>
    </contour>
  </outline>
</glyph>
<glyph name="uni1D33" format="2">
  <advance width="842"/>
  <unicode hex="1D33"/>
  <outline>
    <contour>
      <point x="752" y="1142" type="line"/>
      <point x="441" y="1142" type="line"/>
      <point x="441" y="1092" type="line"/>
      <point x="704" y="1092" type="line"/>
      <point x="704" y="786" type="line"/>
      <point x="676" y="748"/>
      <point x="590" y="691"/>
      <point x="442" y="691" type="curve" smooth="yes"/>
      <point x="256" y="691"/>
      <point x="138" y="860"/>
      <point x="138" y="1111" type="curve" smooth="yes"/>
      <point x="138" y="1293" type="line" smooth="yes"/>
      <point x="138" y="1537"/>
      <point x="247" y="1697"/>
      <point x="431" y="1697" type="curve" smooth="yes"/>
      <point x="610" y="1697"/>
      <point x="684" y="1584"/>
      <point x="703" y="1441" type="curve"/>
      <point x="752" y="1441" type="line"/>
      <point x="735" y="1613"/>
      <point x="630" y="1749"/>
      <point x="431" y="1749" type="curve" smooth="yes"/>
      <point x="226" y="1749"/>
      <point x="86" y="1562"/>
      <point x="86" y="1292" type="curve" smooth="yes"/>
      <point x="86" y="1111" type="line" smooth="yes"/>
      <point x="86" y="833"/>
      <point x="233" y="640"/>
      <point x="442" y="640" type="curve" smooth="yes"/>
      <point x="621" y="640"/>
      <point x="724" y="720"/>
      <point x="752" y="769" type="curve"/>
    </contour>
  </outline>
</glyph>
<glyph name="uni1D35" format="2">
  <advance width="294"/>
  <unicode hex="1D35"/>
  <outline>
    <contour>
      <point x="173" y="1728" type="line"/>
      <point x="121" y="1728" type="line"/>
      <point x="121" y="651" type="line"/>
      <point x="173" y="651" type="line"/>
    </contour>
  </outline>
</glyph>
<glyph name="uni1D37" format="2">
  <advance width="822"/>
  <unicode hex="1D37"/>
  <outline>
    <contour>
      <point x="172" y="1728" type="line"/>
      <point x="120" y="1728" type="line"/>
      <point x="120" y="651" type="line"/>
      <point x="172" y="651" type="line"/>
    </contour>
    <contour>
      <point x="736" y="1728" type="line"/>
      <point x="669" y="1728" type="line"/>
      <point x="299" y="1278" type="line"/>
      <point x="147" y="1099" type="line"/>
      <point x="144" y="1040" type="line"/>
      <point x="329" y="1236" type="line"/>
    </contour>
    <contour>
      <point x="703" y="651" type="line"/>
      <point x="769" y="651" type="line"/>
      <point x="319" y="1264" type="line"/>
      <point x="288" y="1229" type="line"/>
    </contour>
  </outline>
</glyph>
<glyph name="uni1D3C" format="2">
  <advance width="867"/>
  <unicode hex="1D3C"/>
  <outline>
    <contour>
      <point x="779" y="1276" type="line"/>
      <point x="779" y="1553"/>
      <point x="643" y="1747"/>
      <point x="433" y="1747" type="curve" smooth="yes"/>
      <point x="222" y="1747"/>
      <point x="86" y="1553"/>
      <point x="86" y="1276" type="curve" smooth="yes"/>
      <point x="86" y="1111" type="line" smooth="yes"/>
      <point x="86" y="830"/>
      <point x="224" y="640"/>
      <point x="434" y="640" type="curve" smooth="yes"/>
      <point x="646" y="640"/>
      <point x="779" y="830"/>
      <point x="779" y="1111" type="curve" smooth="yes"/>
    </contour>
    <contour>
      <point x="729" y="1111" type="line"/>
      <point x="729" y="857"/>
      <point x="619" y="689"/>
      <point x="434" y="689" type="curve" smooth="yes"/>
      <point x="247" y="689"/>
      <point x="138" y="857"/>
      <point x="138" y="1111" type="curve" smooth="yes"/>
      <point x="138" y="1277" type="line" smooth="yes"/>
      <point x="138" y="1528"/>
      <point x="246" y="1696"/>
      <point x="433" y="1696" type="curve" smooth="yes"/>
      <point x="618" y="1696"/>
      <point x="729" y="1528"/>
      <point x="729" y="1277" type="curve" smooth="yes"/>
    </contour>
  </outline>
</glyph>
<glyph name="uni1D3E" format="2">
  <advance width="791"/>
  <unicode hex="1D3E"/>
  <outline>
    <contour>
      <point x="410" y="1097" type="line"/>
      <point x="607" y="1097"/>
      <point x="705" y="1225"/>
      <point x="705" y="1414" type="curve" smooth="yes"/>
      <point x="705" y="1603"/>
      <point x="605" y="1728"/>
      <point x="410" y="1728" type="curve" smooth="yes"/>
      <point x="120" y="1728" type="line"/>
      <point x="120" y="651" type="line"/>
      <point x="172" y="651" type="line"/>
      <point x="172" y="1676" type="line"/>
      <point x="408" y="1676" type="line" smooth="yes"/>
      <point x="590" y="1676"/>
      <point x="653" y="1569"/>
      <point x="653" y="1414" type="curve" smooth="yes"/>
      <point x="653" y="1268"/>
      <point x="590" y="1149"/>
      <point x="408" y="1149" type="curve" smooth="yes"/>
      <point x="135" y="1149" type="line"/>
      <point x="135" y="1097" type="line"/>
    </contour>
  </outline>
</glyph>
<glyph name="uni1D40" format="2">
  <advance width="805"/>
  <unicode hex="1D40"/>
  <outline>
    <contour>
      <point x="428" y="1728" type="line"/>
      <point x="377" y="1728" type="line"/>
      <point x="377" y="651" type="line"/>
      <point x="428" y="651" type="line"/>
    </contour>
    <contour>
      <point x="751" y="1728" type="line"/>
      <point x="53" y="1728" type="line"/>
      <point x="53" y="1676" type="line"/>
      <point x="751" y="1676" type="line"/>
    </contour>
  </outline>
</glyph>
<glyph name="uni1D42" format="2">
  <advance width="1196"/>
  <unicode hex="1D42"/>
  <outline>
    <contour>
      <point x="353" y="891" type="line"/>
      <point x="301" y="651" type="line"/>
      <point x="343" y="651" type="line"/>
      <point x="572" y="1553" type="line"/>
      <point x="616" y="1728" type="line"/>
      <point x="570" y="1728" type="line"/>
    </contour>
    <contour>
      <point x="107" y="1728" type="line"/>
      <point x="54" y="1728" type="line"/>
      <point x="300" y="651" type="line"/>
      <point x="342" y="651" type="line"/>
      <point x="294" y="891" type="line"/>
    </contour>
    <contour>
      <point x="895" y="891" type="line"/>
      <point x="843" y="651" type="line"/>
      <point x="883" y="651" type="line"/>
      <point x="1143" y="1728" type="line"/>
      <point x="1088" y="1728" type="line"/>
    </contour>
    <contour>
      <point x="629" y="1728" type="line"/>
      <point x="582" y="1728" type="line"/>
      <point x="627" y="1553" type="line"/>
      <point x="843" y="651" type="line"/>
      <point x="877" y="651" type="line"/>
      <point x="834" y="891" type="line"/>
    </contour>
  </outline>
</glyph>
<glyph name="uni1D4A" format="2">
  <advance width="719"/>
  <unicode hex="1D4A"/>
  <outline>
    <contour>
      <point x="334" y="1471" type="curve" smooth="yes"/>
      <point x="223" y="1471"/>
      <point x="151" y="1416"/>
      <point x="105" y="1340" type="curve"/>
      <point x="145" y="1311" type="line"/>
      <point x="200" y="1391"/>
      <point x="255" y="1417"/>
      <point x="333" y="1417" type="curve" smooth="yes"/>
      <point x="479" y="1417"/>
      <point x="581" y="1271"/>
      <point x="581" y="1070" type="curve" smooth="yes"/>
      <point x="581" y="1038" type="line" smooth="yes"/>
      <point x="581" y="838"/>
      <point x="493" y="690"/>
      <point x="347" y="690" type="curve" smooth="yes"/>
      <point x="212" y="690"/>
      <point x="138" y="815"/>
      <point x="138" y="977" type="curve" smooth="yes"/>
      <point x="138" y="987" type="line"/>
      <point x="606" y="987" type="line"/>
      <point x="606" y="1039" type="line"/>
      <point x="86" y="1039" type="line"/>
      <point x="86" y="977" type="line" smooth="yes"/>
      <point x="86" y="776"/>
      <point x="192" y="638"/>
      <point x="347" y="638" type="curve" smooth="yes"/>
      <point x="502" y="638"/>
      <point x="633" y="804"/>
      <point x="633" y="1038" type="curve" smooth="yes"/>
      <point x="633" y="1070" type="line" smooth="yes"/>
      <point x="633" y="1303"/>
      <point x="499" y="1471"/>
    </contour>
  </outline>
</glyph>
<glyph name="uni1D4E" format="2">
  <advance width="326"/>
  <unicode hex="1D4E"/>
  <outline>
    <contour>
      <point x="188" y="1453" type="line"/>
      <point x="138" y="1453" type="line"/>
      <point x="138" y="651" type="line"/>
      <point x="188" y="651" type="line"/>
    </contour>
    <contour>
      <point x="121" y="411" type="curve" smooth="yes"/>
      <point x="121" y="384"/>
      <point x="138" y="366"/>
      <point x="163" y="366" type="curve" smooth="yes"/>
      <point x="188" y="366"/>
      <point x="207" y="384"/>
      <point x="207" y="411" type="curve" smooth="yes"/>
      <point x="207" y="437"/>
      <point x="188" y="456"/>
      <point x="163" y="456" type="curve" smooth="yes"/>
      <point x="138" y="456"/>
      <point x="121" y="437"/>
    </contour>
  </outline>
</glyph>
<glyph name="uni1D50" format="2">
  <advance width="1249"/>
  <unicode hex="1D50"/>
  <outline>
    <contour>
      <point x="164" y="1078" type="line"/>
      <point x="164" y="1270"/>
      <point x="250" y="1421"/>
      <point x="401" y="1421" type="curve" smooth="yes"/>
      <point x="521" y="1421"/>
      <point x="600" y="1356"/>
      <point x="600" y="1167" type="curve" smooth="yes"/>
      <point x="600" y="651" type="line"/>
      <point x="651" y="651" type="line"/>
      <point x="651" y="1159" type="line" smooth="yes"/>
      <point x="651" y="1375"/>
      <point x="556" y="1466"/>
      <point x="405" y="1466" type="curve" smooth="yes"/>
      <point x="239" y="1466"/>
      <point x="131" y="1302"/>
      <point x="131" y="1077" type="curve"/>
    </contour>
    <contour>
      <point x="173" y="1280" type="line"/>
      <point x="161" y="1458" type="line"/>
      <point x="120" y="1458" type="line"/>
      <point x="120" y="651" type="line"/>
      <point x="173" y="651" type="line"/>
    </contour>
    <contour>
      <point x="641" y="1078" type="line"/>
      <point x="641" y="1270"/>
      <point x="728" y="1421"/>
      <point x="882" y="1421" type="curve" smooth="yes"/>
      <point x="1000" y="1421"/>
      <point x="1079" y="1356"/>
      <point x="1079" y="1167" type="curve" smooth="yes"/>
      <point x="1079" y="651" type="line"/>
      <point x="1129" y="651" type="line"/>
      <point x="1129" y="1159" type="line" smooth="yes"/>
      <point x="1129" y="1375"/>
      <point x="1035" y="1466"/>
      <point x="883" y="1466" type="curve" smooth="yes"/>
      <point x="720" y="1466"/>
      <point x="608" y="1302"/>
      <point x="608" y="1077" type="curve"/>
    </contour>
  </outline>
</glyph>
<glyph name="uni1D5A" format="2">
  <advance width="1249"/>
  <unicode hex="1D5A"/>
  <outline>
    <contour>
      <point x="366" y="643" type="curve" smooth="yes"/>
      <point x="530" y="643"/>
      <point x="640" y="807"/>
      <point x="640" y="1032" type="curve"/>
      <point x="607" y="1031" type="line"/>
      <point x="607" y="835"/>
      <point x="521" y="687"/>
      <point x="368" y="687" type="curve" smooth="yes"/>
      <point x="250" y="687"/>
      <point x="171" y="753"/>
      <point x="171" y="941" type="curve" smooth="yes"/>
      <point x="171" y="1458" type="line"/>
      <point x="120" y="1458" type="line"/>
      <point x="120" y="950" type="line" smooth="yes"/>
      <point x="120" y="734"/>
      <point x="213" y="643"/>
    </contour>
    <contour>
      <point x="845" y="643" type="curve" smooth="yes"/>
      <point x="1009" y="643"/>
      <point x="1119" y="807"/>
      <point x="1119" y="1032" type="curve"/>
      <point x="1086" y="1031" type="line"/>
      <point x="1086" y="835"/>
      <point x="999" y="687"/>
      <point x="848" y="687" type="curve" smooth="yes"/>
      <point x="729" y="687"/>
      <point x="649" y="753"/>
      <point x="649" y="941" type="curve" smooth="yes"/>
      <point x="649" y="1458" type="line"/>
      <point x="598" y="1458" type="line"/>
      <point x="598" y="950" type="line" smooth="yes"/>
      <point x="598" y="734"/>
      <point x="694" y="643"/>
    </contour>
    <contour>
      <point x="1076" y="829" type="line"/>
      <point x="1089" y="651" type="line"/>
      <point x="1129" y="651" type="line"/>
      <point x="1129" y="1458" type="line"/>
      <point x="1076" y="1458" type="line"/>
    </contour>
  </outline>
</glyph>
<glyph name="uni1D61" format="2">
  <advance width="750"/>
  <unicode hex="1D61"/>
  <outline>
    <contour>
      <point x="645" y="1458" type="line"/>
      <point x="590" y="1458" type="line"/>
      <point x="90" y="353" type="line"/>
      <point x="145" y="353" type="line"/>
    </contour>
    <contour>
      <point x="102" y="1466" type="curve" smooth="yes"/>
      <point x="89" y="1466"/>
      <point x="64" y="1464"/>
      <point x="54" y="1460" type="curve"/>
      <point x="67" y="1409" type="line"/>
      <point x="76" y="1412"/>
      <point x="93" y="1415"/>
      <point x="102" y="1415" type="curve" smooth="yes"/>
      <point x="171" y="1415"/>
      <point x="189" y="1368"/>
      <point x="222" y="1280" type="curve" smooth="yes"/>
      <point x="505" y="499" type="line" smooth="yes"/>
      <point x="546" y="390"/>
      <point x="586" y="350"/>
      <point x="650" y="350" type="curve" smooth="yes"/>
      <point x="662" y="350"/>
      <point x="686" y="354"/>
      <point x="696" y="357" type="curve"/>
      <point x="689" y="403" type="line"/>
      <point x="679" y="400"/>
      <point x="657" y="401"/>
      <point x="649" y="401" type="curve" smooth="yes"/>
      <point x="597" y="401"/>
      <point x="567" y="472"/>
      <point x="537" y="557" type="curve" smooth="yes"/>
      <point x="268" y="1297" type="line" smooth="yes"/>
      <point x="234" y="1393"/>
      <point x="196" y="1466"/>
    </contour>
  </outline>
</glyph>
<glyph name="uni1D74" format="2">
  <advance width="881"/>
  <unicode hex="1D74"/>
  <anchor x="465" y="1290" name="top"/>
  <anchor x="465" y="0" name="bottom"/>
  <anchor x="862" y="1290" name="top0315"/>
  <anchor x="465" y="1290" name="parent_top"/>
  <outline>
    <contour>
      <point x="780" y="676" type="line"/>
      <point x="779" y="593"/>
      <point x="734" y="535"/>
      <point x="676" y="535" type="curve" smooth="yes"/>
      <point x="641" y="535"/>
      <point x="569" y="554"/>
      <point x="488" y="577" type="curve" smooth="yes"/>
      <point x="377" y="613"/>
      <point x="252" y="652"/>
      <point x="207" y="652" type="curve" smooth="yes"/>
      <point x="118" y="652"/>
      <point x="53" y="585"/>
      <point x="53" y="476" type="curve"/>
      <point x="102" y="467" type="line"/>
      <point x="103" y="550"/>
      <point x="146" y="601"/>
      <point x="205" y="601" type="curve" smooth="yes"/>
      <point x="246" y="601"/>
      <point x="362" y="565"/>
      <point x="471" y="528" type="curve" smooth="yes"/>
      <point x="552" y="499"/>
      <point x="631" y="483"/>
      <point x="676" y="483" type="curve" smooth="yes"/>
      <point x="762" y="483"/>
      <point x="827" y="556"/>
      <point x="827" y="666" type="curve"/>
    </contour>
    <contour>
      <point x="742" y="263" type="curve" smooth="yes"/>
      <point x="742" y="152"/>
      <point x="646" y="31"/>
      <point x="470" y="31" type="curve" smooth="yes"/>
      <point x="337" y="31"/>
      <point x="186" y="87"/>
      <point x="177" y="273" type="curve"/>
      <point x="124" y="273" type="line"/>
      <point x="124" y="115"/>
      <point x="245" y="-20"/>
      <point x="470" y="-20" type="curve" smooth="yes"/>
      <point x="669" y="-20"/>
      <point x="793" y="96"/>
      <point x="793" y="263" type="curve"/>
      <point x="793" y="432"/>
      <point x="700" y="519"/>
      <point x="480" y="578" type="curve" smooth="yes"/>
      <point x="244" y="643"/>
      <point x="206" y="720"/>
      <point x="206" y="834" type="curve"/>
      <point x="206" y="935"/>
      <point x="280" y="1051"/>
      <point x="462" y="1051" type="curve" smooth="yes"/>
      <point x="641" y="1051"/>
      <point x="738" y="929"/>
      <point x="738" y="793" type="curve"/>
      <point x="793" y="793" type="line"/>
      <point x="793" y="977"/>
      <point x="669" y="1102"/>
      <point x="462" y="1102" type="curve" smooth="yes"/>
      <point x="270" y="1102"/>
      <point x="153" y="981"/>
      <point x="153" y="830" type="curve"/>
      <point x="153" y="652"/>
      <point x="261" y="585"/>
      <point x="465" y="534" type="curve" smooth="yes"/>
      <point x="690" y="475"/>
      <point x="742" y="362"/>
    </contour>
  </outline>
</glyph>
<glyph name="uni1D75" format="2">
  <advance width="671"/>
  <unicode hex="1D75"/>
  <anchor x="324" y="1600" name="top"/>
  <anchor x="473" y="0" name="bottom"/>
  <anchor x="652" y="1600" name="top0315"/>
  <anchor x="324" y="1600" name="parent_top"/>
  <outline>
    <contour>
      <point x="557" y="1082" type="line"/>
      <point x="128" y="1082" type="line"/>
      <point x="128" y="1029" type="line"/>
      <point x="557" y="1029" type="line"/>
    </contour>
    <contour>
      <point x="297" y="1374" type="line"/>
      <point x="297" y="259" type="line" smooth="yes"/>
      <point x="297" y="42"/>
      <point x="370" y="-20"/>
      <point x="486" y="-20" type="curve" smooth="yes"/>
      <point x="512" y="-20"/>
      <point x="560" y="-18"/>
      <point x="584" y="-9" type="curve"/>
      <point x="577" y="40" type="line"/>
      <point x="546" y="34"/>
      <point x="521" y="31"/>
      <point x="487" y="31" type="curve" smooth="yes"/>
      <point x="414" y="31"/>
      <point x="351" y="66"/>
      <point x="351" y="259" type="curve" smooth="yes"/>
      <point x="351" y="1374" type="line"/>
    </contour>
    <contour>
      <point x="540" y="673" type="line"/>
      <point x="540" y="588"/>
      <point x="496" y="542"/>
      <point x="439" y="542" type="curve" smooth="yes"/>
      <point x="345" y="542"/>
      <point x="314" y="666"/>
      <point x="195" y="666" type="curve" smooth="yes"/>
      <point x="112" y="666"/>
      <point x="45" y="599"/>
      <point x="45" y="488" type="curve"/>
      <point x="95" y="489" type="line"/>
      <point x="95" y="572"/>
      <point x="141" y="615"/>
      <point x="196" y="615" type="curve" smooth="yes"/>
      <point x="296" y="615"/>
      <point x="318" y="488"/>
      <point x="441" y="488" type="curve" smooth="yes"/>
      <point x="523" y="488"/>
      <point x="591" y="563"/>
      <point x="591" y="672" type="curve"/>
    </contour>
  </outline>
</glyph>
<glyph name="uni1D76" format="2">
  <advance width="869"/>
  <unicode hex="1D76"/>
  <anchor x="437" y="1290" name="top"/>
  <anchor x="437" y="0" name="bottom"/>
  <anchor x="850" y="1290" name="top0315"/>
  <anchor x="437" y="1290" name="parent_top"/>
  <outline>
    <contour>
      <point x="658" y="683" type="line"/>
      <point x="658" y="598"/>
      <point x="610" y="539"/>
      <point x="556" y="539" type="curve" smooth="yes"/>
      <point x="460" y="539"/>
      <point x="421" y="666"/>
      <point x="304" y="666" type="curve" smooth="yes"/>
      <point x="218" y="666"/>
      <point x="153" y="597"/>
      <point x="153" y="487" type="curve"/>
      <point x="203" y="478" type="line"/>
      <point x="203" y="563"/>
      <point x="247" y="615"/>
      <point x="304" y="615" type="curve" smooth="yes"/>
      <point x="405" y="615"/>
      <point x="431" y="487"/>
      <point x="556" y="487" type="curve" smooth="yes"/>
      <point x="641" y="487"/>
      <point x="706" y="563"/>
      <point x="706" y="672" type="curve"/>
    </contour>
    <contour>
      <point x="810" y="51" type="line"/>
      <point x="107" y="51" type="line"/>
      <point x="107" y="0" type="line"/>
      <point x="810" y="0" type="line"/>
    </contour>
    <contour>
      <point x="761" y="1037" type="line"/>
      <point x="761" y="1082" type="line"/>
      <point x="729" y="1082" type="line"/>
      <point x="93" y="42" type="line"/>
      <point x="93" y="0" type="line"/>
      <point x="125" y="0" type="line"/>
    </contour>
    <contour>
      <point x="736" y="1082" type="line"/>
      <point x="119" y="1082" type="line"/>
      <point x="119" y="1030" type="line"/>
      <point x="736" y="1030" type="line"/>
    </contour>
  </outline>
</glyph>
<glyph name="uni1D77" format="2">
  <advance width="993"/>
  <unicode hex="1D77"/>
  <anchor x="515" y="1290" name="top"/>
  <anchor x="515" y="-447" name="bottom"/>
  <anchor x="974" y="1290" name="top0315"/>
  <anchor x="515" y="1290" name="parent_top"/>
  <outline>
    <contour>
      <point x="217" y="-417" type="line"/>
      <point x="217" y="-179" type="line"/>
      <point x="217" y="651" type="line" smooth="yes"/>
      <point x="217" y="895"/>
      <point x="319" y="1051"/>
      <point x="517" y="1051" type="curve" smooth="yes"/>
      <point x="627" y="1051"/>
      <point x="710" y="991"/>
      <point x="782" y="887" type="curve"/>
      <point x="816" y="921" type="line"/>
      <point x="750" y="1026"/>
      <point x="646" y="1103"/>
      <point x="514" y="1103" type="curve" smooth="yes"/>
      <point x="296" y="1103"/>
      <point x="164" y="928"/>
      <point x="164" y="651" type="curve" smooth="yes"/>
      <point x="164" y="-417" type="line"/>
    </contour>
    <contour>
      <point x="871" y="135" type="line"/>
      <point x="871" y="466"/>
      <point x="744" y="685"/>
      <point x="527" y="685" type="curve" smooth="yes"/>
      <point x="319" y="685"/>
      <point x="199" y="535"/>
      <point x="170" y="366" type="curve"/>
      <point x="170" y="-83" type="line"/>
      <point x="210" y="-285"/>
      <point x="323" y="-437"/>
      <point x="525" y="-437" type="curve" smooth="yes"/>
      <point x="742" y="-437"/>
      <point x="871" y="-227"/>
      <point x="871" y="114" type="curve" smooth="yes"/>
    </contour>
    <contour>
      <point x="819" y="114" type="line"/>
      <point x="819" y="-175"/>
      <point x="725" y="-385"/>
      <point x="524" y="-385" type="curve" smooth="yes"/>
      <point x="297" y="-385"/>
      <point x="226" y="-178"/>
      <point x="202" y="-45" type="curve"/>
      <point x="202" y="340" type="line"/>
      <point x="234" y="502"/>
      <point x="334" y="636"/>
      <point x="524" y="636" type="curve" smooth="yes"/>
      <point x="725" y="636"/>
      <point x="819" y="425"/>
      <point x="819" y="135" type="curve" smooth="yes"/>
    </contour>
  </outline>
</glyph>
<glyph name="uni1D7D" format="2">
  <advance width="1210"/>
  <unicode hex="1D7D"/>
  <anchor x="612" y="1290" name="top"/>
  <anchor x="284" y="-447" name="bottom"/>
  <anchor x="1192" y="1290" name="top0315"/>
  <anchor x="612" y="1290" name="parent_top"/>
  <outline>
    <contour>
      <point x="1157" y="641" type="line"/>
      <point x="52" y="641" type="line"/>
      <point x="52" y="590" type="line"/>
      <point x="1157" y="590" type="line"/>
    </contour>
    <contour>
      <point x="310" y="874" type="line"/>
      <point x="311" y="1082" type="line"/>
      <point x="259" y="1082" type="line"/>
      <point x="259" y="-416" type="line"/>
      <point x="310" y="-416" type="line"/>
    </contour>
    <contour>
      <point x="966" y="552" type="line"/>
      <point x="966" y="892"/>
      <point x="838" y="1102"/>
      <point x="618" y="1102" type="curve" smooth="yes"/>
      <point x="419" y="1102"/>
      <point x="300" y="949"/>
      <point x="260" y="750" type="curve"/>
      <point x="260" y="299" type="line"/>
      <point x="289" y="132"/>
      <point x="412" y="-20"/>
      <point x="620" y="-20" type="curve" smooth="yes"/>
      <point x="838" y="-20"/>
      <point x="966" y="201"/>
      <point x="966" y="531" type="curve" smooth="yes"/>
    </contour>
    <contour>
      <point x="914" y="531" type="line"/>
      <point x="914" y="240"/>
      <point x="818" y="31"/>
      <point x="620" y="31" type="curve" smooth="yes"/>
      <point x="428" y="31"/>
      <point x="326" y="163"/>
      <point x="295" y="328" type="curve"/>
      <point x="295" y="712" type="line"/>
      <point x="318" y="844"/>
      <point x="392" y="1052"/>
      <point x="617" y="1052" type="curve" smooth="yes"/>
      <point x="818" y="1052"/>
      <point x="914" y="841"/>
      <point x="914" y="552" type="curve" smooth="yes"/>
    </contour>
  </outline>
</glyph>
<glyph name="uni1D7E" format="2">
  <advance width="1325"/>
  <unicode hex="1D7E"/>
  <anchor x="661" y="1290" name="top"/>
  <anchor x="661" y="0" name="bottom"/>
  <anchor x="1306" y="1290" name="top0315"/>
  <anchor x="661" y="1290" name="parent_top"/>
  <outline>
    <contour>
      <point x="1273" y="641" type="line"/>
      <point x="52" y="641" type="line"/>
      <point x="52" y="590" type="line"/>
      <point x="1273" y="590" type="line"/>
    </contour>
    <contour>
      <point x="1004" y="1082" type="line"/>
      <point x="1004" y="391" type="line" smooth="yes"/>
      <point x="1004" y="170"/>
      <point x="857" y="34"/>
      <point x="662" y="34" type="curve" smooth="yes"/>
      <point x="470" y="34"/>
      <point x="320" y="170"/>
      <point x="320" y="391" type="curve" smooth="yes"/>
      <point x="320" y="1082" type="line"/>
      <point x="267" y="1082" type="line"/>
      <point x="267" y="391" type="line" smooth="yes"/>
      <point x="267" y="128"/>
      <point x="435" y="-17"/>
      <point x="662" y="-17" type="curve" smooth="yes"/>
      <point x="887" y="-17"/>
      <point x="1056" y="128"/>
      <point x="1056" y="391" type="curve" smooth="yes"/>
      <point x="1056" y="1082" type="line"/>
    </contour>
  </outline>
</glyph>
<glyph name="uni1D82" format="2">
  <advance width="588"/>
  <unicode hex="1D82"/>
  <anchor x="460" y="1701" name="top"/>
  <anchor x="259" y="-447" name="bottom"/>
  <anchor x="569" y="1701" name="top0315"/>
  <anchor x="460" y="1701" name="parent_top"/>
  <outline>
    <contour>
      <point x="275" y="51" type="line"/>
      <point x="275" y="-89" type="line" smooth="yes"/>
      <point x="275" y="-276"/>
      <point x="237" y="-386"/>
      <point x="114" y="-386" type="curve" smooth="yes"/>
      <point x="85" y="-386"/>
      <point x="50" y="-375"/>
      <point x="34" y="-368" type="curve"/>
      <point x="22" y="-415" type="line"/>
      <point x="55" y="-429"/>
      <point x="83" y="-437"/>
      <point x="118" y="-437" type="curve" smooth="yes"/>
      <point x="267" y="-437"/>
      <point x="327" y="-313"/>
      <point x="327" y="-89" type="curve" smooth="yes"/>
      <point x="327" y="51" type="line"/>
    </contour>
    <contour>
      <point x="285" y="0" type="line"/>
      <point x="285" y="1239" type="line"/>
      <point x="285" y="1407"/>
      <point x="360" y="1507"/>
      <point x="478" y="1507" type="curve" smooth="yes"/>
      <point x="524" y="1507"/>
      <point x="547" y="1502"/>
      <point x="579" y="1491" type="curve"/>
      <point x="586" y="1539" type="line"/>
      <point x="550" y="1553"/>
      <point x="511" y="1557"/>
      <point x="476" y="1557" type="curve" smooth="yes"/>
      <point x="325" y="1557"/>
      <point x="233" y="1444"/>
      <point x="233" y="1239" type="curve"/>
      <point x="233" y="0" type="line"/>
    </contour>
    <contour>
      <point x="526" y="1082" type="line"/>
      <point x="75" y="1082" type="line"/>
      <point x="75" y="1029" type="line"/>
      <point x="526" y="1029" type="line"/>
    </contour>
  </outline>
</glyph>
